<svg width="130" height="96" viewBox="0 0 130 96" fill="none" xmlns="http://www.w3.org/2000/svg">
<path d="M61.2605 70.8358C61.3717 69.523 61.2329 68.3588 60.8424 67.3433C60.6752 66.8059 60.4519 66.7164 60.1735 67.0746C58.9468 68.8657 57.4141 70.269 55.5746 71.2836C53.791 72.3582 52.2575 72.8364 50.9756 72.7164C49.4705 72.5373 48.5232 72.3287 48.1327 72.0896C47.4077 71.6723 47.0457 70.8663 47.0457 69.6717C47.0457 68.4779 47.3241 66.866 47.8818 64.8358C48.4395 62.9257 49.2615 60.3886 50.3485 57.2239C51.4355 54.06 52.8152 50.2388 54.4875 45.7612C55.7694 42.3582 56.8706 39.523 57.7904 37.2537C58.7102 34.9854 59.4209 33.2543 59.9226 32.0597C60.2571 31.3433 60.4243 30.7164 60.4243 30.1791C60.4243 28.8063 59.5606 28.0003 57.8322 27.7612C55.2677 27.3439 53.5678 28.0603 52.7316 29.9104C50.2231 35.1645 48.0348 39.6573 46.1677 43.3881C44.3005 47.1197 42.67 50.1197 41.2761 52.3881C33.8618 64.6272 27.8698 70.7463 23.2985 70.7463C22.5735 70.7463 21.9606 70.6272 21.4589 70.3881C19.2849 69.6125 18.1978 67.851 18.1978 65.1045C18.1978 62.1797 19.4521 58.2394 21.9606 53.2836C22.964 51.3135 23.9816 49.5224 25.0126 47.9105C26.0436 46.2985 27.0888 44.8361 28.1482 43.5224C38.2383 31.3433 47.5474 24.7764 56.0763 23.8209C58.3063 23.5827 59.4209 23.0749 59.4209 22.2985C59.4209 22.0003 59.0304 21.2543 58.2503 20.0597C57.3029 18.6869 56.1323 18 54.7384 18C50.2791 18 44.844 19.8215 38.4331 23.4627C31.1861 27.5821 25.1941 32.7761 20.4555 39.0448C12.8188 49.1346 9 58.2394 9 66.3582C9 70.8358 10.2818 74.0006 12.8464 75.8507C14.8532 77.2836 17.0272 78 19.3685 78C23.6053 78 28.2043 75.5821 33.1653 70.7463C36.6772 67.3433 39.4925 63.7316 41.6106 59.9104C41.8338 59.5522 42.0286 59.3731 42.1959 59.3731C42.5864 59.3731 42.6416 59.7018 42.3631 60.3582C40.3003 65.3731 39.2693 69.4335 39.2693 72.5373C39.2693 73.732 39.4641 74.5675 39.8546 75.0448C41.3037 76.7767 44.3139 77.6418 48.8852 77.6418C50.2791 77.6418 51.4773 77.5522 52.4807 77.3731C55.7142 76.7167 58.4451 75.1943 60.6752 72.806C60.9536 72.5078 61.1493 71.8513 61.2605 70.8358Z" fill="white"/>
<path d="M120.963 70.8358C121.074 69.523 120.935 68.3588 120.545 67.3433C120.378 66.806 120.154 66.7164 119.876 67.0746C118.816 68.6866 117.284 70.0899 115.277 71.2836C113.605 72.2991 112.239 72.8364 111.18 72.8955C109.006 73.0155 107.389 72.7164 106.33 72C105.55 71.5227 105.159 70.8358 105.159 69.9403C105.159 69.5821 105.243 69.0752 105.41 68.4179C105.466 68.2988 105.717 67.5824 106.163 66.2687C106.608 64.9559 107.277 63.0153 108.17 60.4478C109.842 55.732 110.929 52.329 111.431 50.2388C111.765 48.9851 111.932 47.8514 111.932 46.8358C111.932 44.5075 111.04 42.8955 109.257 42C108.197 41.4036 107.083 41.1045 105.912 41.1045C103.794 41.1045 101.424 42.2391 98.8045 44.5074C97.1321 46.0003 95.2926 48.12 93.2858 50.8657C91.6134 53.1349 90.7497 54.2687 90.6936 54.2687C90.4152 54.2687 90.4988 53.7618 90.9445 52.7463C92.0039 50.2388 92.5332 48.06 92.5332 46.209C92.5332 43.4033 91.1393 41.7313 88.3524 41.194C88.0739 41.1349 87.8231 41.0902 87.5998 41.0597C87.3765 41.0302 87.1541 41.0149 86.9309 41.0149C82.5828 41.0149 77.9563 44.9857 73.0505 52.9254C72.1031 54.4782 71.629 54.806 71.629 53.9104C71.629 53.314 72.1031 51.5821 73.0505 48.7164C73.8306 46.3881 74.4996 44.657 75.0573 43.5224C75.2805 43.1051 75.3918 42.6869 75.3918 42.2687C75.3918 41.3731 74.7788 40.6567 73.5522 40.1194C72.716 39.7021 71.7402 39.4925 70.6256 39.4925C68.2843 39.4925 66.9189 40.3881 66.5284 42.1791C64.9672 48.2687 63.4764 54.0752 62.0549 59.597C60.6334 65.1197 59.2537 70.4185 57.9158 75.4926C57.6374 76.9254 58.8356 77.6418 61.5114 77.6418C64.1871 77.6418 65.7482 77.0454 66.1939 75.8507C66.9189 74.0597 68.7584 70.3289 71.7126 64.6567C75.0013 58.2089 77.4262 54.0304 78.9873 52.1194C80.9941 49.5528 82.5828 48.3582 83.7534 48.5373C84.8129 48.7164 85.0637 49.6424 84.506 51.3135C82.8897 55.8511 81.3285 60.1343 79.8234 64.1642C78.3183 68.194 76.9245 72.0305 75.6426 75.6717C75.1969 77.0454 76.5064 77.7314 79.5726 77.7314C82.3044 77.7314 83.8931 77.0454 84.3388 75.6717C84.6732 74.5379 85.3698 72.9555 86.4292 70.9254C87.4886 68.8961 88.9101 66.4182 90.6936 63.4925C92.1427 61.1051 93.4672 58.9854 94.6654 57.1343C95.8637 55.2842 96.9649 53.6722 97.9683 52.2985C99.4734 50.2693 100.616 49.2538 101.397 49.2538C102.233 49.2538 102.651 49.7015 102.651 50.597C102.651 51.2544 102.289 52.329 101.564 53.8209C101.062 54.8955 100.533 56.135 99.9751 57.5373C99.4174 58.9406 98.8321 60.5078 98.2191 62.2388C96.8253 66.2991 96.1287 69.1648 96.1287 70.8358C96.1287 73.6424 97.6614 75.6716 100.728 76.9254C102.456 77.5827 104.546 77.9105 106.999 77.9105C108.671 77.9105 110.4 77.7313 112.183 77.3731C115.305 76.8358 118.036 75.3135 120.378 72.806C120.656 72.5078 120.852 71.8514 120.963 70.8358Z" fill="white"/>
</svg>
