<svg width="130" height="96" viewBox="0 0 130 96" fill="none" xmlns="http://www.w3.org/2000/svg">
<path d="M94.3334 51.9838C94.3258 52.686 94.0415 53.3569 93.5423 53.8508C93.043 54.3447 92.369 54.6218 91.6667 54.6218C90.9644 54.6218 90.2905 54.3447 89.7912 53.8508C89.2919 53.3569 89.0076 52.686 89 51.9838V28C89.0076 27.2977 89.2919 26.6268 89.7912 26.1329C90.2905 25.639 90.9644 25.362 91.6667 25.362C92.369 25.362 93.043 25.639 93.5423 26.1329C94.0415 26.6268 94.3258 27.2977 94.3334 28V51.9838ZM93.4028 68.6753C92.9906 69.0281 83.1122 77.3175 65 77.3175C46.8881 77.3175 37.01 69.0278 36.5978 68.675C36.0609 68.2146 35.7289 67.5599 35.6747 66.8547C35.6205 66.1495 35.8485 65.4517 36.3087 64.9147C36.768 64.3785 37.4211 64.0464 38.1249 63.9912C38.8287 63.936 39.5256 64.1623 40.0628 64.6203C40.2194 64.7516 49.0406 71.9838 65.0003 71.9838C81.1603 71.9838 89.845 64.6994 89.9309 64.6259C91.0469 63.6675 92.7334 63.7963 93.6912 64.915C94.1516 65.4519 94.3799 66.1497 94.3258 66.8549C94.2717 67.5601 93.9397 68.2149 93.4028 68.6753ZM35.6666 28C35.6742 27.2977 35.9585 26.6268 36.4577 26.1329C36.957 25.639 37.631 25.362 38.3333 25.362C39.0356 25.362 39.7095 25.639 40.2088 26.1329C40.7081 26.6268 40.9924 27.2977 41 28V51.9838C40.9924 52.686 40.7081 53.3569 40.2088 53.8508C39.7095 54.3447 39.0356 54.6218 38.3333 54.6218C37.631 54.6218 36.957 54.3447 36.4577 53.8508C35.9585 53.3569 35.6742 52.686 35.6666 51.9838V28ZM49.0003 22.6666C49.011 21.9664 49.2967 21.2986 49.7956 20.8072C50.2945 20.3159 50.9666 20.0405 51.6669 20.0405C52.3671 20.0405 53.0392 20.3159 53.5382 20.8072C54.0371 21.2986 54.3227 21.9664 54.3334 22.6666V58.2919C54.3227 58.992 54.0371 59.6599 53.5382 60.1512C53.0392 60.6425 52.3671 60.9179 51.6669 60.9179C50.9666 60.9179 50.2945 60.6425 49.7956 60.1512C49.2967 59.6599 49.011 58.992 49.0003 58.2919V22.6666ZM62.3334 21.3172C62.3334 20.967 62.4023 20.6202 62.5363 20.2967C62.6703 19.9731 62.8667 19.6792 63.1144 19.4316C63.362 19.1839 63.656 18.9875 63.9795 18.8535C64.303 18.7195 64.6498 18.6506 65 18.6506C65.3502 18.6505 65.697 18.7195 66.0206 18.8534C66.3442 18.9874 66.6382 19.1838 66.8858 19.4314C67.1335 19.6791 67.3299 19.9731 67.464 20.2966C67.598 20.6202 67.6669 20.967 67.6669 21.3172V59.9838C67.6593 60.686 67.375 61.3569 66.8757 61.8508C66.3764 62.3447 65.7025 62.6218 65.0002 62.6218C64.2979 62.6218 63.6239 62.3447 63.1246 61.8508C62.6253 61.3569 62.341 60.686 62.3334 59.9838V21.3172ZM75.6669 22.6666C75.6776 21.9664 75.9633 21.2986 76.4622 20.8072C76.9611 20.3159 77.6332 20.0405 78.3334 20.0405C79.0337 20.0405 79.7058 20.3159 80.2047 20.8072C80.7036 21.2986 80.9893 21.9664 81 22.6666V58.2919C80.9893 58.992 80.7036 59.6599 80.2047 60.1512C79.7058 60.6425 79.0337 60.9179 78.3334 60.9179C77.6332 60.9179 76.9611 60.6425 76.4622 60.1512C75.9633 59.6599 75.6776 58.992 75.6669 58.2919V22.6666ZM95 8H35C29.4772 8 25 12.4772 25 18V78C25 83.5225 29.4772 88 35 88H95C100.523 88 105 83.5225 105 78V18C105 12.4772 100.523 8 95 8Z" fill="white"/>
</svg>
