<svg width="130" height="96" viewBox="0 0 130 96" fill="none" xmlns="http://www.w3.org/2000/svg">
<path d="M9.5877 68C12.5148 68 14.8877 65.6236 14.8877 62.6922C14.8877 59.7608 12.5148 57.3844 9.5877 57.3844C6.66057 57.3844 4.28767 59.7608 4.28767 62.6922C4.28767 65.6236 6.66057 68 9.5877 68Z" fill="#FFFDF6"/>
<path d="M28.7201 66.5044C30.7904 66.5044 32.4688 64.8236 32.4688 62.7502C32.4688 60.6768 30.7904 58.996 28.7201 58.996C26.6497 58.996 24.9713 60.6768 24.9713 62.7502C24.9713 64.8236 26.6497 66.5044 28.7201 66.5044Z" fill="#FFFDF6"/>
<path d="M44.491 64.4546C45.431 64.4546 46.1929 63.6915 46.1929 62.7502C46.1929 61.8089 45.431 61.0458 44.491 61.0458C43.5511 61.0458 42.7891 61.8089 42.7891 62.7502C42.7891 63.6915 43.5511 64.4546 44.491 64.4546Z" fill="#FFFDF6"/>
<path d="M27.7103 51.5714C26.7784 51.5714 26.0882 50.8458 26.0882 49.9469V43.0343C26.0882 40.6496 24.9494 38.8177 22.3955 38.8177C19.8415 38.8177 18.2885 40.7878 18.2885 43.0691V49.9469C18.2885 50.8458 17.6672 51.5714 16.6664 51.5714C15.7 51.5714 15.0443 50.8458 15.0443 49.9469V43.0343C15.0443 40.6496 13.8019 38.8177 11.2477 38.8177C8.62484 38.8177 7.24442 40.7878 7.24442 43.0691V49.9469C7.24442 50.8458 6.58877 51.5714 5.62233 51.5714C4.69045 51.5714 4 50.8458 4 49.9469V37.6771C4 36.7095 4.62133 36.0182 5.62209 36.0182C6.72652 36.0182 7.24418 36.7784 7.24418 37.6771V38.7831C8.17606 36.9512 10.0741 35.8798 12.1105 35.8798C14.5953 35.8798 16.4591 37.124 17.3909 38.9559C18.7368 36.8823 20.704 35.8798 23.1543 35.8798C27.3304 35.8798 29.3321 38.7487 29.3321 42.7925V49.9464C29.3321 50.8455 28.6767 51.5714 27.7103 51.5714ZM33.8881 29.866C34.9234 29.866 35.7862 30.73 35.7862 31.7669C35.7862 32.8037 34.9234 33.6677 33.8881 33.6677C32.8528 33.6677 31.9898 32.8037 31.9898 31.7669C31.9898 30.73 32.8525 29.866 33.8881 29.866ZM33.8881 51.5716C32.9216 51.5716 32.266 50.846 32.266 49.9469V37.6425C32.266 36.7438 32.9562 36.018 33.8881 36.018C34.82 36.018 35.5102 36.7438 35.5102 37.6425V49.9469C35.5097 50.8458 34.8543 51.5716 33.8881 51.5716ZM44.6552 41.6172L48.7622 36.502C49.0382 36.1908 49.3835 36.018 49.8323 36.018C50.7294 36.018 51.3161 36.6056 51.3161 37.4353C51.3161 37.7463 51.2125 38.0573 50.9365 38.3685L46.4153 43.7603L51.0056 49.1862C51.247 49.4629 51.385 49.7393 51.385 50.1541C51.385 50.9496 50.6948 51.5711 49.9355 51.5711C49.4524 51.5711 49.0727 51.3983 48.7967 51.0522L44.6552 45.903L40.5137 51.0522C40.2375 51.3976 39.8581 51.5711 39.3747 51.5711C38.6154 51.5711 37.9252 50.9487 37.9252 50.1541C37.9252 49.7393 38.0634 49.4629 38.3049 49.1862L42.8951 43.7601L38.374 38.3685C38.0977 38.057 37.9943 37.7463 37.9943 37.4353C37.9943 36.6059 38.5811 36.0182 39.4784 36.0182C39.9269 36.0182 40.2721 36.1913 40.5483 36.5023L44.6552 41.6172ZM62.36 51.7098C60.0477 51.7098 58.1496 50.5007 57.0452 48.7378V56.4106C57.0452 57.3095 56.3895 58.0346 55.4231 58.0346C54.4566 58.0346 53.801 57.3093 53.801 56.4106V37.6425C53.801 36.7438 54.3532 36.018 55.354 36.018C56.355 36.018 56.9417 36.7784 56.9417 37.6771V38.8528C57.9771 37.0555 60.0477 35.8803 62.36 35.8803C66.3289 35.8803 69.5731 39.1979 69.5731 43.7952C69.5731 48.5645 66.3289 51.7098 62.36 51.7098ZM61.7046 38.5759C58.9089 38.5759 57.0454 41.0296 57.0454 43.7949C57.0454 46.5605 58.9092 49.0139 61.7048 49.0139C64.5002 49.0139 66.3289 46.9059 66.3289 43.7949C66.3289 40.6844 64.4997 38.5759 61.7046 38.5759ZM86.6913 49.9469C86.6913 50.8458 86.0703 51.5714 85.0693 51.5714C84.1028 51.5714 83.4822 50.8458 83.4822 49.9469V49.1865C82.5158 50.6381 80.6866 51.7098 78.4439 51.7098C73.6112 51.7098 70.8163 48.1847 70.8163 43.7947C70.8163 39.4746 73.9229 35.88 78.7887 35.88C83.7587 35.88 86.6923 39.1287 86.6923 43.7947V49.9469H86.6913ZM78.7535 38.6449C75.9924 38.6449 74.0595 40.9611 74.0595 43.7947C74.0595 46.7672 75.6816 48.9447 78.7535 48.9447C81.6177 48.9447 83.4469 46.4906 83.4469 43.7947C83.4469 40.615 81.5145 38.6449 78.7535 38.6449ZM96.4587 35.8803C100.634 35.8803 103.706 39.0602 103.706 43.1039V49.9472C103.706 50.1606 103.664 50.372 103.583 50.5692C103.501 50.7664 103.382 50.9456 103.231 51.0965C103.081 51.2474 102.902 51.3671 102.705 51.4486C102.508 51.5301 102.297 51.5719 102.084 51.5716C101.87 51.5719 101.659 51.5301 101.462 51.4485C101.266 51.367 101.087 51.2474 100.936 51.0965C100.785 50.9456 100.666 50.7664 100.584 50.5691C100.503 50.3719 100.461 50.1606 100.461 49.9472V42.7235C100.461 40.546 98.736 38.8526 96.4587 38.8526C94.1807 38.8526 92.4893 40.5455 92.4893 42.7235V49.9472C92.4896 50.1606 92.4478 50.372 92.3664 50.5692C92.285 50.7664 92.1655 50.9456 92.0149 51.0965C91.8642 51.2474 91.6852 51.3671 91.4883 51.4486C91.2914 51.5301 91.0803 51.5719 90.8672 51.5716C90.6541 51.5719 90.443 51.5301 90.2461 51.4485C90.0492 51.367 89.8702 51.2474 89.7196 51.0965C89.5689 50.9456 89.4494 50.7664 89.368 50.5691C89.2866 50.3719 89.2448 50.1606 89.2451 49.9472V43.1037C89.2451 39.06 92.2822 35.8803 96.4587 35.8803ZM120.582 43.8293C120.582 44.3823 120.271 44.9353 119.34 44.9353H109.021C109.193 47.3202 110.815 49.117 113.68 49.117C115.475 49.117 116.544 48.4948 117.683 47.4236C117.96 47.1472 118.339 46.9047 118.753 46.9047C119.478 46.9047 120.099 47.4236 120.099 48.2528C120.099 48.5979 119.926 48.9091 119.685 49.1855C118.374 50.7064 116.026 51.7091 113.542 51.7091C108.399 51.7091 105.672 48.1141 105.672 43.7937C105.672 39.266 108.951 35.8791 113.403 35.8791C117.753 35.8803 120.582 39.4051 120.582 43.8293ZM113.404 38.4726C111.022 38.4726 109.4 40.1655 109.09 42.3091H117.579C117.304 40.2348 115.75 38.4726 113.404 38.4726H113.404ZM124.378 51.5714C123.412 51.5714 122.756 50.8458 122.756 49.9469V29.6245C122.756 28.7254 123.412 28 124.378 28C125.345 28 126 28.7254 126 29.6245V49.9469C126 50.8458 125.345 51.5714 124.378 51.5714Z" fill="#FFFDF6"/>
</svg>
