<svg width="130" height="96" viewBox="0 0 130 96" fill="none" xmlns="http://www.w3.org/2000/svg">
<path fill-rule="evenodd" clip-rule="evenodd" d="M110 42C104.409 42 99.71 38.1757 98.378 33H84.624C81.691 33 79.188 35.1205 78.706 38.0136L78.2125 40.9728C77.7445 43.7824 76.323 46.2277 74.313 48C76.323 49.7723 77.7445 52.2176 78.2125 55.0272L78.706 57.9864C79.188 60.8795 81.691 63 84.624 63H86.378C87.71 57.8243 92.4085 54 98 54C104.628 54 110 59.3726 110 66C110 72.6275 104.628 78 98 78C92.4085 78 87.71 74.1755 86.378 69H84.624C78.758 69 73.752 64.7591 72.7875 58.9728L72.294 56.0136C71.812 53.1205 69.309 51 66.376 51H61.622C60.29 56.1757 55.5915 60 50 60C44.4085 60 39.7102 56.1757 38.378 51H31.622C30.2898 56.1757 25.5915 60 20 60C13.3726 60 8 54.6274 8 48C8 41.3726 13.3726 36 20 36C25.5915 36 30.2898 39.8243 31.622 45H38.378C39.7102 39.8243 44.4085 36 50 36C55.5915 36 60.29 39.8243 61.622 45H66.376C69.309 45 71.812 42.8795 72.294 39.9864L72.7875 37.0272C73.752 31.241 78.758 27 84.624 27H98.378C99.71 21.8243 104.409 18 110 18C116.628 18 122 23.3726 122 30C122 36.6274 116.628 42 110 42ZM110 36C113.313 36 116 33.3137 116 30C116 26.6863 113.313 24 110 24C106.687 24 104 26.6863 104 30C104 33.3137 106.687 36 110 36ZM20 54C23.3137 54 26 51.3137 26 48C26 44.6863 23.3137 42 20 42C16.6863 42 14 44.6863 14 48C14 51.3137 16.6863 54 20 54ZM56 48C56 51.3137 53.3137 54 50 54C46.6863 54 44 51.3137 44 48C44 44.6863 46.6863 42 50 42C53.3137 42 56 44.6863 56 48ZM104 66C104 69.3135 101.313 72 98 72C94.6865 72 92 69.3135 92 66C92 62.6863 94.6865 60 98 60C101.313 60 104 62.6863 104 66Z" fill="white"/>
</svg>
