<svg width="130" height="96" viewBox="0 0 130 96" fill="none" xmlns="http://www.w3.org/2000/svg">
<path fill-rule="evenodd" clip-rule="evenodd" d="M122 48.8011C122 40.5981 118.073 34.1255 110.568 34.1255C103.032 34.1255 98.4717 40.5981 98.4717 48.737C98.4717 58.3818 103.855 63.2523 111.582 63.2523C115.35 63.2523 118.2 62.3872 120.353 61.1696V54.761C118.2 55.8505 115.73 56.5234 112.595 56.5234C109.523 56.5234 106.8 55.4339 106.452 51.6529H121.937C121.937 51.2363 122 49.5701 122 48.8011ZM106.357 45.757C106.357 42.1362 108.542 40.6302 110.537 40.6302C112.468 40.6302 114.527 42.1362 114.527 45.757H106.357Z" fill="white"/>
<path fill-rule="evenodd" clip-rule="evenodd" d="M86.2483 34.1255C83.145 34.1255 81.15 35.5995 80.0417 36.6248L79.63 34.6382H72.6633V72L80.58 70.3017L80.6117 61.2336C81.7517 62.0668 83.43 63.2523 86.2167 63.2523C91.885 63.2523 97.0467 58.6382 97.0467 48.4806C97.015 39.1883 91.79 34.1255 86.2483 34.1255ZM84.3483 56.2029C82.48 56.2029 81.3717 55.53 80.6117 54.6969L80.58 42.8091C81.4033 41.8798 82.5433 41.239 84.3483 41.239C87.23 41.239 89.225 44.5073 89.225 48.7049C89.225 52.9987 87.2617 56.2029 84.3483 56.2029Z" fill="white"/>
<path fill-rule="evenodd" clip-rule="evenodd" d="M61.77 32.235L69.7183 30.5047V24L61.77 25.6983V32.235Z" fill="white"/>
<path d="M69.7183 34.6702H61.77V62.7076H69.7183V34.6702Z" fill="white"/>
<path fill-rule="evenodd" clip-rule="evenodd" d="M53.2517 37.0414L52.745 34.6702H45.905V62.7076H53.8217V43.7063C55.69 41.239 58.8567 41.6876 59.8383 42.0401V34.6702C58.825 34.2857 55.12 33.5808 53.2517 37.0414Z" fill="white"/>
<path fill-rule="evenodd" clip-rule="evenodd" d="M37.4183 27.717L29.6917 29.3832L29.66 55.0494C29.66 59.7917 33.175 63.2844 37.8617 63.2844C40.4583 63.2844 42.3583 62.8037 43.4033 62.227V55.7223C42.39 56.1389 37.3867 57.6128 37.3867 52.8705V41.4953H43.4033V34.6702H37.3867L37.4183 27.717Z" fill="white"/>
<path fill-rule="evenodd" clip-rule="evenodd" d="M16.0117 42.8091C16.0117 41.5594 17.025 41.0788 18.7033 41.0788C21.11 41.0788 24.15 41.8158 26.5567 43.1295V35.5995C23.9283 34.5421 21.3317 34.1255 18.7033 34.1255C12.275 34.1255 8 37.522 8 43.1936C8 52.0374 20.0333 50.6275 20.0333 54.4406C20.0333 55.9146 18.7667 56.3952 16.9933 56.3952C14.365 56.3952 11.0083 55.3057 8.34833 53.8318V61.4579C11.2933 62.7397 14.27 63.2844 16.9933 63.2844C23.58 63.2844 28.1083 59.984 28.1083 54.2483C28.0767 44.6996 16.0117 46.3979 16.0117 42.8091Z" fill="white"/>
</svg>
