<svg width="130" height="96" viewBox="0 0 130 96" fill="none" xmlns="http://www.w3.org/2000/svg">
<path fill-rule="evenodd" clip-rule="evenodd" d="M106 48.2387C106 71.5664 87.6437 90.4773 65 90.4773C42.3563 90.4773 24 71.5664 24 48.2387C24 24.9109 42.3563 6 65 6C87.6437 6 106 24.9109 106 48.2387ZM66.2387 31.7644C61.5317 31.7644 57.4441 35.2327 57.4441 40.3112C57.4441 45.3898 61.5317 48.8581 66.2387 48.9819C70.9456 48.9819 75.0332 45.3898 75.0332 40.3112C75.0332 35.3566 70.9456 31.7644 66.2387 31.7644ZM66.1148 35.6043C68.8399 35.6043 70.4502 37.71 70.4502 40.3112C70.4502 42.9124 68.9638 45.0182 66.1148 45.0182C63.3897 45.0182 61.7795 42.9124 61.7795 40.3112C61.7795 37.71 63.3897 35.6043 66.1148 35.6043ZM46.9154 31.8883H42.0846L48.278 42.9124V48.6103H52.7372V42.7886L58.8067 31.8883H54.2236L50.6314 38.701L46.9154 31.8883ZM79.1209 35.6043H74.7855V31.8883H87.9154V35.6043H83.5801V48.6103H79.1209V35.6043ZM43.4471 66.9427H47.7825V63.3505H49.6405C54.0997 63.3505 56.577 60.5016 56.577 56.7856C56.577 53.0695 54.0997 50.2206 49.6405 50.2206H43.4471V66.9427ZM52.1178 56.7856C52.1178 58.3958 51.3746 59.5106 49.3928 59.5106H47.7825V53.9366H49.3928C51.3746 53.9366 52.1178 55.1753 52.1178 56.7856ZM57.3202 58.6436C57.3202 53.565 61.4079 50.0967 66.1148 50.0967C70.8218 50.0967 74.9094 53.6889 74.9094 58.6436C74.9094 63.7221 70.8218 67.3143 66.1148 67.3143C61.4079 67.1904 57.3202 63.7221 57.3202 58.6436ZM70.4502 58.6436C70.4502 56.0424 68.8399 53.9366 66.1148 53.9366C63.3897 53.9366 61.7795 56.0424 61.7795 58.6436C61.7795 61.2448 63.3897 63.3505 66.1148 63.3505C68.8399 63.3505 70.4502 61.2448 70.4502 58.6436ZM77.2629 62.3596C76.0242 62.3596 74.9094 63.3505 74.9094 64.8369C74.9094 66.1995 76.0242 67.1904 77.2629 67.3143C78.5015 67.3143 79.6163 66.3233 79.6163 64.8369C79.6163 63.3505 78.5015 62.3596 77.2629 62.3596Z" fill="white"/>
</svg>
