<svg width="130" height="96" viewBox="0 0 130 96" fill="none" xmlns="http://www.w3.org/2000/svg">
<path d="M62.5088 19.1147V55.6741H32.6465L62.5088 19.1147ZM62.5088 6C62.5088 14.3546 55.8337 21.1224 47.5936 21.1224C39.3535 21.1224 32.6465 14.3546 32.6465 6H62.5088ZM67.4273 55.6741C67.4273 47.3196 74.1024 40.5517 82.3425 40.5517C90.5826 40.5517 97.2577 47.3196 97.2577 55.6741H67.4273ZM67.4273 42.5594V6H97.2897L67.4273 42.5594ZM84.1311 86.9229C85.6641 86.9552 87.1652 86.3724 88.283 85.3038L90.3271 87.5381C88.9857 88.9629 87.1013 89.9992 84.163 89.9992C79.1487 89.9992 75.9229 86.6314 75.9229 82.0655C75.8271 77.7587 79.2126 74.2291 83.4284 74.1319H83.6839C88.6663 74.1319 91.4769 77.953 91.2214 83.2961H79.5C79.9152 85.5304 81.4482 86.9552 84.1311 86.9229ZM87.7081 80.8026C87.3888 78.7302 86.1751 77.2082 83.7478 77.2082C81.4802 77.2082 79.9152 78.5035 79.5 80.8026H87.7081ZM7 86.761L16.0385 77.4349H7.22357V74.5205H20.2225V77.4997L11.1839 86.8257H20.3502V89.7401H7V86.761ZM30.5066 86.9229C32.0396 86.9552 33.5407 86.3724 34.6267 85.3038L36.6707 87.5381C35.3293 88.9629 33.4449 89.9992 30.5066 89.9992C25.4923 89.9992 22.2665 86.6314 22.2665 82.0655C22.1707 77.7587 25.5562 74.2291 29.772 74.1319H30.0275C35.0099 74.1319 37.8205 77.953 37.565 83.2961H25.8756C26.2907 85.5304 27.8238 86.9552 30.5066 86.9229ZM34.0837 80.8026C33.7643 78.7302 32.5507 77.2082 30.1233 77.2082C27.8557 77.2082 26.2907 78.5035 25.8756 80.8026H34.0837ZM57.1432 82.0979C57.1432 77.2406 60.7203 74.1967 64.6806 74.1967C66.5969 74.1643 68.4174 75.0063 69.6949 76.4634V67.4936H72.8888V89.7077H69.6949V87.6029C68.4493 89.1248 66.5969 90.0315 64.6487 89.9992C60.8161 89.9992 57.1432 86.9229 57.1432 82.0979ZM69.8546 82.0655C69.7908 79.4102 67.587 77.3054 64.9681 77.3701C62.3491 77.4349 60.2731 79.6693 60.337 82.3246C60.4009 84.9476 62.5088 87.02 65.0958 87.02C67.8425 87.02 69.8546 84.818 69.8546 82.0655ZM93.3293 86.4695L96.2357 84.9476C97.0022 86.3724 98.5033 87.2143 100.1 87.1819C101.921 87.1819 102.847 86.2428 102.847 85.1742C102.847 83.9437 101.09 83.6847 99.206 83.2961C96.6509 82.7456 94 81.9036 94 78.7626C94 76.3663 96.2676 74.1319 99.8128 74.1643C102.623 74.1643 104.699 75.2977 105.881 77.1111L103.198 78.6007C102.432 77.4673 101.154 76.8196 99.8128 76.852C98.0881 76.852 97.2258 77.694 97.2258 78.6654C97.2258 79.7664 98.5991 80.0579 100.771 80.5436C103.23 81.0941 106.041 81.9036 106.041 85.0771C106.041 87.1819 104.22 89.9992 99.9405 89.9668C96.8106 89.9992 94.6068 88.7363 93.3293 86.4695ZM114.696 82.9399L112.173 85.7571V89.7077H108.979V67.4936H112.173V82.0332L118.944 74.4881H122.84L116.964 80.9969L123 89.7077H119.391L114.696 82.9399ZM47.4978 74.1643C43.6971 74.1643 40.5033 76.6577 40.5033 80.8026V89.7077H43.761V81.2236C43.761 78.7302 45.1663 77.2406 47.5936 77.2406C50.0209 77.2406 51.2026 78.7302 51.2026 81.2236V89.7077H54.4284V80.8026C54.4604 76.6577 51.2665 74.1643 47.4978 74.1643Z" fill="white"/>
</svg>
