<svg width="130" height="96" viewBox="0 0 130 96" fill="none" xmlns="http://www.w3.org/2000/svg">
<path fill-rule="evenodd" clip-rule="evenodd" d="M103.331 43.0966C103.797 43.889 103.95 44.7905 104 45.804L104.066 47.1548V56.6009L104.134 57.9531C104.269 60.1615 105.923 61.7945 108.183 61.9334L109.549 62V47.1548L109.616 45.804C109.672 44.8018 109.823 43.8833 110.297 43.0853C110.78 42.2667 111.472 41.5876 112.306 41.1161C113.139 40.6446 114.083 40.3973 115.045 40.399C116.006 40.4007 116.949 40.6514 117.781 41.1259C118.612 41.6004 119.303 42.282 119.782 43.1023C120.248 43.8946 120.394 44.8132 120.45 45.804L120.518 47.1506V56.6009L120.585 57.9531C120.726 60.1729 122.367 61.8058 124.634 61.9334L126 62V45.804C126 42.9401 124.845 40.1934 122.789 38.1679C120.733 36.1424 117.945 35.004 115.037 35.0028C113.48 35.0012 111.941 35.3267 110.523 35.9576C109.104 36.5885 107.839 37.5103 106.811 38.6613C105.783 37.5108 104.517 36.5892 103.099 35.9581C101.68 35.327 100.142 35.0009 98.5852 35.0014C96.3082 35.0014 94.1953 35.6818 92.445 36.8569C91.3771 35.6832 88.9878 35.0014 87.6161 35.0014V62L88.9878 61.9334C91.2821 61.7845 92.9402 60.1956 93.0294 57.9531L93.1028 56.6009V47.1548L93.1705 45.804C93.228 44.7848 93.372 43.889 93.8397 43.0909C94.3227 42.2729 95.0151 41.5939 95.8478 41.1219C96.6805 40.6498 97.6244 40.4011 98.5852 40.4006C99.5468 40.4008 100.491 40.65 101.324 41.1232C102.157 41.5964 102.849 42.2769 103.331 43.0966ZM9.48239 61.9348L10.8541 62H31.4148L31.3472 60.6534C31.1615 58.4336 29.5653 56.8121 27.3041 56.6675L25.9324 56.6009H13.5974L30.0431 40.3992L29.9755 39.054C29.869 36.8115 28.2051 35.1914 25.9324 35.068L24.5607 35.0071L4 35.0014L4.06765 36.3523C4.24756 38.5508 5.8668 40.2064 8.10927 40.3339L9.48239 40.4006H21.8174L5.37168 56.6023L5.43932 57.9531C5.57462 60.1785 7.20538 61.7902 9.48239 61.9334V61.9348ZM82.2345 38.9533C83.5076 40.2068 84.5175 41.695 85.2065 43.3329C85.8955 44.9709 86.2501 46.7264 86.2501 48.4993C86.2501 50.2722 85.8955 52.0277 85.2065 53.6656C84.5175 55.3036 83.5076 56.7918 82.2345 58.0453C79.6624 60.5762 76.1752 61.9979 72.5392 61.9979C68.9032 61.9979 65.416 60.5762 62.8439 58.0453C57.491 52.7737 57.491 44.2249 62.8439 38.9533C64.1158 37.7003 65.6259 36.7062 67.288 36.0279C68.95 35.3495 70.7314 35.0003 72.5305 35C74.3326 34.9988 76.1172 35.3474 77.7823 36.026C79.4474 36.7046 80.9603 37.6998 82.2345 38.9547V38.9533ZM78.3555 42.7763C79.8973 44.2958 80.7634 46.3561 80.7634 48.5043C80.7634 50.6524 79.8973 52.7127 78.3555 54.2323C76.8125 55.7507 74.7205 56.6036 72.5392 56.6036C70.3579 56.6036 68.2659 55.7507 66.7229 54.2323C65.1811 52.7127 64.315 50.6524 64.315 48.5043C64.315 46.3561 65.1811 44.2958 66.7229 42.7763C68.2659 41.2578 70.3579 40.4049 72.5392 40.4049C74.7205 40.4049 76.8125 41.2578 78.3555 42.7763ZM43.7613 35C45.5605 35.0005 47.342 35.35 49.0041 36.0285C50.6661 36.7071 52.1762 37.7014 53.448 38.9547C58.8023 44.2249 58.8023 52.7751 53.448 58.0453C50.8759 60.5762 47.3887 61.9979 43.7527 61.9979C40.1167 61.9979 36.6295 60.5762 34.0574 58.0453C28.7046 52.7737 28.7046 44.2249 34.0574 38.9533C35.3293 37.7003 36.8394 36.7062 38.5015 36.0279C40.1635 35.3495 41.9449 35.0003 43.7441 35H43.7613ZM49.569 42.7734C51.1113 44.293 51.9776 46.3536 51.9776 48.5021C51.9776 50.6506 51.1113 52.7112 49.569 54.2308C48.026 55.7492 45.934 56.6022 43.7527 56.6022C41.5714 56.6022 39.4794 55.7492 37.9364 54.2308C36.3946 52.7113 35.5285 50.651 35.5285 48.5028C35.5285 46.3547 36.3946 44.2944 37.9364 42.7748C39.4794 41.2564 41.5714 40.4035 43.7527 40.4035C45.934 40.4035 48.026 41.2564 49.569 42.7748V42.7734Z" fill="white"/>
</svg>
