<svg width="130" height="40" viewBox="0 0 130 40" fill="none" xmlns="http://www.w3.org/2000/svg">
<g clip-path="url(#clip0_11277_12048)">
<path d="M1 16.2836H12.7333H19.8587V9.29413L1 16.2836Z" fill="#6358DE"/>
<path d="M19.8586 9.29412V34L28.776 6L19.8586 9.29412Z" fill="#6358DE"/>
<path d="M19.8587 16.2836H12.7333L19.8587 33.9789V16.2836Z" fill="#6358DE"/>
<path d="M1 16.2836L14.568 20.8235L12.7333 16.2836H1Z" fill="#6358DE"/>
<path d="M44.2214 27.4751C44.1147 27.5807 43.944 27.7074 43.7094 27.8552C43.4747 28.003 43.1547 28.1719 42.7707 28.3197C42.3867 28.4676 41.9174 28.6154 41.3414 28.721C40.7867 28.8265 40.1467 28.8899 39.4214 28.8899C38.0347 28.8899 36.8187 28.6576 35.7947 28.2353C34.7707 27.7918 33.9387 27.1795 33.2774 26.3771C32.616 25.5747 32.1254 24.6455 31.8267 23.5686C31.5067 22.4917 31.3574 21.2881 31.3574 20C31.3574 18.7119 31.528 17.5083 31.8694 16.4102C32.2107 15.3122 32.7014 14.362 33.384 13.5596C34.0454 12.7572 34.8987 12.1237 35.9014 11.6802C36.904 11.2368 38.0987 11.0045 39.464 11.0045C40.1254 11.0045 40.744 11.0679 41.2774 11.1734C41.8107 11.3001 42.3014 11.4268 42.7067 11.5958C43.112 11.7647 43.4534 11.9336 43.7094 12.1026C43.9867 12.2715 44.1787 12.4404 44.3067 12.546C44.456 12.6727 44.6054 12.8416 44.712 13.0317C44.8187 13.2217 44.8827 13.4329 44.8827 13.644C44.8827 13.9819 44.7547 14.3198 44.4987 14.6576C44.2427 14.9955 43.9654 15.3122 43.6454 15.6078C43.432 15.3967 43.1974 15.1855 42.9414 14.9744C42.6854 14.7632 42.3867 14.5731 42.0667 14.4042C41.7467 14.2353 41.384 14.1086 40.9787 14.003C40.5734 13.8974 40.1254 13.8341 39.6134 13.8341C38.7387 13.8341 37.992 14.003 37.3947 14.362C36.7974 14.721 36.328 15.1644 35.9654 15.7345C35.6027 16.3047 35.3467 16.9382 35.1974 17.6561C35.048 18.374 34.9627 19.1131 34.9627 19.8733C34.9627 20.6757 35.048 21.4359 35.1974 22.175C35.3467 22.914 35.624 23.5475 36.008 24.1176C36.392 24.6878 36.8827 25.1312 37.5014 25.4691C38.12 25.8069 38.8667 25.9759 39.784 25.9759C40.2747 25.9759 40.7014 25.9125 41.1067 25.8069C41.512 25.6802 41.8747 25.5324 42.1734 25.3635C42.4934 25.1946 42.7494 25.0045 42.984 24.8356C43.2187 24.6455 43.4107 24.4766 43.56 24.3499C43.6667 24.4766 43.7734 24.6244 43.9227 24.7934C44.072 24.9623 44.2 25.1523 44.3067 25.3213C44.4347 25.5113 44.52 25.7013 44.6267 25.8914C44.712 26.0814 44.7547 26.2504 44.7547 26.3982C44.7547 26.6305 44.712 26.7994 44.6267 26.9683C44.5414 27.1161 44.392 27.2851 44.2214 27.4751ZM57.5334 25.5113C57.5334 26.8627 57.7254 27.8552 58.1307 28.4676C57.8107 28.5943 57.5334 28.6787 57.256 28.721C56.9787 28.7632 56.7014 28.8054 56.4027 28.8054C55.784 28.8054 55.3147 28.6787 54.9947 28.4464C54.6747 28.2142 54.4614 27.8552 54.376 27.4118C53.992 27.813 53.5014 28.1508 52.8614 28.4253C52.2427 28.6998 51.4747 28.8265 50.5787 28.8265C50.1094 28.8265 49.64 28.7632 49.1707 28.6365C48.7014 28.5098 48.2747 28.2986 47.8907 28.003C47.5067 27.7074 47.208 27.3273 46.952 26.8416C46.7174 26.3559 46.5894 25.7647 46.5894 25.0679C46.5894 24.2021 46.8027 23.4842 47.2294 22.9351C47.656 22.3861 48.1894 21.9638 48.8294 21.647C49.4694 21.3303 50.1734 21.1191 50.8987 20.9924C51.6454 20.8658 52.328 20.8024 52.9467 20.7602C53.16 20.7391 53.352 20.7391 53.5654 20.7391H54.12V20.2745C54.12 19.6199 53.9494 19.1553 53.5867 18.8597C53.224 18.5852 52.648 18.4374 51.8587 18.4374C51.112 18.4374 50.4507 18.5641 49.8747 18.7964C49.2987 19.0286 48.7227 19.3032 48.168 19.6199C47.9334 19.3243 47.72 19.0075 47.592 18.6486C47.4427 18.2896 47.3787 18.0362 47.3787 17.8673C47.3787 17.635 47.5067 17.4027 47.784 17.1704C48.0614 16.9382 48.424 16.7481 48.8934 16.5581C49.3627 16.368 49.896 16.2413 50.5147 16.1146C51.112 16.009 51.752 15.9457 52.4347 15.9457C53.3734 15.9457 54.1627 16.0302 54.8027 16.2202C55.4427 16.4102 55.976 16.7059 56.3814 17.086C56.7867 17.4872 57.0854 17.9728 57.256 18.5641C57.4267 19.1553 57.512 19.8522 57.512 20.6335L57.5334 25.5113ZM54.2054 22.5339H53.8427C53.7147 22.5339 53.608 22.5339 53.48 22.555C53.0534 22.5973 52.6267 22.6395 52.2 22.7029C51.7734 22.7662 51.3894 22.8929 51.0694 23.0618C50.7494 23.2308 50.472 23.463 50.2587 23.7375C50.0454 24.0121 49.9387 24.371 49.9387 24.7934C49.9387 25.279 50.0667 25.6802 50.344 26.0181C50.6214 26.3559 51.0907 26.5249 51.752 26.5249C52.072 26.5249 52.392 26.4826 52.6907 26.3982C52.9894 26.3137 53.2454 26.2081 53.48 26.0603C53.7147 25.9125 53.8854 25.7647 54.0134 25.6169C54.1414 25.448 54.2054 25.3001 54.2054 25.1734V22.5339ZM63.9974 17.4661C64.2747 17.1493 64.7014 16.8115 65.2987 16.4736C65.896 16.1357 66.6214 15.9668 67.5174 15.9668C68.1574 15.9668 68.776 16.0724 69.352 16.2836C69.928 16.4947 70.44 16.8537 70.888 17.3182C71.336 17.8039 71.6987 18.4374 71.9547 19.2187C72.232 20 72.36 20.9713 72.36 22.1327C72.36 23.463 72.2107 24.5822 71.8907 25.448C71.5707 26.3137 71.1867 27.0105 70.696 27.4962C70.2054 28.003 69.6507 28.362 69.0534 28.5731C68.456 28.7843 67.8374 28.8899 67.24 28.8899C66.7494 28.8899 66.3014 28.8265 65.9387 28.721C65.576 28.6154 65.256 28.4887 65 28.3409C64.744 28.2142 64.552 28.0664 64.4027 27.9397C64.2747 27.813 64.168 27.7074 64.1467 27.6651V34H60.6054V16.3469C60.6907 16.3258 60.7974 16.3047 60.9254 16.3047C61.032 16.2836 61.16 16.2836 61.288 16.2624C61.4374 16.2624 61.5867 16.2413 61.7787 16.2413C62.3547 16.2413 62.8454 16.3258 63.2507 16.5158C63.6347 16.7059 63.8907 17.0226 63.9974 17.4661ZM68.6907 22.2172C68.6907 21.7104 68.648 21.2247 68.5627 20.7813C68.4774 20.3378 68.328 19.9578 68.136 19.6199C67.944 19.3032 67.6667 19.0498 67.3254 18.8597C66.984 18.6697 66.5787 18.5852 66.088 18.5852C65.3627 18.5852 64.8507 18.733 64.5734 18.9864C64.296 19.2609 64.1467 19.5566 64.1467 19.8944V25.3635C64.2747 25.5113 64.5307 25.6591 64.8934 25.8492C65.256 26.0392 65.6614 26.1237 66.1307 26.1237C67.0054 26.1237 67.6454 25.7858 68.072 25.089C68.4774 24.4133 68.6907 23.463 68.6907 22.2172ZM75.0907 26.6516C74.9627 26.3137 74.8987 25.9547 74.856 25.5747C74.8134 25.1946 74.8134 24.8145 74.8134 24.4344V12.5038C74.9414 12.4826 75.0694 12.4615 75.1974 12.4615C75.3254 12.4404 75.4534 12.4404 75.5814 12.4193C75.7094 12.4193 75.8587 12.3982 75.9867 12.3982C76.264 12.3982 76.5414 12.4193 76.8187 12.4826C77.096 12.5249 77.352 12.6305 77.5654 12.7994C77.8 12.9472 77.9707 13.1584 78.12 13.4329C78.248 13.7074 78.3334 14.0452 78.3334 14.4676V16.3047H81.9814V18.902H78.3547V24.3921C78.3547 25.5958 78.8454 26.187 79.8267 26.187C80.0614 26.187 80.296 26.1448 80.5094 26.0814C80.7227 25.997 80.9147 25.9125 81.0854 25.828C81.256 25.7436 81.4054 25.638 81.5334 25.5324C81.6614 25.4268 81.7467 25.3424 81.8107 25.3001C82.0667 25.6802 82.28 25.997 82.408 26.2715C82.536 26.546 82.6214 26.7994 82.6214 27.0528C82.6214 27.2851 82.536 27.4962 82.344 27.7074C82.152 27.9185 81.896 28.1297 81.576 28.2986C81.256 28.4887 80.8507 28.6365 80.3814 28.7421C79.912 28.8477 79.4 28.911 78.8454 28.911C77.7787 28.911 76.9254 28.6998 76.328 28.2986C75.7734 27.8552 75.3467 27.3273 75.0907 26.6516ZM90.9414 26.3137C91.368 26.3137 91.752 26.2715 92.0934 26.1659C92.4134 26.0814 92.712 25.9547 92.9894 25.828C93.2454 25.7013 93.48 25.5324 93.672 25.3846C93.864 25.2157 94.0347 25.0679 94.184 24.9412C94.3974 25.1946 94.6107 25.5324 94.8454 25.9336C95.08 26.3348 95.1867 26.6727 95.1867 26.9261C95.1867 27.3062 94.9734 27.644 94.5467 27.9608C94.184 28.2353 93.672 28.4676 92.9894 28.6787C92.328 28.8688 91.5387 28.9743 90.6427 28.9743C89.832 28.9743 89.0214 28.8688 88.232 28.6576C87.4427 28.4464 86.7387 28.0875 86.12 27.5807C85.5014 27.0739 85.0107 26.3771 84.6267 25.5113C84.2427 24.6455 84.0507 23.5475 84.0507 22.2383C84.0507 21.1614 84.2214 20.2323 84.5627 19.451C84.904 18.6697 85.352 18.0151 85.9067 17.5083C86.4614 17.0015 87.1014 16.6214 87.8267 16.368C88.5307 16.1357 89.256 16.009 90.0027 16.009C90.9627 16.009 91.7947 16.1569 92.4774 16.4525C93.16 16.7481 93.6934 17.1493 94.12 17.6561C94.5467 18.1629 94.8454 18.733 95.0374 19.3876C95.2294 20.0422 95.3147 20.7179 95.3147 21.4359V21.7949C95.3147 21.9427 95.3147 22.0694 95.2934 22.2383C95.2934 22.3861 95.272 22.5339 95.272 22.6817C95.272 22.8296 95.2507 22.9351 95.2294 23.0196H87.5707C87.6347 23.9698 87.9334 24.7511 88.4667 25.3846C88.9787 25.997 89.8107 26.3137 90.9414 26.3137ZM92.136 21.098C92.136 20.2745 91.9654 19.5988 91.6454 19.092C91.3254 18.5852 90.7494 18.3107 89.9174 18.3107C89.192 18.3107 88.6374 18.5641 88.2107 19.0498C87.784 19.5354 87.5707 20.2112 87.5707 21.098H92.136ZM101.48 17.5294C101.587 17.3816 101.715 17.2127 101.885 17.0226C102.056 16.8326 102.269 16.6636 102.525 16.5158C102.781 16.368 103.059 16.2413 103.357 16.1357C103.656 16.0302 103.976 15.9879 104.339 15.9879C104.552 15.9879 104.765 16.009 105 16.0302C105.235 16.0724 105.448 16.1357 105.64 16.2202C105.832 16.3047 106.003 16.4314 106.131 16.6003C106.259 16.7692 106.323 16.9593 106.323 17.1915C106.323 17.5716 106.237 17.994 106.045 18.4796C105.853 18.9653 105.661 19.3876 105.469 19.7255C105.171 19.4932 104.872 19.3032 104.595 19.1765C104.296 19.0498 103.955 18.9864 103.549 18.9864C103.016 18.9864 102.568 19.1342 102.205 19.451C101.843 19.7677 101.651 20.1267 101.651 20.5701V28.8899H98.1094V16.3258C98.1947 16.3047 98.3014 16.2836 98.4294 16.2836C98.536 16.2624 98.664 16.2624 98.792 16.2413C98.92 16.2413 99.0907 16.2202 99.2827 16.2202C99.8374 16.2202 100.328 16.3258 100.733 16.5369C101.117 16.7692 101.373 17.086 101.48 17.5294ZM111.528 17.5294C111.635 17.3816 111.763 17.2127 111.933 17.0226C112.104 16.8326 112.317 16.6636 112.573 16.5158C112.829 16.368 113.107 16.2413 113.405 16.1357C113.704 16.0302 114.024 15.9879 114.387 15.9879C114.6 15.9879 114.813 16.009 115.048 16.0302C115.283 16.0724 115.496 16.1357 115.688 16.2202C115.88 16.3047 116.051 16.4314 116.179 16.6003C116.307 16.7692 116.371 16.9593 116.371 17.1915C116.371 17.5716 116.285 17.994 116.093 18.4796C115.901 18.9653 115.709 19.3876 115.517 19.7255C115.219 19.4932 114.92 19.3032 114.643 19.1765C114.344 19.0498 114.003 18.9864 113.597 18.9864C113.064 18.9864 112.616 19.1342 112.253 19.451C111.891 19.7677 111.699 20.1267 111.699 20.5701V28.8899H108.157V16.3258C108.243 16.3047 108.349 16.2836 108.477 16.2836C108.584 16.2624 108.712 16.2624 108.84 16.2413C108.968 16.2413 109.139 16.2202 109.331 16.2202C109.885 16.2202 110.376 16.3258 110.781 16.5369C111.165 16.7692 111.421 17.086 111.528 17.5294ZM128.403 25.5113C128.403 26.8627 128.595 27.8552 129 28.4676C128.68 28.5943 128.403 28.6787 128.125 28.721C127.848 28.7632 127.571 28.8054 127.272 28.8054C126.653 28.8054 126.184 28.6787 125.864 28.4464C125.544 28.2142 125.331 27.8552 125.245 27.4118C124.861 27.813 124.371 28.1508 123.731 28.4253C123.112 28.6998 122.344 28.8265 121.448 28.8265C120.979 28.8265 120.509 28.7632 120.04 28.6365C119.571 28.5098 119.144 28.2986 118.76 28.003C118.376 27.7074 118.077 27.3273 117.821 26.8416C117.587 26.3559 117.459 25.7647 117.459 25.0679C117.459 24.2021 117.672 23.4842 118.099 22.9351C118.525 22.3861 119.059 21.9638 119.699 21.647C120.339 21.3303 121.043 21.1191 121.768 20.9924C122.515 20.8658 123.197 20.8024 123.816 20.7602C124.029 20.7391 124.221 20.7391 124.435 20.7391H124.989V20.2745C124.989 19.6199 124.819 19.1553 124.456 18.8597C124.093 18.5852 123.517 18.4374 122.728 18.4374C121.981 18.4374 121.32 18.5641 120.744 18.7964C120.168 19.0286 119.592 19.3032 119.037 19.6199C118.803 19.3243 118.589 19.0075 118.461 18.6486C118.312 18.2896 118.248 18.0362 118.248 17.8673C118.248 17.635 118.376 17.4027 118.653 17.1704C118.931 16.9382 119.293 16.7481 119.763 16.5581C120.232 16.368 120.765 16.2413 121.384 16.1146C121.981 16.009 122.621 15.9457 123.304 15.9457C124.243 15.9457 125.032 16.0302 125.672 16.2202C126.312 16.4102 126.845 16.7059 127.251 17.086C127.656 17.4872 127.955 17.9728 128.125 18.5641C128.296 19.1553 128.381 19.8522 128.381 20.6335L128.403 25.5113ZM125.075 22.5339H124.712C124.584 22.5339 124.477 22.5339 124.349 22.555C123.923 22.5973 123.496 22.6395 123.069 22.7029C122.643 22.7662 122.259 22.8929 121.939 23.0618C121.619 23.2308 121.341 23.463 121.128 23.7375C120.915 24.0121 120.808 24.371 120.808 24.7934C120.808 25.279 120.936 25.6802 121.213 26.0181C121.491 26.3559 121.96 26.5249 122.621 26.5249C122.941 26.5249 123.261 26.4826 123.56 26.3982C123.859 26.3137 124.115 26.2081 124.349 26.0603C124.584 25.9125 124.755 25.7647 124.883 25.6169C125.011 25.448 125.075 25.3001 125.075 25.1734V22.5339Z" fill="#6358DE"/>
</g>
<defs>
<clipPath id="clip0_11277_12048">
<rect width="128" height="28" fill="white" transform="translate(1 6)"/>
</clipPath>
</defs>
</svg>
