<svg width="130" height="96" viewBox="0 0 130 96" fill="none" xmlns="http://www.w3.org/2000/svg">
<path d="M54.2306 22.2293C54.3074 22.15 54.4225 22.1103 54.4993 22.1103C54.6529 22.1103 54.7297 22.2293 54.7297 22.3879C54.7297 22.4672 54.6913 22.5862 54.6145 22.6655C51.1974 26.9878 48.7018 32.1031 48.7018 39.1615C48.7018 46.2199 51.159 51.2163 54.5761 55.5783C54.6529 55.6576 54.6913 55.7765 54.6913 55.8558C54.6913 56.0144 54.6145 56.1334 54.4609 56.1334C54.3841 56.1334 54.3074 56.0938 54.1922 56.0144L39.7559 41.5408C39.0264 40.9063 38.5656 40.1529 38.5656 39.0822C38.5656 38.0116 39.0264 37.2581 39.7559 36.6237L54.2306 22.2293Z" fill="#FFFDF6"/>
<path d="M65.326 21C59.6821 21 57.4552 29.2877 57.4552 39.1615C57.4552 49.0353 59.6821 57.204 65.326 57.204C68.7048 57.204 71.6227 55.142 71.6227 53.4766C71.6227 53.1197 71.4692 52.7628 71.2004 52.4456C69.5878 50.8198 68.9735 49.2336 68.9735 47.8061C68.9735 45.1096 71.2388 43.0872 73.3121 43.0872C76.1917 43.0872 77.881 45.4268 77.881 48.4405C77.881 51.2956 76.6908 53.7145 75.4238 55.6179C75.3854 55.6972 75.347 55.7765 75.347 55.8558C75.347 56.0144 75.4238 56.1334 75.5774 56.1334C75.6541 56.1334 75.7309 56.0937 75.8461 55.9748L90.2824 41.5407C91.0119 40.9063 91.4726 40.1528 91.4726 39.0822C91.4726 38.0115 91.0119 37.2581 90.2824 36.6237L75.8077 22.2293C75.6925 22.1103 75.6158 22.0707 75.539 22.0707C75.4238 22.0707 75.3086 22.1896 75.3086 22.3482C75.3086 22.4275 75.347 22.5068 75.3854 22.5862C76.6524 24.4895 77.8426 26.8688 77.8426 29.7635C77.8426 32.7772 76.1533 35.1168 73.2737 35.1168C71.162 35.1168 68.8967 33.0945 68.9351 30.398C68.9351 28.9704 69.5494 27.3843 71.162 25.7585C71.4692 25.4412 71.5843 25.0844 71.5843 24.7275C71.6227 23.062 68.7048 21 65.326 21Z" fill="#FFFDF6"/>
<path d="M41.9058 73.3035C41.9058 72.5501 42.2129 71.9156 42.7888 71.4795C43.3264 71.0433 44.1326 70.845 45.0157 70.845C45.5916 70.845 46.1675 70.964 46.5515 71.1226V70.2502C46.5515 69.3778 46.2059 68.8623 45.2845 68.8623C45.0925 68.8623 44.7086 68.9019 44.4014 69.0209C44.4398 69.1399 44.4398 69.2588 44.4398 69.4174C44.4398 69.695 44.363 69.9726 44.171 70.1709C44.0175 70.3691 43.7487 70.4881 43.4415 70.4881C42.904 70.4881 42.4817 70.0123 42.4817 69.4571C42.4817 68.3864 43.7487 67.6727 45.3997 67.6727C46.7051 67.6727 47.5497 67.9899 48.0105 68.5847C48.4328 69.1002 48.4328 69.8933 48.4328 70.964V73.819C48.4328 74.3742 48.74 74.5328 49.3927 74.6121H49.4695V74.6914C49.4311 75.4448 48.8935 75.7621 48.3176 75.8017C48.2792 75.8017 48.2024 75.8017 48.164 75.8017C47.5881 75.8017 47.0506 75.5242 46.7819 74.9293C46.4363 75.2466 45.63 75.8017 44.5934 75.8017C43.0576 75.8414 41.9058 74.7707 41.9058 73.3035ZM89.0541 75.4448C88.9005 75.2466 88.8621 75.0087 88.7853 74.6914C88.7086 74.7707 88.6318 74.8897 88.4782 75.0087C87.9791 75.4845 87.3264 75.8017 86.5969 75.8017C85.7906 75.8017 85.0995 75.4845 84.6771 74.9293C83.986 74.0966 84.0244 73.0656 83.986 71.5588V70.1709C83.986 69.5761 83.7941 69.3778 83.2565 69.3778C83.1798 69.3778 83.103 69.3778 83.0262 69.3778H82.9494L82.911 69.2985C82.8726 69.1795 82.8342 69.1002 82.8342 68.9813C82.8342 68.2675 83.7173 67.9106 84.2164 67.7916C84.4084 67.752 84.562 67.752 84.7155 67.752C85.1379 67.752 85.4066 67.8709 85.5986 68.1485C85.7906 68.3864 85.8674 68.7433 85.8674 69.1002V71.5588C85.8674 72.4708 85.9442 73.1449 86.1361 73.5811C86.3281 74.0173 86.6353 74.2156 87.1728 74.2156C87.7871 74.2156 88.1326 73.938 88.363 73.5415C88.5934 73.1449 88.6702 72.6294 88.6702 72.1139V70.1312C88.6702 69.5364 88.4782 69.3381 87.9407 69.3381C87.8639 69.3381 87.7871 69.3381 87.7103 69.3381H87.6335L87.5951 69.2588C87.5567 69.1399 87.5183 69.0606 87.5183 68.9416C87.5183 68.2278 88.4014 67.8709 88.9005 67.752C89.0925 67.7123 89.2461 67.7123 89.3997 67.7123C89.822 67.7123 90.0908 67.8313 90.2827 68.0692C90.4747 68.3071 90.5515 68.664 90.5515 69.0209C90.5515 69.2985 90.5131 69.814 90.5131 71.876C90.5131 72.7484 90.5131 73.2242 90.5131 73.3828C90.5131 73.9777 90.7051 74.2552 91.2426 74.2552C91.3194 74.2552 91.3578 74.2552 91.4346 74.2552H91.5113L91.5497 74.3345C91.5881 74.4535 91.6265 74.5328 91.6265 74.6518C91.5881 75.3259 90.7435 75.6035 90.2443 75.7224C90.0908 75.7621 89.8988 75.7621 89.7836 75.7621C89.4764 75.8414 89.2077 75.6828 89.0541 75.4448ZM62.0628 71.876C62.0628 70.6467 62.4468 69.6157 63.1379 68.8623C63.829 68.1089 64.7888 67.6727 65.9407 67.6727C66.9773 67.6727 67.7836 68.0692 68.2827 68.664C68.7819 69.2192 69.0506 69.9726 69.0506 70.6864C69.0506 71.0829 68.9738 71.4795 68.7819 71.7967L68.7435 71.8363H64.0593C64.1361 73.2242 65.0192 74.2156 66.5166 74.2156C67.438 74.2156 68.1675 73.7001 68.3979 73.3828L68.4363 73.3035L68.5131 73.3432C68.6667 73.4622 68.7819 73.6208 68.7819 73.9777C68.7819 74.7707 67.8604 75.8414 65.8255 75.8414C63.7522 75.8017 62.0628 74.0966 62.0628 71.876ZM78.6492 75.8017C77.6126 75.8017 76.6527 75.4052 75.9232 74.6914C75.2321 73.9777 74.8098 72.9466 74.8098 71.7174C74.8098 69.2985 76.6527 67.6727 78.726 67.6727C79.8394 67.6727 80.7993 68.0692 81.4904 68.783C82.1815 69.4968 82.5654 70.5278 82.5654 71.7174C82.5654 72.907 82.1431 73.938 81.452 74.6518C80.7609 75.4052 79.7627 75.8017 78.6492 75.8017ZM93.0087 75.5638C92.7016 75.4845 92.4712 75.2862 92.4712 75.0087C92.4712 74.8897 92.5096 74.7707 92.548 74.6518V74.6121H92.5864C92.7016 74.5725 92.9319 74.5328 93.0855 74.3742C93.2775 74.2156 93.3543 73.9777 93.3543 73.3432V70.0916C93.3543 69.5364 93.2007 69.3381 92.7784 69.3381C92.6632 69.3381 92.548 69.3381 92.4328 69.3778H92.356L92.3176 69.2985C92.2792 69.1795 92.2408 69.0606 92.2408 68.9416C92.2408 68.3071 92.9319 67.9503 93.3927 67.7916C93.5846 67.752 93.7382 67.7123 93.9302 67.7123C94.5445 67.7123 94.8901 68.1882 95.0436 68.783C95.466 68.0692 96.1187 67.633 96.7714 67.633C97.3857 67.633 98 68.0296 98 68.8226C98 69.3778 97.6161 69.9726 97.0017 69.9726C96.541 69.9726 96.1187 69.6554 96.0419 69.1795C95.6963 69.2985 95.1972 69.7743 95.1972 71.3605V73.3035C95.1972 73.938 95.274 74.1759 95.466 74.3345C95.6579 74.4932 96.0035 74.5328 96.1571 74.5725H96.1955L96.2339 74.6121C96.3107 74.7707 96.3106 74.8897 96.3106 75.0087C96.3106 75.2862 96.1187 75.4448 95.8115 75.5242C95.5044 75.6035 95.0436 75.6431 94.4293 75.6431C93.815 75.6828 93.3159 75.6828 93.0087 75.5638ZM70.3176 75.5638C70.0105 75.4845 69.7801 75.2862 69.7801 75.0087C69.7801 74.8897 69.8185 74.7707 69.8569 74.6518V74.6121H69.8953C70.0105 74.5725 70.2408 74.5328 70.3944 74.3742C70.5864 74.2156 70.6632 73.9777 70.6632 73.3432V69.0606L69.5497 69.0209L69.5113 68.9813C69.473 68.8226 69.4346 68.7037 69.4346 68.5847C69.4346 68.1485 69.7417 67.8709 70.1257 67.8709H70.6248V67.3951C70.6248 66.2451 70.8168 65.6107 71.1239 65.1745C71.5463 64.4607 72.3141 63.9849 73.466 63.9849C74.8866 63.9849 76.1152 64.659 76.1152 65.7693C76.1152 66.2451 75.808 66.8399 75.1169 66.8399C74.6178 66.8399 74.1571 66.4037 74.1571 65.8486C74.1571 65.6503 74.2339 65.4521 74.3106 65.2934C74.1571 65.1745 73.8883 65.0555 73.5812 65.0952C73.1204 65.0952 72.8901 65.2538 72.7365 65.5314C72.5829 65.8089 72.5445 66.2055 72.5445 66.6417V67.8709H74.4642L74.5026 67.9106C74.541 68.0692 74.5794 68.1882 74.5794 68.3071C74.5794 68.7433 74.2723 69.0606 73.9267 69.1002C73.7731 69.1002 73.6195 69.1002 73.5044 69.1002C73.1972 69.1002 72.8901 69.0606 72.6597 69.0606V73.3432C72.6597 73.9777 72.7749 74.2156 72.9668 74.3742C73.1204 74.5328 73.6195 74.5725 73.7347 74.6121H73.7731L73.8115 74.6518C73.8499 74.7707 73.8883 74.8897 73.8883 74.969C73.8883 75.2466 73.6579 75.4448 73.3124 75.5242C72.9668 75.6431 72.4677 75.6828 71.815 75.6828C71.1239 75.6828 70.6248 75.6828 70.3176 75.5638ZM56.9948 75.5638C56.6492 75.4845 56.4572 75.2862 56.4572 75.0087C56.4572 74.8897 56.4956 74.7707 56.534 74.6518V74.6121H56.5724C56.6876 74.5725 56.918 74.5328 57.1099 74.3742C57.3019 74.2156 57.3787 73.9777 57.3787 73.3432V70.0916C57.3787 69.5364 57.2251 69.3381 56.8028 69.3381C56.6876 69.3381 56.5724 69.3381 56.4572 69.3778H56.3805L56.3421 69.2985C56.3037 69.1795 56.2653 69.0606 56.2653 68.9416C56.2653 68.3071 56.9564 67.9503 57.4171 67.8313C57.6091 67.752 57.7627 67.752 57.9162 67.752C58.5305 67.752 58.8761 68.2278 59.0297 68.8226C59.452 68.1485 60.1047 67.6727 60.7574 67.6727C61.3717 67.6727 61.986 68.0692 61.986 68.8623C61.986 69.4174 61.6021 70.0123 60.9878 70.0123C60.5271 70.0123 60.1047 69.695 60.0279 69.2192C59.6824 69.3381 59.1449 69.814 59.1449 71.4001V73.3432C59.1449 73.9777 59.2216 74.2156 59.4136 74.3742C59.6056 74.5328 59.9511 74.5725 60.1047 74.6121H60.1431L60.1815 74.6518C60.2199 74.7707 60.2583 74.9293 60.2583 75.0483C60.2583 75.3259 60.0663 75.4845 59.7592 75.5638C59.452 75.6431 58.9913 75.6828 58.377 75.6828C57.801 75.6828 57.3403 75.6828 56.9948 75.5638ZM50.7365 75.5638C50.4293 75.4845 50.199 75.2862 50.199 75.0087C50.199 74.8897 50.2373 74.7707 50.2757 74.6518V74.6121H50.3141C50.4293 74.5725 50.6597 74.5328 50.8133 74.3742C51.0052 74.2156 51.082 73.9777 51.082 73.3432V70.0916C51.082 69.5364 50.9668 69.3381 50.5061 69.3381C50.3909 69.3381 50.2757 69.3381 50.1606 69.3778H50.0838L50.0454 69.2985C50.007 69.1795 49.9686 69.0606 49.9686 68.9416C49.9686 68.3071 50.6597 67.9503 51.1204 67.8313C51.3124 67.752 51.466 67.752 51.6195 67.752C52.2339 67.752 52.5794 68.2278 52.733 68.783C53.1553 68.1089 53.808 67.633 54.4607 67.633C55.075 67.633 55.6894 68.0296 55.6894 68.8226C55.6894 69.3778 55.3054 69.9726 54.6911 69.9726C54.2304 69.9726 53.808 69.6554 53.7312 69.1795C53.3857 69.2985 52.8482 69.7743 52.8482 71.3605V73.3035C52.8482 73.938 52.925 74.1759 53.1169 74.3345C53.3089 74.4932 53.6545 74.5328 53.808 74.5725H53.8464V74.6121C53.9232 74.7311 53.9232 74.8897 53.9232 75.0087C53.9232 75.2862 53.7312 75.4448 53.4241 75.5242C53.1169 75.6035 52.6562 75.6431 52.0419 75.6431C51.5428 75.6828 51.0436 75.6828 50.7365 75.5638ZM76.9599 71.5191C76.9599 73.6604 77.8429 74.5725 78.726 74.5725C79.7243 74.5725 80.4538 73.6604 80.4538 71.8363C80.4538 70.8846 80.2618 70.1312 79.9162 69.6554C79.5707 69.1399 79.1483 68.8623 78.6108 68.8623C77.6126 68.8623 76.9599 69.8536 76.9599 71.5191ZM45.3229 71.9553C44.4782 71.9553 43.9407 72.3518 43.9407 73.1449C43.9407 73.8983 44.4398 74.4138 45.2077 74.4138C45.7068 74.4138 46.2059 74.1363 46.5515 73.7001V72.5898C46.5515 72.4312 46.4747 72.2725 46.2443 72.1536C46.0524 72.0346 45.7452 71.9553 45.3229 71.9553ZM66.8237 70.6467C66.9773 70.6467 67.0157 70.6071 67.0541 70.5674C67.0925 70.5278 67.0925 70.4088 67.0925 70.2898C67.0925 69.5364 66.5166 68.8623 65.6719 68.8623C64.5969 68.8623 64.1361 69.7743 64.0977 70.6467H66.8237ZM33.4974 74.4138C32.5759 73.4621 32 72.0346 32 70.2898C32 68.6244 32.5759 67.1968 33.459 66.2055C34.3421 65.2141 35.5707 64.6193 36.8761 64.6193C39.1798 64.6193 40.8307 66.2848 40.8307 67.752C40.8307 68.5054 40.37 69.1399 39.7173 69.1399C39.4101 69.1399 39.103 69.0209 38.8726 68.8226C38.6422 68.6244 38.5271 68.3071 38.5271 67.9106C38.5271 67.4744 38.7574 67.1968 38.911 66.9986C38.6038 66.4434 37.9895 66.0072 37.0681 66.0072C36.2618 66.0072 35.6091 66.4434 35.1099 67.1968C34.6108 67.9503 34.3421 69.0209 34.3421 70.3295C34.3421 71.5984 34.6492 72.7087 35.1483 73.4622C35.6475 74.2156 36.3386 74.6518 37.1449 74.6518C38.1047 74.6518 38.6806 74.2156 38.9878 73.6604C38.8342 73.4622 38.6038 73.1846 38.6038 72.7484C38.6038 72.3915 38.719 72.0743 38.9494 71.8363C39.1798 71.6381 39.4485 71.5191 39.7941 71.5191C40.4468 71.5191 40.9075 72.1139 40.9075 72.8673C40.9075 74.3345 39.2565 76 36.9529 76C35.6475 75.881 34.4188 75.3655 33.4974 74.4138Z" fill="#FFFDF6"/>
</svg>
