<svg width="130" height="96" viewBox="0 0 130 96" fill="none" xmlns="http://www.w3.org/2000/svg">
<g clip-path="url(#clip0_11582_12111)">
<path d="M26.7987 40.001C19.5323 40.001 13.4854 43.0919 13.4854 52.3927C13.4854 59.7677 17.5522 64.404 26.9878 64.404C38.1037 64.404 38.81 57.0833 38.81 57.0833H33.4151C33.4151 57.0833 32.25 61.0153 26.6377 61.0153C22.0557 61.0153 18.7757 57.9244 18.7757 53.5859H39.3553V50.8754C39.3815 46.5912 36.671 40.003 26.8027 40.003L26.7987 40.001ZM26.6095 43.4722C30.948 43.4722 33.9302 46.1284 33.9302 50.1429H18.9346C18.9346 45.8869 22.8123 43.4722 26.6075 43.4722H26.6095Z" fill="#FFFDF6"/>
<path d="M39.3775 31V59.7395C39.3775 61.3655 39.2688 63.6715 39.2688 63.6715H44.3941C44.3941 63.6715 44.5833 62.0174 44.5833 60.5263C44.5833 60.5263 47.1328 64.4845 54.0189 64.4845C61.2853 64.4845 66.2194 59.4417 66.2194 52.2297C66.2194 45.5066 61.6917 40.1096 54.045 40.1096C46.8873 40.1096 44.6637 43.9873 44.6637 43.9873V31.0262H39.3775V31ZM52.6908 43.6352C57.6249 43.6352 60.7701 47.2955 60.7701 52.2035C60.7701 57.4636 57.1379 60.9066 52.7451 60.9066C47.485 60.9066 44.6376 56.7855 44.6376 52.2297C44.6376 47.9998 47.1872 43.6352 52.6908 43.6352Z" fill="#FFFDF6"/>
<path d="M78.9634 40.001C68.0367 40.001 67.3324 45.9936 67.3324 46.9414H72.7816C72.7816 46.9414 73.0795 43.444 78.6113 43.444C82.2173 43.444 84.9822 45.0981 84.9822 48.2433V49.3823H78.6113C70.1516 49.3823 65.6521 51.8493 65.6521 56.8921C65.6521 61.9349 69.7994 64.5388 75.3855 64.5388C83.0041 64.5388 85.4711 60.3372 85.4711 60.3372C85.4711 62.0174 85.606 63.6715 85.606 63.6715H90.4314C90.4314 63.6715 90.2423 61.6371 90.2423 60.309V49.0019C90.2161 41.5464 84.2497 40.001 78.9634 40.001ZM84.9822 52.771V54.2621C84.9822 56.214 83.7627 61.0938 76.6593 61.0938C72.7555 61.0938 71.1014 59.1419 71.1014 56.8921C71.1014 52.771 76.7137 52.771 84.9842 52.771H84.9822Z" fill="#FFFDF6"/>
<path d="M87.2861 40.9508H93.4136L102.197 58.5462L110.955 40.9508H116.513L100.543 72.2942H94.7135L99.3237 63.5629L87.2861 40.9508Z" fill="#FFFDF6"/>
</g>
<defs>
<clipPath id="clip0_11582_12111">
<rect width="103.029" height="41.2922" fill="white" transform="translate(13.4854 31)"/>
</clipPath>
</defs>
</svg>
