<svg width="130" height="40" viewBox="0 0 130 40" fill="none" xmlns="http://www.w3.org/2000/svg">
<path d="M65 0C53.963 0 45 8.96296 45 20C45 31.037 53.963 40 65 40C76.037 40 85 31.037 85 20C85 8.96296 76.037 0 65 0ZM68.4815 16.5C68.4815 15.6296 68.6481 14.8889 69 14.3148C69.3519 13.7407 69.963 13.2222 70.8333 12.7963L71.2407 12.5926C71.9444 12.2222 72.1296 11.9259 72.1296 11.5556C72.1296 11.1111 71.7407 10.7963 71.1296 10.7963C70.3889 10.7963 69.8333 11.1852 69.463 11.9444L68.4815 10.963C68.7037 10.5 69.0556 10.1296 69.5185 9.83333C70 9.53704 70.5 9.38889 71.0741 9.38889C71.7778 9.38889 72.4074 9.57407 72.9074 9.96296C73.4259 10.3519 73.6852 10.8704 73.6852 11.537C73.6852 12.5926 73.0926 13.2593 71.963 13.8333L71.3333 14.1481C70.6667 14.4815 70.3333 14.7963 70.2407 15.3333H73.6481V16.7407H68.4815V16.5ZM65.2037 31.4259C58.8889 31.4259 53.7778 26.3148 53.7778 20C53.7778 13.6852 58.8889 8.57407 65.2037 8.57407C65.963 8.57407 66.7222 8.64815 67.4444 8.7963L65.2037 13.4815C61.6111 13.4815 58.6667 16.4074 58.6667 20.0185C58.6667 23.6111 61.5926 26.5556 65.2037 26.5556C66.8333 26.5556 68.3148 25.963 69.463 24.9815L71.9444 29.2778C70.037 30.6111 67.7222 31.4259 65.2037 31.4259ZM73.2037 28.1667L70.3704 23.2593H64.7222L67.5556 18.3704H73.2037L76.037 23.2593L73.2037 28.1667Z" fill="#6358DE"/>
</svg>
