<svg width="130" height="96" viewBox="0 0 130 96" fill="none" xmlns="http://www.w3.org/2000/svg">
<g clip-path="url(#clip0_11582_12110)">
<path d="M6.08555 39.4104C6.08555 39.4104 3.52021 41.8594 3.37788 44.4577V44.9385C3.48897 47.03 5.07365 48.2641 5.07365 48.2641C7.60601 50.7461 13.7451 53.8634 15.1875 54.5646L15.3298 54.5525L15.3558 54.5004V54.4414C11.4176 45.8723 6.08555 39.4104 6.08555 39.4104ZM14.3665 56.6752C14.3405 56.5641 14.2294 56.5641 14.2294 56.5641L4.0062 56.9286C5.11009 58.909 6.98116 60.4295 8.93554 59.9747C10.2668 59.6311 13.3129 57.5066 14.3075 56.7863L14.3595 56.663V56.6752H14.3665ZM14.4828 55.5973C9.9891 52.5564 1.29159 47.9187 1.29159 47.9187C1.08331 48.5487 1.01215 49.1649 1 49.7186V49.8158C1 51.2963 1.55195 52.336 1.55195 52.336C2.66278 54.6809 4.79246 55.3891 4.79246 55.3891C5.76618 55.7987 6.73469 55.8178 6.73469 55.8178C6.90305 55.8438 12.8269 55.8178 14.4064 55.8178L14.5175 55.7466V55.6685L14.4845 55.5973H14.4828ZM13.549 35.3246C11.5356 35.8383 10.0932 37.6105 9.9891 39.6898V40.2556C10.0342 41.087 10.2095 41.7101 10.2095 41.7101C11.126 45.7248 15.5624 52.31 16.517 53.6933L16.6593 53.7384L16.7374 53.5961C18.2128 38.9174 15.2048 35.0069 15.2048 35.0069C14.757 35.033 13.549 35.3246 13.549 35.3246ZM25.0513 38.4679C25.0513 38.4679 24.3762 35.9737 21.6737 35.3055C21.6737 35.3055 20.8805 35.1111 20.0491 35C20.0491 35 17.029 38.8914 18.4974 53.6082C18.5165 53.7054 18.5825 53.7193 18.5825 53.7193C18.6797 53.7645 18.7196 53.6811 18.7196 53.6811C19.7193 52.2527 24.1228 45.6987 25.027 41.7101C25.027 41.7101 25.52 39.7679 25.0531 38.4696L25.0513 38.4679ZM21.0107 56.5763L20.8874 56.6405L20.9256 56.7828C21.8941 57.491 24.8743 59.5564 26.3045 59.9713C26.3045 59.9713 26.5249 60.0424 26.9016 60.0494H27.0908C28.0454 60.0233 29.7273 59.5425 31.2477 56.9182L20.9985 56.5745H21.0107V56.5763ZM31.8517 44.9246C32.0461 42.066 29.1632 39.4225 29.1632 39.4104C29.1632 39.4104 23.8312 45.8671 19.9276 54.3754L19.9536 54.5507L20.0057 54.5629H20.0908C21.5592 53.8356 27.6514 50.7235 30.1716 48.2762C30.1785 48.2762 31.7754 46.9901 31.8535 44.9246H31.8517ZM33.9623 47.8926C33.9623 47.8926 25.2648 52.5564 20.7712 55.5765C20.7712 55.5765 20.7 55.6355 20.726 55.7327L20.8232 55.8108C22.4339 55.8108 28.5331 55.8108 28.6824 55.7848C28.6824 55.7848 29.4756 55.7588 30.4424 55.3821C30.4424 55.3821 32.5981 54.6878 33.7298 52.2318C33.7298 52.2388 34.7434 50.2306 33.9641 47.8926H33.9623Z" fill="#FFFDF6"/>
<path d="M42.7536 50.2688V56.2031H39.5166V41.908H42.7536V47.7521H50.0348V41.908H53.2719V56.2031H50.0348V50.2688H42.7536Z" fill="#FFFDF6"/>
<path d="M59.206 50.4493C59.206 52.966 60.0149 54.0456 62.7121 54.0456C65.4094 54.0456 66.2182 52.966 66.2182 50.4493V41.908H69.4552V50.5378C69.4552 52.336 69.2747 53.5944 68.5562 54.4032C67.2978 55.8421 65.4094 56.3819 62.7121 56.3819C60.0149 56.3819 58.1264 55.8421 56.8681 54.4032C56.1495 53.5944 55.969 52.336 55.969 50.5378V41.908H59.206V50.4493Z" fill="#FFFDF6"/>
<path d="M80.062 41.908L86.6246 56.2031H83.0282L81.5894 52.7873H74.8462L73.4976 56.2031H70.0818L76.6444 41.908H80.0602H80.062ZM75.9258 50.2688H80.5115L78.1735 44.784L75.9258 50.2688Z" fill="#FFFDF6"/>
<path d="M103.886 56.2031H99.9304L96.6048 45.5044L93.7271 56.2031H89.7714L84.6477 41.908H88.0635L91.6599 52.8775L94.7164 41.908H98.4915L101.998 52.8775L105.325 41.908H108.65L103.886 56.2031Z" fill="#FFFDF6"/>
<path d="M113.055 47.752H122.046V50.2688H113.055C113.055 52.8758 114.135 53.7749 116.742 53.7749H122.046V56.2916H116.562C114.673 56.2916 113.236 56.2013 111.707 55.0332C110.089 53.8651 109.369 51.9767 109.369 49.3697C109.369 44.3345 111.707 41.9983 116.65 41.9983H122.045V44.515H116.74C114.402 44.4247 113.144 45.5043 113.054 47.752H113.055Z" fill="#FFFDF6"/>
<path d="M124.923 41.908V56.2031H128.34V41.908H124.923Z" fill="#FFFDF6"/>
</g>
<defs>
<clipPath id="clip0_11582_12110">
<rect width="127.34" height="25.0546" fill="white" transform="translate(1 35)"/>
</clipPath>
</defs>
</svg>
