<svg width="130" height="96" viewBox="0 0 130 96" fill="none" xmlns="http://www.w3.org/2000/svg">
<path d="M77.8091 51.1573H72.8813C72.4438 51.1547 72.0253 50.9818 71.7173 50.6764C71.4094 50.3711 71.2371 49.9582 71.2383 49.5283V44.6557H76.1671C77.0683 44.6557 77.81 45.3838 77.81 46.2847L77.8091 51.1573ZM77.8091 38.1387H64.6831V51.1573C64.6831 54.7474 67.6274 57.6742 71.2374 57.6742H77.8091C77.8091 58.5679 77.0673 59.2951 76.1662 59.2951H72.8813C71.982 59.2951 71.2383 60.0313 71.2383 60.9242V65.813H77.81C81.4292 65.813 84.3735 62.8853 84.3735 59.2951V44.6557C84.3735 41.0665 81.4283 38.1387 77.8091 38.1387ZM99.1507 51.1573H94.2219C94.0057 51.1559 93.7919 51.1126 93.5928 51.03C93.3936 50.9473 93.2129 50.8269 93.0611 50.6757C92.9093 50.5244 92.7893 50.3452 92.708 50.1483C92.6267 49.9514 92.5857 49.7408 92.5872 49.5283V44.6557H97.5078C97.7245 44.6564 97.9391 44.6991 98.139 44.7814C98.339 44.8637 98.5205 44.9839 98.6731 45.1352C98.8257 45.2866 98.9464 45.466 99.0284 45.6632C99.1103 45.8604 99.1519 46.0716 99.1507 46.2847V51.1573ZM92.5872 38.1387C88.968 38.1387 86.0155 41.0665 86.0155 44.6557V51.1573C86.0155 54.7474 88.968 57.6742 92.5872 57.6742H99.1507C102.77 57.6742 105.714 54.7474 105.714 51.1573V44.6557H107.357C108.266 44.6557 109 43.9204 109 43.0267V38.1387H92.5872ZM56.4758 38.1387H54.8329V44.6557C55.734 44.6557 56.4758 45.3838 56.4758 46.2847V56.0461C56.4758 56.9398 57.2103 57.6751 58.1197 57.6751H63.0402V44.6557C63.0402 41.0665 60.0968 38.1387 56.4758 38.1387ZM49.905 49.5274V33.2589C49.905 32.3571 49.1715 31.6299 48.2703 31.6299H43.3416V51.1573C43.3416 54.7474 46.2931 57.6742 49.905 57.6742H54.8329V51.1573H51.547C51.1097 51.1547 50.6912 50.9817 50.3834 50.6764C50.0756 50.371 49.9036 49.9572 49.905 49.5274ZM56.4758 36.5097H59.7635C60.6628 36.5097 61.3963 35.7816 61.3963 34.8879V31.6299C61.3963 30.7362 60.6637 30 59.7626 30H56.4758C55.5765 30 54.8329 30.7362 54.8329 31.629V34.8879C54.8329 35.7816 55.5765 36.5097 56.4758 36.5097ZM35.1352 36.5097H38.4128C39.3212 36.5097 40.0557 35.7816 40.0557 34.8879V31.6299C40.0557 30.7362 39.3212 30 38.4128 30H35.1343C34.2258 30 33.4922 30.7362 33.4922 31.629V34.8879C33.4922 35.7816 34.234 36.5097 35.1352 36.5097ZM35.1352 38.1387H33.4922V44.6557C34.3925 44.6557 35.1352 45.3838 35.1352 46.2847V56.0461C35.1352 56.9398 35.8696 57.6751 36.7781 57.6751H41.6977V44.6557C41.6977 41.0665 38.7461 38.1387 35.1352 38.1387ZM28.5625 49.5274C28.5625 50.4301 29.3062 51.1564 30.2064 51.1564H33.4922V57.6742H28.5625C24.9516 57.6742 22 54.7474 22 51.1573V31.629H26.9288C27.8299 31.629 28.5625 32.3562 28.5625 33.258V49.5265V49.5274ZM86.021 65.849V64.1768H87.4478V65.849H86.021ZM91.2749 62.1608C91.2749 61.6028 91.1668 61.0025 90.6045 61.0025C89.8701 61.0025 89.751 61.646 89.751 62.9753C89.751 64.4018 89.8801 64.9913 90.5505 64.9913C91.0478 64.9913 91.2749 64.5728 91.2749 63.6404H92.7017C92.7017 65.1524 92.0643 65.9993 90.4855 65.9993C88.9937 65.9993 88.2583 65.2811 88.2583 62.9654C88.2583 60.5956 89.2428 59.9305 90.6155 59.9305C91.9892 59.9305 92.7017 60.7991 92.7017 62.1608H91.2749ZM95.5242 59.9305C97.3191 59.8981 97.8164 60.9602 97.8164 62.9654C97.8164 64.9382 97.2321 65.9993 95.5242 65.9993C93.7292 66.0317 93.2319 64.9697 93.2319 62.9654C93.2319 60.9926 93.8153 59.9305 95.5242 59.9305ZM95.5242 64.9913C96.1286 64.9913 96.3236 64.4018 96.3236 62.9654C96.3236 61.5281 96.1295 60.9386 95.5242 60.9386C94.7888 60.9386 94.7238 61.7855 94.7238 62.9654C94.7238 64.1444 94.7879 64.9913 95.5242 64.9913ZM98.5618 60.0808H99.9886V60.6704H100.011C100.389 60.1447 100.853 59.9305 101.48 59.9305C102.162 59.9305 102.659 60.2635 102.821 60.8531H102.842C103.07 60.241 103.611 59.9305 104.313 59.9305C105.297 59.9305 105.762 60.5417 105.762 61.6568V65.849H104.27V61.817C104.27 61.3355 104.108 61.0673 103.686 61.0673C103.209 61.0673 102.907 61.3886 102.907 62.0537V65.849H101.415V61.817C101.415 61.3355 101.253 61.0673 100.832 61.0673C100.356 61.0673 100.054 61.3886 100.054 62.0537V65.849H98.56V60.0808H98.5618Z" fill="#FFFDF6"/>
</svg>
