<svg width="130" height="96" viewBox="0 0 130 96" fill="none" xmlns="http://www.w3.org/2000/svg">
<path d="M48.5177 72.5584C48.2855 72.6032 46.4284 72.9397 44.4784 72.9958C41.0078 73.0855 37.9784 71.7509 37.9552 69.3285C37.9087 65.1341 42.2962 62.8351 45.5346 62.1959C46.9855 61.9155 49.7828 61.5903 52.5686 62.2519L50.9552 65.9977C50.4909 64.9771 49.2953 64.9547 48.8078 64.9435C47.6239 64.9211 46.6489 65.2239 45.9293 65.5379C44.2927 66.2668 42.865 68.5883 45.1864 69.4855C46.4632 69.979 48.1114 69.5864 49.8061 69.3285L48.5177 72.5584Z" fill="#FFFDF6"/>
<path d="M116.187 62.0949L113.401 69.4182C113.436 68.678 113.587 65.7734 113.68 64.0911C113.715 63.3958 113.564 62.8687 113.227 62.5211C112.81 62.0949 112.264 62.0949 112.252 62.0949H106.043L101.98 72.7602H106.495L109.374 65.2126L109.037 72.7602H116.605L120.668 62.0949H116.187Z" fill="#FFFDF6"/>
<path d="M90.4081 62.0949H85.2081L81.1456 72.7602H91.592L92.9385 69.2163H87.7036L90.4081 62.0949Z" fill="#FFFDF6"/>
<path d="M71.1635 62.0949L67.1009 72.7602H78.3715L79.4626 69.8892H73.2411L73.6938 68.7005H79.509L80.5072 66.0762H74.692L75.1447 64.8874H81.2385L82.3063 62.0949H71.1635Z" fill="#FFFDF6"/>
<path d="M63.0617 62.0949L61.5876 65.9416H58.8947L60.3572 62.0949H55.2617L51.2108 72.7602H56.2947L57.676 69.1491H60.3804L58.9876 72.7602H64.0831L68.1456 62.0949H63.0617Z" fill="#FFFDF6"/>
<path d="M32.8019 62.0949L28.7277 72.7602H34.0786L38.1411 62.0949H32.8019Z" fill="#FFFDF6"/>
<path d="M25.7215 72.7602L29.784 62.0949H22.2277L18.3277 67.8257C18.3277 67.8257 18.5715 64.8313 18.6411 64.1024C18.6876 63.5529 18.6179 62.0949 17.2367 62.0949H11.0269L6.96436 72.7602H11.8161L14.7644 65.0444L14.1492 72.7602H18.4554L23.7367 65.179L20.8581 72.7602H25.7215Z" fill="#FFFDF6"/>
<path d="M97.6858 62.0949L93.6117 72.7602H98.9626L103.025 62.0949H97.6858Z" fill="#FFFDF6"/>
<path fill-rule="evenodd" clip-rule="evenodd" d="M99.1367 32.1177L99.125 32.0952C98.9045 31.4784 98.3009 30.6934 97.3027 30.4803C96.9429 29.7625 96.2001 29.314 95.3411 29.314C95.1438 29.314 94.9813 29.3364 94.8768 29.3588C94.8188 29.37 94.6099 29.4149 92.9617 29.7962L90.5358 30.3569C90.7447 29.7625 90.7215 29.1569 90.4545 28.6298C90.1179 27.9682 89.4447 27.5532 88.7367 27.5532C88.4813 27.5532 88.2492 27.6093 88.017 27.7102L87.9914 27.7226C87.8976 27.7679 87.6894 27.8683 83.409 30.5588C83.3509 30.5924 83.3045 30.6261 83.2465 30.671C81.1456 32.4429 80.3795 33.4747 80.2054 33.7438L80.1722 33.7956C80.0748 33.9469 79.922 34.1843 79.7876 34.484C79.7295 34.456 79.6744 34.4307 79.6192 34.4055C79.5641 34.3802 79.509 34.355 79.4509 34.327C78.5804 33.9569 77.6751 33.7662 76.7697 33.7662C75.1099 33.7662 73.9376 34.3831 73.6358 34.5737C73.4733 34.6634 72.8581 35.0223 71.9179 35.7176C71.5465 35.998 71.1983 36.3232 70.9081 36.6933C70.2813 36.8279 69.7706 36.9961 69.3875 37.1868C68.9117 37.4223 68.4242 37.7924 67.9134 38.1849L67.8786 38.2073C67.8322 38.241 67.7887 38.2746 67.7451 38.3083C67.7016 38.3419 67.6581 38.3755 67.6117 38.4092C67.3911 38.5774 66.834 39.026 66.2884 39.755L66.2304 39.7662C66.1608 39.7774 65.4643 39.9344 64.6054 40.3269C64.3965 40.4279 64.176 40.54 63.967 40.6634C63.4795 40.6746 62.7018 40.7643 61.7036 41.0447L61.6572 41.0335C61.6523 41.0328 61.6449 41.0316 61.6352 41.03L61.6069 41.0253C61.4082 40.992 60.7183 40.8765 59.8813 40.8765C59.4867 40.8765 59.1036 40.8989 58.7554 40.955L58.6951 40.964C58.4135 41.0062 57.6844 41.1153 57.084 41.2914C56.7706 41.3811 55.9581 41.6391 55.0527 42.211C53.0795 41.7736 51.0715 41.6278 49.8295 41.5718C51.0134 40.0353 51.6054 38.241 51.4081 36.7045C51.0367 33.8223 49.017 32.1177 48.2974 31.6018C47.0322 26.5551 43.4108 24.4131 40.4045 24.0766C39.8126 23.4149 38.6751 23 37.4099 23C36.8992 23 36.3885 23.0673 35.901 23.1907C34.2992 23.6168 33.034 24.8056 32.7786 26.0841C31.1768 27.3738 28.6813 30.256 29.3661 35.4373C28.7626 36.2223 27.6018 38.2298 28.3911 41.2578C28.9367 43.3325 30.2715 44.8353 32.2679 45.6203C30.7126 46.3381 29.3545 47.2241 28.217 48.2446C28.1934 48.2675 28.1697 48.289 28.1465 48.3102C28.1014 48.3513 28.058 48.3909 28.0197 48.4353C25.3268 48.581 22.8893 49.6577 20.9393 51.5642C18.8849 53.5829 17.8518 56.0165 17.3411 57.6987L17.3179 57.766H61.8777C62.1679 57.7211 62.7715 57.5641 63.3402 57.3398C64.1063 57.0483 64.6751 56.7118 65.0929 56.3193C66.0099 56.1959 66.7063 55.9716 67.1706 55.8146C67.1706 55.8146 67.3099 55.7698 67.3563 55.7585C68.1572 55.5006 70.0027 54.5698 70.6876 53.2801C72.0572 52.7754 73.0786 52.1025 73.7054 51.2838C74.8906 51.0837 75.8135 50.586 76.3156 50.3152L76.3286 50.3081C77.5242 49.6577 78.3599 49.0184 78.8938 48.3568C79.3349 47.8072 79.6018 47.3923 79.8108 46.9325C80.217 46.7306 80.6697 46.4614 81.2733 46.0689C83.3625 44.7119 83.8036 42.2559 83.8501 41.9755C83.8617 41.9194 83.8733 41.8521 83.8733 41.7961C83.9777 41.8073 84.0822 41.8073 84.1867 41.8073C86.2845 41.8073 89.0073 40.5437 90.4829 39.8589L90.4893 39.8559L90.5126 39.8447C90.6137 39.8007 90.706 39.7567 90.7867 39.7183C90.891 39.6686 90.976 39.6281 91.0349 39.6092C91.5224 39.4073 92.5322 38.8914 93.5768 38.2073C94.9001 37.355 95.8054 36.5475 96.2813 35.8298C96.3626 35.7064 96.4206 35.5831 96.467 35.4597L97.3259 34.9438C97.5697 34.798 97.7786 34.5737 97.9179 34.3046C98.15 34.1812 98.3474 34.069 98.417 34.0242C99.1018 33.5644 99.3804 32.8354 99.1367 32.1177ZM26.5105 53.3473C27.1373 51.8558 28.0891 50.5324 29.3542 49.3997C30.4801 48.3904 31.8498 47.538 33.44 46.8539C33.5908 46.7979 33.9507 46.7082 34.4033 46.7306C34.635 46.7453 34.9263 46.7851 35.2382 46.8279C35.8796 46.9157 36.6082 47.0155 37.0846 46.9324C37.2355 46.91 37.4212 46.7194 37.0266 46.6072C36.9105 46.5736 35.9239 46.1698 36.0516 45.6988V45.6764C36.0864 45.553 36.2721 45.396 36.5275 45.3736C37.3144 45.3023 37.8697 45.2198 38.2344 45.1657C38.3861 45.1432 38.5049 45.1255 38.5935 45.1156C38.7792 45.0932 38.9185 45.0484 38.9533 44.9699C38.9766 44.9026 38.9301 44.8577 38.7328 44.8689C36.8525 44.9811 34.4382 44.5885 33.3703 44.2857C31.5944 43.7474 30.4685 42.5923 30.0158 40.854C29.4819 38.8353 30.0275 37.2316 30.7239 36.3569C31.0837 35.9419 31.6873 35.4036 31.8614 35.2578C32.2716 34.9387 32.0867 34.9614 31.6932 35.0097C31.6303 35.0174 31.562 35.0258 31.49 35.0335C31.1069 35.0784 31.0025 34.9214 30.9792 34.7756C30.956 34.641 30.9328 34.226 30.9212 34.013C30.8748 32.4653 31.1533 31.0747 31.7569 29.8522C32.4069 28.5401 33.3355 27.6654 34.0319 27.1383C34.3221 26.9364 34.7516 26.6448 35.065 26.4878C35.5525 26.2411 35.2855 26.0728 34.6703 26.2074C34.6703 26.2074 34.473 26.2523 34.531 26.0953C34.5368 26.0841 34.5426 26.07 34.5484 26.056C34.5542 26.042 34.56 26.028 34.5658 26.0168C34.6123 25.9271 34.6703 25.8373 34.7283 25.7476C35.0766 25.3215 35.6569 24.9065 36.3533 24.7159C37.6533 24.3682 38.8953 24.7271 39.1739 25.1196C39.1971 25.1869 39.1971 25.2429 39.1042 25.2766C38.8721 25.3663 38.7096 25.5233 39.0926 25.5682C39.1217 25.5717 39.1782 25.573 39.2589 25.5749C39.4355 25.579 39.728 25.5858 40.1025 25.6243C40.1141 25.6243 40.1257 25.6271 40.1373 25.6299C40.1489 25.6327 40.1605 25.6355 40.1721 25.6355C42.5051 25.871 45.3257 27.4971 46.5212 31.3326C46.5386 31.3943 46.556 31.4588 46.5734 31.5233C46.5908 31.5877 46.6083 31.6522 46.6257 31.7139C46.6605 31.8485 46.6953 31.9943 46.7185 32.1401C46.44 32.1961 46.3471 32.3756 46.6257 32.4765C46.7998 32.5326 47.0087 32.656 47.1712 32.7681C47.1712 32.7681 47.1828 32.7681 47.1828 32.7793C47.206 32.8018 47.2408 32.8242 47.2641 32.8354L47.2796 32.8465L47.3011 32.8617C47.3576 32.9016 47.4458 32.9638 47.5194 33.026C48.5292 33.8223 49.5391 35.1681 49.7596 36.884C49.9453 38.3531 49.1096 39.9568 48.1114 41.0559C47.7167 41.4596 47.0319 42.0876 45.8364 42.7942C45.5694 42.9512 45.8132 43.153 47.148 42.6932C47.1702 42.6889 47.1949 42.6826 47.2212 42.6759C47.3325 42.6474 47.472 42.6116 47.5658 42.6932C47.6935 42.8166 47.7283 43.3661 47.2525 43.8932C46.7882 44.4091 47.473 44.2297 48.2739 43.5568C48.4248 43.4222 48.5408 43.2876 48.6105 43.1306C49.3069 43.1306 51.4542 43.1643 53.706 43.5568C53.2417 44.039 52.8471 44.5773 52.5337 45.1605C51.5355 47.0334 51.2453 49.0184 51.6748 51.0707C51.9417 52.3268 52.7426 54.1436 53.7757 55.1641C54.4837 55.8707 55.5516 56.9249 57.5944 57.4856C58.2096 57.6538 58.8944 57.7436 59.6257 57.7436H25.6748C25.6516 57.0931 25.6632 55.3548 26.5105 53.3473ZM61.5393 56.1671L61.5896 56.1572L61.6224 56.151C61.7269 56.1398 62.0054 56.0725 62.3537 55.9492C61.8894 55.837 61.4251 55.68 60.9724 55.4669C60.0322 55.0408 59.1617 54.4127 58.4536 53.6726C57.7224 52.8987 57.142 51.9118 56.7822 50.824C56.4224 49.7362 56.2947 48.581 56.3992 47.4595C56.5036 46.3381 56.9099 45.239 57.5599 44.2633C58.0126 43.6016 58.5697 42.996 59.2081 42.5026C59.1501 42.5026 59.0804 42.5138 59.0108 42.525C59.0108 42.525 58.1751 42.6372 57.5599 42.8054C56.9563 42.9736 54.9135 43.7362 53.8108 45.7885C52.7081 47.8408 52.8358 49.624 53.0795 50.7903C53.3233 51.9455 54.0661 53.4483 54.809 54.1884C55.5519 54.9286 56.376 55.7024 58.001 56.151C58.5581 56.308 59.1501 56.3641 59.6724 56.3641C60.5397 56.3641 61.26 56.2221 61.5393 56.1671ZM66.8456 54.2109C66.7875 54.2296 66.7247 54.2505 66.6573 54.273C66.0786 54.4657 65.1602 54.7716 63.9438 54.7716H63.8162C62.3885 54.7492 60.7287 54.0314 59.5099 52.753C58.2911 51.4745 57.6295 49.5119 57.8153 47.6053C58.001 45.6988 59.1965 44.0951 60.6358 43.2203C60.9724 43.0185 61.3206 42.8615 61.6572 42.7493C61.8081 42.7045 61.9474 42.6596 62.0867 42.6147C62.0635 42.6483 62.0402 42.6821 62.0054 42.7269C60.5313 44.8353 60.6358 47.5268 61.3554 49.1306C61.7269 49.9605 62.1563 50.6558 62.6786 51.2614C63.3519 52.0576 64.176 52.6632 65.1045 53.0558C65.9635 53.4258 66.8688 53.6165 67.7974 53.6165C67.8903 53.6165 67.9947 53.6165 68.0876 53.6053C67.6465 53.8632 67.1822 54.0987 66.8456 54.2109ZM67.797 52.2147C68.5514 52.2147 69.2247 52.0576 69.7818 51.867C70.3506 51.6763 71.0122 51.4072 71.5693 51.0483C70.78 50.9249 70.0139 50.6782 69.3059 50.3193C68.0988 49.7025 67.1006 48.7941 66.3345 47.6278L66.3113 47.5829C64.7907 45.1044 64.9997 43.0185 65.4756 41.6839C64.7559 41.9979 63.8157 42.5587 63.1773 43.4783C61.9934 45.1829 62.1211 47.3586 62.655 48.5586C63.2006 49.7586 64.0711 51.082 65.6729 51.7773C66.4273 52.0913 67.1354 52.2147 67.797 52.2147ZM75.5161 48.8726C74.8661 49.2315 73.9608 49.7025 72.8233 49.7249H72.6724C70.9661 49.7249 68.9117 48.9399 67.5536 46.8652C65.1625 42.9624 67.7742 40.2933 68.6331 39.654C68.7269 39.5835 68.8204 39.5126 68.9129 39.4425C69.3352 39.1222 69.737 38.8175 70.0608 38.6335C69.875 39.1494 69.7938 39.5419 69.7706 39.6765C69.5965 40.6634 69.7474 41.9194 70.2 43.0521C70.792 44.5437 71.825 45.7437 73.1947 46.5287C74.309 47.168 75.4581 47.482 76.6188 47.482C76.9322 47.482 77.234 47.4595 77.5009 47.4147C76.9554 48.0427 76.0617 48.5698 75.5161 48.8726ZM97.1751 33.1046C97.3492 33.0148 97.5349 32.9139 97.6742 32.8242C97.7902 32.7569 97.8483 32.6672 97.8018 32.5326C97.6858 32.2298 97.3376 31.7588 96.7456 31.7588C96.6411 31.7588 96.5251 31.7812 96.3974 31.8149L96.3277 31.8373C95.9215 31.9719 95.7009 32.0279 95.5849 32.0504L89.7929 33.7214C89.7349 33.7438 89.6884 33.7438 89.642 33.7326C89.5375 33.7102 89.4447 33.6429 89.4099 33.5307C89.3518 33.3737 89.4447 33.2055 89.6072 33.1606L96.1304 31.3102C96.1304 31.3055 96.1284 31.3009 96.1261 31.2955C96.1228 31.2878 96.1188 31.2785 96.1188 31.2653C95.9911 30.7719 95.5965 30.6822 95.3527 30.6822C95.2715 30.6822 95.2134 30.6822 95.1786 30.6934C95.0393 30.727 87.9474 32.3756 86.984 32.5775L86.9405 32.5886C86.6923 32.6519 85.8679 32.8621 85.3474 33.0821C85.1733 33.1494 85.1617 32.9812 85.3126 32.869C85.4402 32.7681 86.2992 32.2859 86.9376 32.0616C87.0652 32.0167 87.2626 31.8821 87.3902 31.7924L87.4353 31.7584C87.9032 31.4059 88.4745 30.9754 88.9804 30.3345C89.6188 29.527 89.1081 28.9102 88.7367 28.9102C88.6902 28.9102 88.6554 28.9214 88.6206 28.9326C88.4233 29.0336 84.1751 31.6915 84.1751 31.6915C83.4206 32.3307 82.8518 32.8578 82.434 33.284C82.0858 33.6204 81.8072 33.9457 81.575 34.2373C81.4822 34.3494 81.4242 34.4279 81.4009 34.4616C81.0063 35.0111 80.8206 35.4036 80.8206 35.4036C80.7626 35.5494 80.6929 35.7737 80.6929 35.7737C80.6929 35.7737 79.1608 36.6372 78.8358 36.8055C78.4533 36.9999 78.2493 37.2357 78.1071 37.3999C78.0033 37.5198 77.9324 37.6017 77.8492 37.6017C77.5822 37.6129 77.9768 36.6597 78.2554 36.2559C78.3599 36.0989 78.5456 35.9419 78.7661 35.7961C78.0349 35.4933 77.3617 35.3812 76.7697 35.3812C75.4001 35.3812 74.4831 35.9643 74.4831 35.9643C74.4831 35.9643 73.9027 36.2784 72.9277 37.0073C71.4652 38.0952 71.1867 39.9344 71.1867 39.9344C70.9545 41.1792 71.442 43.9605 73.926 45.3736C74.9474 45.9568 75.8643 46.1362 76.6188 46.1362C77.6049 46.1362 78.3077 45.8234 78.5856 45.6997C78.6054 45.6909 78.623 45.6831 78.6384 45.6764C79.0099 45.5194 79.4045 45.3287 80.3563 44.7119C81.9 43.7138 82.2134 41.7176 82.2134 41.7176L81.6679 42.054C81.6679 42.054 80.2518 42.9175 79.4858 42.8166C78.7893 42.7157 77.9304 41.6727 78.2902 41.6839C78.3231 41.6839 78.3905 41.7046 78.4829 41.733C78.8151 41.8349 79.4697 42.0359 79.9965 41.7288C80.2516 41.5719 81.2254 41.0007 81.8754 40.6194L81.8768 40.6185C81.6911 39.8671 81.9117 39.4522 82.5036 40.0353C82.9215 40.4391 84.2911 40.4166 84.5929 40.4054H84.6626C84.8947 40.3942 85.1268 40.3606 85.3474 40.3045C86.9572 39.9687 88.8409 39.0966 89.8795 38.6158C90.1589 38.4864 90.3772 38.3854 90.5126 38.3307C91.3483 37.983 94.2733 36.3569 95.1206 35.0672C95.1841 34.975 95.1317 34.8829 95.1132 34.8505L95.109 34.8429C95.0509 34.7756 94.842 34.5513 94.4938 34.5176C94.134 34.484 93.7161 34.6746 93.2867 35.0672C91.856 36.3745 90.33 36.8217 90.1362 36.8785L90.1179 36.884C90.0831 36.8952 90.0599 36.8952 90.0367 36.8952C89.909 36.8952 89.7813 36.8167 89.7465 36.6821C89.7001 36.5251 89.7929 36.3681 89.9554 36.3232C89.9902 36.3232 91.4876 35.9083 92.8688 34.6522C93.4259 34.1251 93.9947 33.8896 94.5402 33.9345C95.0393 33.9793 95.3643 34.2373 95.5152 34.4055C95.8286 34.226 96.5831 33.7774 96.5947 33.7662L96.597 33.7642C96.6209 33.7428 96.7839 33.5973 96.5947 33.3176C96.4438 33.1046 96.2697 32.9812 96.0608 32.9363C95.6197 32.8354 94.9581 33.0597 94.0759 33.6092C92.4509 34.6073 90.0715 35.1569 89.967 35.1793C89.9438 35.1905 89.9206 35.1905 89.8974 35.1905C89.7697 35.1905 89.642 35.1008 89.6072 34.9662C89.5608 34.798 89.6652 34.641 89.8277 34.6073C89.8298 34.6064 89.8503 34.6012 89.8871 34.592C90.2645 34.4973 92.3547 33.9732 93.7509 33.1046C94.7956 32.4429 95.5849 32.1962 96.2001 32.3419C96.5947 32.4429 96.9197 32.6784 97.1634 33.0821C97.1634 33.0821 97.1751 33.0933 97.1751 33.1046ZM42.0298 31.2205C42.0298 31.6018 42.0878 32.0055 42.1923 32.3756C42.3083 32.7457 42.4592 33.1158 42.6914 33.4298C42.8887 33.699 43.1324 33.9681 43.469 34.069C43.469 34.069 43.4807 34.069 43.5039 34.0803C43.5155 34.0803 43.5271 34.0803 43.5271 34.0915C43.6083 34.1139 43.6896 34.1139 43.7708 34.1139C43.8985 34.1139 44.0378 34.0915 44.2003 34.0578L44.2228 34.0532C44.3788 34.021 44.5438 33.9869 44.6878 33.912C44.8735 33.8223 44.978 33.5868 45.036 33.4074C45.1173 33.2055 45.1521 32.9924 45.1637 32.7793C45.1869 32.398 45.1289 32.0279 45.0128 31.6579C45.0128 31.6635 45.0157 31.6719 45.0186 31.6803C45.0215 31.6887 45.0244 31.6971 45.0244 31.7027C45.2449 32.6672 44.9432 33.542 44.3628 33.6765C43.7708 33.8111 43.1208 33.1382 42.9003 32.1737C42.8423 31.9158 42.819 31.6579 42.8307 31.4336C42.9583 31.6018 43.144 31.6915 43.3181 31.6466C43.5619 31.5794 43.6896 31.2878 43.6083 30.985C43.5387 30.7158 43.3181 30.5364 43.1092 30.5364C43.2369 30.3682 43.3878 30.256 43.5735 30.2111C43.9565 30.1214 44.3628 30.3794 44.6646 30.828C44.5949 30.6934 44.5021 30.57 44.4092 30.4467C44.1771 30.1439 43.8637 29.8635 43.4806 29.785L43.4546 29.7807C43.3961 29.7711 43.3441 29.7626 43.2833 29.7626C42.9351 29.7626 42.5869 29.9196 42.378 30.1663C42.0994 30.4579 42.0298 30.8616 42.0298 31.2205ZM41.8092 32.3868C41.6932 31.9719 41.5423 31.3326 41.5887 30.727C41.6351 29.8523 42.0994 29.3588 42.6565 29.1906C43.3414 28.9775 44.061 29.314 44.4789 29.8186C44.711 30.099 44.9548 30.5139 45.1289 30.9401C45.1985 31.0859 45.2565 31.2317 45.3146 31.3999C45.4887 31.8822 45.5583 32.3532 45.5351 32.8018C45.5235 33.0709 45.4655 33.3177 45.3842 33.542C45.2914 33.7887 45.1405 34.0915 44.8619 34.2373C44.6646 34.3382 44.4673 34.3831 44.2932 34.4167H44.2815C44.119 34.4504 43.9565 34.484 43.7708 34.484C43.6664 34.484 43.5619 34.4728 43.4574 34.4504C43.4516 34.4504 43.4429 34.4476 43.4342 34.4447C43.4255 34.4419 43.4168 34.4391 43.411 34.4391H43.3994C43.3944 34.4391 43.3916 34.4391 43.3891 34.4383C43.3857 34.4371 43.3828 34.4343 43.3762 34.4279H43.3646C42.9119 34.2821 42.6217 33.9569 42.3896 33.6541C42.1923 33.3962 42.0646 33.1046 41.9601 32.8466C41.9601 32.8466 41.9369 32.7906 41.9021 32.6896C41.8987 32.68 41.8954 32.6705 41.8921 32.6613C41.8895 32.6539 41.8869 32.6467 41.8843 32.6395C41.8676 32.5934 41.8527 32.5518 41.844 32.5102V32.4878C41.8208 32.4429 41.8092 32.4205 41.8092 32.3868ZM36.7717 34.3494C37.0155 34.798 37.3173 35.1345 37.6307 35.3139C37.7815 35.4036 37.9557 35.4485 38.1414 35.4485C38.2923 35.4485 38.4664 35.426 38.6753 35.3588H38.6869C38.7798 35.3363 39.0351 35.269 39.186 35.2017C39.453 35.0896 39.6735 34.7307 39.778 34.2485C39.8128 34.069 39.836 33.8784 39.836 33.6877C39.7664 34.2821 39.4646 34.7532 39.0235 34.8541C38.3619 34.9999 37.6306 34.327 37.3869 33.3401C37.3173 33.0709 37.294 32.813 37.3173 32.5663C37.4449 32.7121 37.6307 32.7906 37.7932 32.7457C38.0369 32.6784 38.1762 32.3756 38.0833 32.0728C38.0137 31.8261 37.8164 31.6579 37.619 31.6354C37.7583 31.456 37.9324 31.3214 38.1414 31.2766C38.6173 31.1644 39.1396 31.5009 39.4762 32.0728C39.4704 32.056 39.4646 32.042 39.4588 32.028C39.453 32.014 39.4472 31.9999 39.4414 31.9831C39.1164 31.3438 38.536 30.6934 37.4565 30.9738C36.0289 31.3438 36.3539 33.1494 36.5048 33.7102C36.5744 33.9233 36.6673 34.1363 36.7717 34.3494ZM36.4119 34.5289C36.1681 34.0915 36.0289 33.6429 35.9592 33.1494C35.8896 32.6784 35.8664 32.185 35.9476 31.7139C36.0289 31.2541 36.2494 30.828 36.644 30.5476C36.969 30.3233 37.3869 30.1775 37.8048 30.1775C37.9092 30.1775 38.0253 30.1887 38.1298 30.2111C39.1628 30.413 39.6503 31.2317 40.0565 32.3756C40.5092 33.6317 40.1958 35.2017 39.3601 35.5494C39.1512 35.6391 38.803 35.7176 38.803 35.7176C38.5824 35.7737 38.3735 35.8186 38.153 35.8186C37.9092 35.8186 37.6655 35.7625 37.4333 35.6279C36.9923 35.4036 36.644 34.9662 36.4119 34.5289ZM44.6994 37.5905C43.3878 38.2746 41.9137 38.6447 40.4396 38.8354C40.8342 39.0148 41.2405 39.1606 41.6815 39.1942C42.0762 39.2279 42.4824 39.1606 42.8655 39.0484C43.2601 38.9363 43.6315 38.7681 43.9449 38.5101C44.2699 38.2522 44.5021 37.927 44.6994 37.5905ZM46.661 36.3681C46.5826 36.3789 46.5474 36.2853 46.5033 36.1678L46.4985 36.155C46.3322 36.3668 46.0479 36.6498 45.8505 36.8463C45.7448 36.9516 45.6639 37.0321 45.6396 37.0634C45.5235 37.2092 45.419 37.3774 45.3262 37.5456C45.2943 37.6006 45.263 37.6555 45.2317 37.7103C45.1032 37.935 44.9764 38.1569 44.8271 38.3643C44.5717 38.712 44.2351 39.0148 43.8521 39.2391C43.1208 39.6653 42.2039 39.8671 41.3682 39.7325C40.9271 39.6653 40.5092 39.497 40.103 39.3176C40.057 39.2954 40.0106 39.2723 39.9637 39.249C39.679 39.1073 39.3772 38.9571 39.0583 38.9475C38.6521 38.9587 38.2226 38.9699 37.8164 38.9139C37.6771 38.9026 37.5494 38.8466 37.503 38.7008C37.4449 38.5101 37.5726 38.3195 37.7815 38.3083C37.8423 38.3083 37.8943 38.3168 37.9528 38.3264L37.9789 38.3307C38.1065 38.3419 38.2458 38.3531 38.3735 38.3531C39.8476 38.398 41.3565 38.1737 42.761 37.7475C43.6315 37.4896 44.4673 37.1307 45.2217 36.626C45.5235 36.413 45.8253 36.1887 46.069 35.9195C46.1039 35.8746 46.1387 35.8298 46.1851 35.7849C46.1774 35.7812 46.1684 35.7762 46.1593 35.7712C46.1413 35.7612 46.1232 35.7513 46.1155 35.7513C46.0458 35.7288 46.0342 35.5943 46.1735 35.5606C46.3128 35.527 46.5101 35.5943 46.5798 35.6728C46.6494 35.7513 46.7307 35.8634 46.7423 36.0204C46.7771 36.155 46.7539 36.3457 46.661 36.3681ZM37.7467 38.0615C37.3637 38.3195 37.2708 38.5101 37.2128 38.6335C37.1548 38.7569 37.1664 38.8802 37.1896 38.9475C37.2128 39.0148 37.1896 39.0709 37.1315 39.0933H37.1199C37.0619 39.1157 37.0155 39.1045 36.9807 39.0933C36.9458 39.0821 36.9226 39.0484 36.911 39.0148C36.8065 38.7793 36.911 38.2634 37.1896 38.0167C37.294 37.927 37.4449 37.826 37.561 37.7699C37.6074 37.7475 37.7467 37.7027 37.8164 37.7924C37.8976 37.9157 37.8164 38.0167 37.7467 38.0615ZM19.059 57.7436H24.259C24.2242 56.9024 24.2706 55.0071 25.1992 52.8427C25.5938 51.9006 26.1046 51.0147 26.7313 50.196C24.9903 50.5436 23.4465 51.3735 22.1233 52.6745C20.8001 53.9754 19.7206 55.7697 19.059 57.7436Z" fill="#FFFDF6"/>
<path d="M123.036 55.8707H13.3947L12.3849 58.5398H122.014L123.036 55.8707Z" fill="#FFFDF6"/>
</svg>
