<svg width="130" height="96" viewBox="0 0 130 96" fill="none" xmlns="http://www.w3.org/2000/svg">
<g clip-path="url(#clip0_11582_12112)">
<path d="M113.913 27.4284C114.787 25.633 115.618 23.8159 116.515 22.0205C116.75 23.8583 117.005 25.6754 117.261 27.5131C119.03 26.9147 120.759 26.2097 122.549 25.6973C121.292 27.2357 120.076 28.8179 118.861 30.3988C120.182 31.4467 121.505 32.4509 122.806 33.4976C121.035 33.6902 119.265 33.7763 117.494 33.9252C117.431 35.8066 117.303 37.7085 117.196 39.6105C116.172 38.2428 115.234 36.8327 114.253 35.4432C112.781 36.789 111.289 38.1362 109.86 39.5257C110.415 37.6019 110.969 35.6782 111.502 33.7544C109.797 33.54 108.07 33.3062 106.363 33.0712C108.026 32.1299 109.711 31.168 111.374 30.2061C110.691 28.5611 109.988 26.9365 109.327 25.2902C110.841 26.0389 112.397 26.6797 113.911 27.4284" fill="#FFFDF6"/>
<path d="M113.913 27.4284C114.787 25.633 115.618 23.8159 116.515 22.0205C116.75 23.8583 117.005 25.6754 117.261 27.5131C119.03 26.9147 120.759 26.2097 122.549 25.6973C121.292 27.2357 120.076 28.8179 118.861 30.3988C120.182 31.4467 121.505 32.4509 122.806 33.4976C121.035 33.6902 119.265 33.7763 117.494 33.9252C117.431 35.8066 117.303 37.7085 117.196 39.6105C116.172 38.2428 115.234 36.8327 114.253 35.4432C112.781 36.789 111.289 38.1362 109.86 39.5257C110.415 37.6019 110.969 35.6782 111.502 33.7544C109.797 33.54 108.07 33.3062 106.363 33.0712C108.026 32.1299 109.711 31.168 111.374 30.2061C110.691 28.5611 109.988 26.9365 109.327 25.2902C110.841 26.0389 112.397 26.6797 113.911 27.4284H113.913Z" stroke="#FFFDF6" stroke-width="0.011558" stroke-miterlimit="10"/>
<path d="M97.4696 52.1752C101.969 48.3277 106.021 43.9678 109.838 39.4602C108.111 45.4228 104.763 50.9141 100.241 55.1456C99.1737 56.0009 98.1926 57.0052 96.9983 57.732C93.0955 60.3827 88.4891 62.092 83.7542 62.1343L83.8607 62.0496C87.5927 59.869 91.1756 57.4547 94.5236 54.718C95.5047 53.8845 96.5501 53.0935 97.467 52.1752" fill="#FFFDF6"/>
<path d="M97.4696 52.1752C101.969 48.3277 106.021 43.9678 109.838 39.4602C108.111 45.4228 104.763 50.9141 100.241 55.1456C99.1737 56.0009 98.1926 57.0052 96.9983 57.732C93.0955 60.3827 88.4891 62.092 83.7542 62.1343L83.8607 62.0496C87.5927 59.869 91.1756 57.4547 94.5236 54.718C95.5047 53.8845 96.5501 53.0935 97.467 52.1752H97.4696Z" stroke="#FFFDF6" stroke-width="0.011558" stroke-miterlimit="10"/>
<path d="M32.5086 45.3368C35.0038 45.08 37.7122 45.2726 39.9301 46.5761C41.5726 47.5174 42.7669 49.2267 43.0225 51.1286C43.3641 53.6727 42.5756 56.3233 41.1462 58.4178C38.9926 61.559 35.2812 63.3955 31.5493 63.7152C29.0964 63.9079 26.4741 63.7152 24.2973 62.4118C22.6124 61.4293 21.4181 59.634 21.2268 57.6679C20.9494 54.8888 21.9087 52.0468 23.6578 49.8881C25.8332 47.2374 29.1388 45.6771 32.5086 45.3355V45.3368Z" stroke="#FFFDF6" stroke-width="0.011558" stroke-miterlimit="10"/>
<path d="M70.4701 48.6912C73.072 46.169 76.8039 45.1223 80.365 45.2071C82.2425 45.2507 84.2896 45.5487 85.7613 46.8098C87.233 48.0927 87.4244 50.3799 86.614 52.0686C85.8679 53.5429 84.3962 54.5048 82.9039 55.1032C79.3428 56.4491 75.4182 56.3001 71.7299 55.6375C71.5155 57.6897 72.4119 59.8908 74.2676 60.9156C77.1892 62.4772 80.6655 62.3912 83.8645 62.0496L83.7579 62.1343C80.9853 64.0363 77.446 64.5923 74.161 64.0363C72.0061 63.6947 69.8319 62.7122 68.4873 60.9374C67.3777 59.5916 66.9308 57.7963 67.0798 56.0651C67.2069 53.2861 68.4231 50.5712 70.4714 48.6912H70.4701Z" stroke="#FFFDF6" stroke-width="0.011558" stroke-miterlimit="10"/>
<path d="M118.455 45.3368C121.014 44.9734 123.744 45.0376 126.133 46.1703C128.03 47.0255 129.523 48.8209 129.865 50.8936C130.313 53.4376 129.567 56.1088 128.18 58.2676C126.196 61.3664 122.677 63.312 119.072 63.8244C116.535 64.166 113.848 64.0376 111.502 62.9267C109.689 62.0714 108.261 60.4045 107.877 58.4384C107.386 56.0228 108.004 53.5018 109.198 51.3855C111.118 48.0516 114.701 45.8929 118.453 45.3368H118.455Z" stroke="#FFFDF6" stroke-width="0.011558" stroke-miterlimit="10"/>
<path d="M8.85711 46.1484C10.8194 45.6155 12.8664 45.401 14.8929 45.4228C17.1326 45.401 19.3928 45.55 21.5901 45.9352C21.2704 46.7905 20.9506 47.624 20.6732 48.4793C17.496 48.2442 14.211 48.0298 11.0557 48.7567C10.0964 49.0135 8.85839 49.3975 8.60283 50.5302C8.56045 51.3854 9.34896 51.8773 10.0745 52.0905C12.3348 52.7108 14.7658 52.6247 16.8989 53.6303C17.9018 54.0784 18.7546 54.9543 18.9254 56.0664C19.2028 57.7975 18.7122 59.6995 17.496 61.0029C16.1104 62.4991 14.0633 63.1617 12.1216 63.5251C8.09043 64.166 3.93214 63.8244 0.00756836 62.8201C0.220748 61.9224 0.477592 61.0248 0.689488 60.1271C4.0811 60.5548 7.5562 61.089 10.9478 60.384C12.2269 60.1053 13.6768 59.4221 13.9118 57.9902C14.1673 57.0488 13.3352 56.3014 12.5248 56.0664C10.3712 55.4038 8.06731 55.5527 5.95606 54.7629C5.03913 54.42 4.14403 53.7998 3.80243 52.8597C3.16289 51.2146 3.76005 49.2703 5.04041 48.1145C6.14869 47.1539 7.47144 46.5337 8.85711 46.1484Z" fill="#FFFDF6"/>
<path d="M8.85711 46.1484C10.8194 45.6155 12.8664 45.401 14.8929 45.4228C17.1326 45.401 19.3928 45.55 21.5901 45.9352C21.2704 46.7905 20.9506 47.624 20.6732 48.4793C17.496 48.2442 14.211 48.0298 11.0557 48.7567C10.0964 49.0135 8.85839 49.3975 8.60283 50.5302C8.56045 51.3854 9.34896 51.8773 10.0745 52.0905C12.3348 52.7108 14.7658 52.6247 16.8989 53.6303C17.9018 54.0784 18.7546 54.9543 18.9254 56.0664C19.2028 57.7975 18.7122 59.6995 17.496 61.0029C16.1104 62.4991 14.0633 63.1617 12.1216 63.5251C8.09043 64.166 3.93214 63.8244 0.00756836 62.8201C0.220748 61.9224 0.477592 61.0248 0.689488 60.1271C4.0811 60.5548 7.5562 61.089 10.9478 60.384C12.2269 60.1053 13.6768 59.4221 13.9118 57.9902C14.1673 57.0488 13.3352 56.3014 12.5248 56.0664C10.3712 55.4038 8.06731 55.5527 5.95606 54.7629C5.03913 54.42 4.14403 53.7998 3.80243 52.8597C3.16289 51.2146 3.76005 49.2703 5.04041 48.1145C6.14869 47.1539 7.47144 46.5337 8.85711 46.1484Z" stroke="#FFFDF6" stroke-width="0.011558" stroke-miterlimit="10"/>
<path d="M87.9368 45.4228C89.3224 45.4228 90.7299 45.4434 92.1169 45.4228C93.8236 47.7306 95.6562 49.9535 97.5774 52.0699L97.4708 52.1765C96.5539 53.0947 95.5085 53.8858 94.5274 54.7193C92.1387 51.7707 89.9427 48.6513 87.9381 45.4241" fill="#FFFDF6"/>
<path d="M87.9368 45.4228C89.3224 45.4228 90.7299 45.4434 92.1169 45.4228C93.8236 47.7306 95.6562 49.9535 97.5774 52.0699L97.4708 52.1765C96.5539 53.0947 95.5085 53.8858 94.5274 54.7193C92.1387 51.7707 89.9427 48.6513 87.9381 45.4241L87.9368 45.4228Z" stroke="#FFFDF6" stroke-width="0.011558" stroke-miterlimit="10"/>
<path fill-rule="evenodd" clip-rule="evenodd" d="M63.7689 38.094L63.773 38.0899L63.774 38.0889L63.7738 38.0855C64.7449 38.0027 65.7166 37.9374 66.6821 37.8725C67.2002 37.8376 67.7165 37.8029 68.2299 37.7657L68.2082 37.7673L68.2248 37.7704L68.2305 37.7715L68.2362 37.7725C67.1703 43.4578 66.1031 49.1199 65.0153 54.7833L65.0153 54.7833C64.5041 57.3487 63.308 59.9585 61.1527 61.5406C58.8691 63.2728 55.8612 63.7005 53.0662 63.572L53.0661 63.572C50.5919 63.4435 47.9881 62.6098 46.3866 60.5995L46.3865 60.5994C44.7438 58.481 44.658 55.5509 45.4262 53.0713C46.2384 50.0349 48.5628 47.5114 51.4435 46.3139C54.6275 44.8667 58.1792 44.9811 61.6035 45.0914C61.8709 45.1 62.1375 45.1086 62.4031 45.1164C62.6568 43.7817 62.9179 42.447 63.1782 41.1163C63.3757 40.1071 63.5727 39.1001 63.7657 38.0972L63.7689 38.094ZM68.2234 37.7778C67.7123 37.8148 67.1984 37.8493 66.6827 37.884C65.7182 37.9489 64.7476 38.0141 63.7775 38.0967C63.5844 39.1007 63.3872 40.1086 63.1895 41.1188C62.9289 42.451 62.6675 43.7872 62.4135 45.1234L62.4068 45.1589L62.4077 45.1281C62.1406 45.1202 61.8725 45.1116 61.6036 45.1029C58.1787 44.9926 54.6296 44.8783 51.4482 46.3245L51.448 46.3245C48.5703 47.5208 46.2485 50.0416 45.4374 53.0744L45.4373 53.0746C44.6697 55.5521 44.756 58.4779 46.3956 60.5923C47.9943 62.599 50.5942 63.4321 53.0667 63.5605C55.8606 63.6889 58.8653 63.2612 61.1458 61.5313L61.1459 61.5312C63.2979 59.9515 64.493 57.3449 65.004 54.7811C66.0912 49.1201 67.158 43.4605 68.2234 37.7778ZM66.6825 37.8782C65.7171 37.9432 64.7454 38.0085 63.7743 38.0912L63.773 38.0899C63.5796 39.0956 63.382 40.1053 63.184 41.1174C62.9233 42.4497 62.6619 43.786 62.4079 45.1223C62.1408 45.1145 61.8726 45.1058 61.6037 45.0972C58.179 44.9869 54.6286 44.8725 51.4458 46.3192C48.5666 47.5161 46.2435 50.0383 45.4319 53.0729C44.6639 55.5514 44.7499 58.4795 46.3912 60.5958C47.9913 62.6044 50.5931 63.4378 53.0665 63.5662C55.861 63.6947 58.8673 63.267 61.1494 61.5359C63.303 59.955 64.4986 57.3468 65.0097 54.7822C66.0975 49.1188 67.1647 43.4567 68.2306 37.7715C67.717 37.8087 67.2006 37.8434 66.6825 37.8782ZM61.6834 48.1788C58.975 47.8783 56.0971 47.8577 53.6224 49.1393L53.6237 49.1381C51.768 50.0794 50.5313 51.9389 50.0407 53.9256C49.6786 55.337 49.4436 56.9397 50.1473 58.2868C50.7226 59.4619 52.0454 60.0603 53.2821 60.1669C55.0517 60.3814 57.0346 60.1027 58.3997 58.8416C59.508 57.8579 60.0422 56.3836 60.2978 54.9517C60.4956 54.0054 60.6859 53.0548 60.8766 52.1018C61.1378 50.7968 61.3999 49.4873 61.6834 48.1788Z" fill="#FFFDF6"/>
<path d="M53.6224 49.1394C56.0971 47.8577 58.975 47.8782 61.6834 48.1788C61.1929 50.4428 60.7665 52.7095 60.2978 54.9517C60.0422 56.3836 59.508 57.8579 58.3997 58.8416C57.0346 60.1027 55.0517 60.3814 53.2821 60.1669C52.0454 60.0603 50.7226 59.4619 50.1473 58.2868C49.4436 56.9397 49.6786 55.337 50.0407 53.9256C50.5313 51.9389 51.768 50.0794 53.6237 49.1381L53.6224 49.1394Z" stroke="#FFFDF6" stroke-width="0.011558" stroke-miterlimit="10"/>
<path fill-rule="evenodd" clip-rule="evenodd" d="M80.365 45.2071C76.8039 45.1223 73.072 46.169 70.4701 48.6912H70.4714C68.4231 50.5712 67.2069 53.2861 67.0798 56.0651C66.9308 57.7963 67.3777 59.5916 68.4873 60.9375C69.8319 62.7122 72.0061 63.6947 74.161 64.0363C77.446 64.5923 80.9853 64.0363 83.7579 62.1343L83.8645 62.0496C80.6655 62.3912 77.1892 62.4772 74.2676 60.9156C72.4119 59.8908 71.5155 57.6897 71.73 55.6375C75.4182 56.3001 79.3428 56.4491 82.9039 55.1032C84.3962 54.5048 85.8679 53.5429 86.614 52.0686C87.4244 50.3799 87.233 48.0927 85.7613 46.8098C84.2896 45.5487 82.2425 45.2507 80.365 45.2071ZM81.1767 48.2006C79.5342 47.7742 77.7646 48.0516 76.2505 48.7361H76.2518C74.4808 49.5477 73.1375 51.1286 72.3709 52.9034C75.0561 53.3516 77.9148 53.5661 80.559 52.6889C81.711 52.2831 82.8822 51.2352 82.6908 49.8893C82.6484 49.0353 81.9447 48.3932 81.1767 48.2006Z" fill="#FFFDF6"/>
<path d="M76.2505 48.7361C77.7646 48.0516 79.5342 47.7742 81.1767 48.2006C81.9447 48.3932 82.6484 49.0353 82.6908 49.8893C82.8822 51.2352 81.711 52.2831 80.559 52.6889C77.9148 53.5661 75.0561 53.3516 72.3708 52.9034C73.1375 51.1286 74.4808 49.5477 76.2518 48.7361H76.2505Z" stroke="#FFFDF6" stroke-width="0.011558" stroke-miterlimit="10"/>
<path fill-rule="evenodd" clip-rule="evenodd" d="M39.9301 46.5761C37.7122 45.2726 35.0038 45.08 32.5086 45.3368V45.3355C29.1388 45.6771 25.8332 47.2374 23.6578 49.8881C21.9087 52.0468 20.9494 54.8888 21.2268 57.6679C21.4181 59.634 22.6124 61.4293 24.2973 62.4118C26.4741 63.7152 29.0964 63.9079 31.5493 63.7152C35.2812 63.3955 38.9926 61.559 41.1462 58.4178C42.5756 56.3233 43.3641 53.6727 43.0225 51.1286C42.7669 49.2267 41.5726 47.5174 39.9301 46.5761ZM36.8813 49.3769C35.5598 48.2866 33.6823 48.1364 32.0616 48.5216H32.0629C28.3515 49.3769 25.9205 53.2232 26.0695 56.8999C26.1119 57.7757 26.4098 58.6528 27.0288 59.2937C27.9033 60.2119 29.2248 60.5111 30.4628 60.5111C32.723 60.5971 35.0051 59.5068 36.3907 57.7115C37.3937 56.4504 37.969 54.8695 38.1617 53.2874C38.3325 51.8979 37.969 50.3388 36.8813 49.3769Z" fill="#FFFDF6"/>
<path fill-rule="evenodd" clip-rule="evenodd" d="M126.133 46.1703C123.744 45.0376 121.014 44.9734 118.455 45.3368H118.453C114.701 45.8929 111.118 48.0516 109.198 51.3855C108.004 53.5018 107.386 56.0228 107.877 58.4384C108.261 60.4045 109.689 62.0714 111.502 62.9267C113.848 64.0376 116.535 64.166 119.072 63.8244C122.677 63.312 126.196 61.3664 128.18 58.2676C129.567 56.1088 130.313 53.4376 129.865 50.8936C129.523 48.8209 128.03 47.0255 126.133 46.1703ZM123.445 49.1843C122.143 48.2224 120.373 48.1364 118.839 48.4793V48.4805C114.935 49.3333 112.375 53.4582 112.718 57.3275C112.825 58.5873 113.654 59.7637 114.828 60.2119C116.534 60.8964 118.497 60.7898 120.182 60.1053C123.188 58.8878 125.045 55.6169 125.002 52.4321C124.98 51.1928 124.468 49.9317 123.445 49.1843Z" fill="#FFFDF6"/>
<path d="M118.839 48.4793C120.373 48.1364 122.143 48.2224 123.445 49.1843C124.468 49.9317 124.98 51.1928 125.002 52.4321C125.045 55.6169 123.188 58.8878 120.182 60.1053C118.497 60.7898 116.534 60.8964 114.828 60.2119C113.654 59.7637 112.825 58.5873 112.718 57.3275C112.375 53.4582 114.935 49.3333 118.839 48.4805V48.4793Z" stroke="#FFFDF6" stroke-width="0.011558" stroke-miterlimit="10"/>
<path d="M96.9995 57.732C98.1938 57.0052 99.175 56.0009 100.242 55.1456C102.866 58.0313 105.531 60.8732 108.198 63.7139C106.342 63.6715 104.466 63.7358 102.609 63.6934C102.118 63.3942 101.799 62.946 101.394 62.5607C99.8582 61.0004 98.3659 59.4195 97.0008 57.7308" fill="#FFFDF6"/>
<path d="M96.9995 57.732C98.1938 57.0052 99.175 56.0009 100.242 55.1456C102.866 58.0313 105.531 60.8732 108.198 63.7139C106.342 63.6715 104.466 63.7358 102.609 63.6934C102.118 63.3942 101.799 62.946 101.394 62.5607C99.8582 61.0004 98.3659 59.4195 97.0008 57.7308L96.9995 57.732Z" stroke="#FFFDF6" stroke-width="0.011558" stroke-miterlimit="10"/>
</g>
<defs>
<clipPath id="clip0_11582_12112">
<rect width="130" height="42.2469" fill="white" transform="translate(0 22)"/>
</clipPath>
</defs>
</svg>
