<svg width="130" height="40" viewBox="0 0 130 40" fill="none" xmlns="http://www.w3.org/2000/svg">
<g clip-path="url(#clip0_11061_11932)">
<path d="M47.327 15.7551V18.1397H42.1513V31.5448H39.3053V18.1397H34.1526V15.7551H47.327ZM49.1976 20.1121V22.3184H49.2435C49.3238 22.0064 49.473 21.7055 49.6911 21.4158C49.9091 21.1261 50.1731 20.8475 50.4829 20.6135C50.7928 20.3684 51.137 20.1789 51.5158 20.0229C51.8945 19.8781 52.2846 19.8001 52.6748 19.8001C52.9732 19.8001 53.1912 19.8112 53.306 19.8223C53.4208 19.8335 53.5355 19.8558 53.6618 19.8669V22.2961C53.4781 22.2627 53.2945 22.2404 53.0994 22.2181C52.9044 22.1958 52.7207 22.1847 52.5371 22.1847C52.101 22.1847 51.6879 22.2738 51.2977 22.441C50.9075 22.6081 50.5747 22.8644 50.2878 23.1875C50.0009 23.5218 49.7714 23.923 49.5993 24.4133C49.4271 24.9036 49.3468 25.4607 49.3468 26.0959V31.5337H46.7532V20.1121H49.1976ZM65.5853 31.5448H63.0376V29.9514H62.9917C62.6704 30.5308 62.1999 30.9877 61.5687 31.3331C60.9375 31.6786 60.2949 31.8569 59.6408 31.8569C58.0915 31.8569 56.9669 31.4891 56.2783 30.7425C55.5897 29.996 55.2455 28.8705 55.2455 27.3662V20.1121H57.839V27.1211C57.839 28.1239 58.0341 28.8371 58.4358 29.2494C58.826 29.6617 59.3883 29.8734 60.0998 29.8734C60.6506 29.8734 61.0982 29.7954 61.4654 29.6282C61.8327 29.4611 62.131 29.2494 62.3491 28.9708C62.5786 28.7034 62.7393 28.3691 62.8426 27.9902C62.9458 27.6113 62.9917 27.1991 62.9917 26.7533V20.1232H65.5853V31.5448ZM70.0036 27.8788C70.0839 28.6142 70.3708 29.1268 70.8643 29.4277C71.3692 29.7174 71.966 29.8734 72.666 29.8734C72.907 29.8734 73.1824 29.8511 73.4923 29.8177C73.8021 29.7842 74.1005 29.7062 74.3644 29.606C74.6399 29.5057 74.8579 29.3497 75.0415 29.1491C75.2137 28.9485 75.294 28.6922 75.2825 28.3691C75.2711 28.0459 75.1448 27.7785 74.9153 27.5779C74.6858 27.3662 74.3989 27.2102 74.0431 27.0765C73.6874 26.9539 73.2857 26.8425 72.8267 26.7533C72.3676 26.6642 71.9086 26.5639 71.4381 26.4636C70.9561 26.3633 70.4856 26.2296 70.038 26.0847C69.5904 25.9399 69.1888 25.7393 68.833 25.483C68.4773 25.2379 68.1904 24.9147 67.9838 24.5247C67.7658 24.1347 67.6625 23.6556 67.6625 23.0761C67.6625 22.4521 67.8231 21.9395 68.133 21.5161C68.4428 21.0927 68.8445 20.7584 69.315 20.5021C69.797 20.2458 70.3249 20.0675 70.9102 19.9561C71.4955 19.8558 72.0578 19.8001 72.5857 19.8001C73.1939 19.8001 73.7792 19.8669 74.33 19.9895C74.8809 20.1121 75.3858 20.3126 75.8334 20.6024C76.2809 20.8809 76.6482 21.2487 76.9465 21.6944C77.2449 22.1401 77.4285 22.6861 77.5089 23.3213H74.8005C74.6743 22.7195 74.3989 22.3072 73.9513 22.1067C73.5038 21.895 72.9873 21.7947 72.4135 21.7947C72.2299 21.7947 72.0119 21.8058 71.7594 21.8392C71.5069 21.8727 71.2774 21.9284 71.0479 22.0064C70.8298 22.0844 70.6462 22.207 70.4856 22.363C70.3364 22.519 70.2561 22.7195 70.2561 22.9758C70.2561 23.2878 70.3708 23.533 70.5888 23.7224C70.8069 23.9118 71.0938 24.0679 71.4495 24.2016C71.8053 24.3241 72.207 24.4356 72.666 24.5247C73.125 24.6139 73.5956 24.7141 74.0776 24.8144C74.5481 24.9147 75.0071 25.0484 75.4661 25.1933C75.9252 25.3382 76.3268 25.5387 76.6826 25.795C77.0384 26.0513 77.3253 26.3633 77.5433 26.7422C77.7613 27.121 77.8761 27.6002 77.8761 28.1574C77.8761 28.8371 77.7154 29.4054 77.3941 29.8845C77.0728 30.3525 76.6596 30.7425 76.1547 31.0323C75.6498 31.322 75.076 31.5448 74.4563 31.6786C73.8365 31.8123 73.2169 31.8791 72.6086 31.8791C71.8627 31.8791 71.1741 31.8011 70.5429 31.634C69.9118 31.4668 69.3609 31.2217 68.9019 30.8985C68.4428 30.5643 68.0756 30.152 67.8117 29.6617C67.5477 29.1714 67.41 28.5808 67.3871 27.9011H70.0036V27.8788ZM78.5647 20.1121H80.5271V16.68H83.1206V20.1121H85.4617V21.9952H83.1206V28.1016C83.1206 28.3691 83.1321 28.5919 83.1551 28.7925C83.178 28.9819 83.2354 29.1491 83.3157 29.2828C83.396 29.4165 83.5223 29.5168 83.6944 29.5837C83.8666 29.6505 84.0846 29.684 84.383 29.684C84.5666 29.684 84.7502 29.684 84.9338 29.6728C85.1174 29.6617 85.3011 29.6394 85.4847 29.5948V31.5448C85.1978 31.5783 84.9109 31.6006 84.6469 31.634C84.3715 31.6674 84.0961 31.6786 83.8092 31.6786C83.1206 31.6786 82.5698 31.6117 82.1566 31.4891C81.7435 31.3666 81.4107 31.1771 81.1812 30.932C80.9402 30.6868 80.791 30.386 80.6992 30.0182C80.6189 29.6505 80.5615 29.2271 80.55 28.7591V22.0175H78.5876V20.1121H78.5647ZM87.2979 20.1121H89.7537V21.661H89.7997C90.1669 20.9924 90.6718 20.5244 91.326 20.2346C91.9801 19.9449 92.6801 19.8001 93.449 19.8001C94.3786 19.8001 95.1819 19.9561 95.8705 20.2792C96.559 20.5912 97.1328 21.0258 97.5919 21.5829C98.0509 22.1401 98.3837 22.7864 98.6132 23.5218C98.8427 24.2573 98.9575 25.0484 98.9575 25.8842C98.9575 26.653 98.8542 27.3996 98.6476 28.1128C98.4411 28.8371 98.1312 29.4722 97.7181 30.0294C97.305 30.5865 96.777 31.0211 96.1344 31.3554C95.4917 31.6897 94.7458 31.8569 93.8736 31.8569C93.4949 31.8569 93.1162 31.8234 92.7375 31.7566C92.3588 31.6897 91.9916 31.5783 91.6473 31.4334C91.303 31.2886 90.9702 31.0991 90.6833 30.8651C90.3849 30.6311 90.1439 30.3637 89.9374 30.0628H89.8915V35.7681H87.2979V20.1121ZM96.3639 25.8396C96.3639 25.327 96.2951 24.8256 96.1574 24.3353C96.0196 23.845 95.8131 23.4216 95.5377 23.0427C95.2622 22.6638 94.9179 22.363 94.5163 22.1401C94.1031 21.9172 93.6326 21.7947 93.1047 21.7947C92.0145 21.7947 91.1882 22.1624 90.6374 22.8978C90.0865 23.6333 89.8111 24.6139 89.8111 25.8396C89.8111 26.419 89.88 26.9539 90.0292 27.4442C90.1784 27.9345 90.3849 28.3579 90.6833 28.7145C90.9702 29.0711 91.3145 29.3497 91.7161 29.5502C92.1178 29.762 92.5883 29.8622 93.1162 29.8622C93.713 29.8622 94.2064 29.7397 94.6196 29.5057C95.0327 29.2717 95.3655 28.9597 95.6294 28.5919C95.8934 28.2131 96.0885 27.7896 96.2032 27.3105C96.3065 26.8313 96.3639 26.341 96.3639 25.8396ZM100.943 15.7551H103.536V18.1397H100.943V15.7551ZM100.943 20.1121H103.536V31.5448H100.943V20.1121ZM105.855 15.7551H108.448V31.5448H105.855V15.7551ZM116.401 31.8569C115.46 31.8569 114.622 31.7008 113.888 31.4C113.153 31.0991 112.534 30.6757 112.017 30.152C111.512 29.6171 111.122 28.9819 110.858 28.2465C110.594 27.5111 110.456 26.6976 110.456 25.8173C110.456 24.9482 110.594 24.1459 110.858 23.4104C111.122 22.675 111.512 22.0398 112.017 21.5049C112.522 20.9701 113.153 20.5578 113.888 20.2569C114.622 19.9561 115.46 19.8001 116.401 19.8001C117.342 19.8001 118.18 19.9561 118.914 20.2569C119.649 20.5578 120.268 20.9812 120.785 21.5049C121.29 22.0398 121.68 22.675 121.944 23.4104C122.208 24.1459 122.346 24.9482 122.346 25.8173C122.346 26.6976 122.208 27.5111 121.944 28.2465C121.68 28.9819 121.29 29.6171 120.785 30.152C120.28 30.6868 119.649 31.0991 118.914 31.4C118.18 31.7008 117.342 31.8569 116.401 31.8569ZM116.401 29.8622C116.975 29.8622 117.48 29.7397 117.904 29.5057C118.329 29.2717 118.673 28.9597 118.949 28.5808C119.224 28.2019 119.419 27.7673 119.557 27.2882C119.683 26.809 119.752 26.3188 119.752 25.8173C119.752 25.327 119.683 24.8479 119.557 24.3576C119.431 23.8673 119.224 23.4438 118.949 23.065C118.673 22.6861 118.329 22.3853 117.904 22.1512C117.48 21.9172 116.975 21.7947 116.401 21.7947C115.827 21.7947 115.322 21.9172 114.898 22.1512C114.473 22.3853 114.129 22.6973 113.853 23.065C113.578 23.4438 113.383 23.8673 113.245 24.3576C113.119 24.8479 113.05 25.327 113.05 25.8173C113.05 26.3188 113.119 26.809 113.245 27.2882C113.371 27.7673 113.578 28.2019 113.853 28.5808C114.129 28.9597 114.473 29.2717 114.898 29.5057C115.322 29.7508 115.827 29.8622 116.401 29.8622ZM123.103 20.1121H125.065V16.68H127.659V20.1121H130V21.9952H127.659V28.1016C127.659 28.3691 127.67 28.5919 127.693 28.7925C127.716 28.9819 127.774 29.1491 127.854 29.2828C127.934 29.4165 128.061 29.5168 128.233 29.5837C128.405 29.6505 128.623 29.684 128.921 29.684C129.105 29.684 129.289 29.684 129.472 29.6728C129.656 29.6617 129.839 29.6394 130.023 29.5948V31.5448C129.736 31.5783 129.449 31.6006 129.185 31.634C128.91 31.6674 128.634 31.6786 128.348 31.6786C127.659 31.6786 127.108 31.6117 126.695 31.4891C126.282 31.3666 125.949 31.1771 125.719 30.932C125.479 30.6868 125.329 30.386 125.238 30.0182C125.157 29.6505 125.1 29.2271 125.088 28.7591V22.0175H123.126V20.1121H123.103Z" fill="#6358DE"/>
<path d="M15.5729 26.963L22.3552 25.2581L25.2013 33.7491L15.5729 26.963ZM31.1344 15.9871H19.2452L15.5729 5L11.9006 15.9871L0 15.9759L9.62835 22.762L5.95604 33.7491L15.5729 26.963L31.1344 15.9871Z" fill="#6358DE"/>
</g>
<defs>
<clipPath id="clip0_11061_11932">
<rect width="130" height="40" fill="white"/>
</clipPath>
</defs>
</svg>
