<svg width="130" height="96" viewBox="0 0 130 96" fill="none" xmlns="http://www.w3.org/2000/svg">
<path fill-rule="evenodd" clip-rule="evenodd" d="M42.3504 14H87.3932C94.2141 14 99.7436 19.5295 99.7436 26.3504V69.6496C99.7436 76.4705 94.2141 82 87.3932 82H42.3504C35.5295 82 30 76.4705 30 69.6496V26.3504C30 19.5295 35.5295 14 42.3504 14ZM75.9467 65.1309H84.2306C84.399 65.1294 84.5645 65.0864 84.7123 65.0056C84.8601 64.9247 84.9856 64.8086 85.0777 64.6676C85.1697 64.5265 85.2255 64.3649 85.2401 64.1971C85.2546 64.0293 85.2275 63.8605 85.161 63.7057L70.7969 29.7341C70.6515 29.3743 70.4007 29.0667 70.0775 28.8519C69.7543 28.637 69.3737 28.5248 68.9857 28.5299H60.7578C60.3698 28.5252 59.9895 28.6377 59.6664 28.8525C59.3433 29.0673 59.0925 29.3745 58.9467 29.7341L44.6813 63.7057C44.6149 63.8607 44.5878 64.0298 44.6026 64.1978C44.6173 64.3659 44.6734 64.5277 44.7658 64.6688C44.8583 64.8099 44.9842 64.9259 45.1323 65.0065C45.2805 65.0872 45.4463 65.1299 45.615 65.1309H68.0421C68.2251 65.1308 68.4052 65.0854 68.5663 64.9987C68.7274 64.9121 68.8646 64.7869 68.9656 64.6343C69.0665 64.4817 69.1281 64.3065 69.1448 64.1243C69.1616 63.9421 69.1329 63.7586 69.0615 63.5902L66.3643 57.588C66.2915 57.4162 66.1697 57.2696 66.0141 57.1666C65.8586 57.0635 65.6761 57.0085 65.4895 57.0085H59.329C59.2506 57.0085 59.1735 56.9892 59.1044 56.9521C59.0354 56.9151 58.9766 56.8615 58.9332 56.7962C58.8899 56.7309 58.8634 56.656 58.856 56.5779C58.8487 56.4999 58.8608 56.4213 58.8912 56.3491L64.4957 42.9983C64.5213 42.917 64.5724 42.8462 64.6414 42.7963C64.7104 42.7464 64.7936 42.72 64.8788 42.7211C64.9639 42.7223 65.0465 42.7508 65.1142 42.8025C65.1818 42.8542 65.2311 42.9263 65.2546 43.0081L74.2477 64.0356C74.3903 64.3661 74.628 64.6467 74.9305 64.8418C75.233 65.0368 75.5868 65.1375 75.9467 65.1309Z" fill="#F9FFF6"/>
</svg>
