<svg width="130" height="96" viewBox="0 0 130 96" fill="none" xmlns="http://www.w3.org/2000/svg">
<path d="M100.286 45.9012C98.4143 42.7001 95.7817 40.1339 92.4904 38.202C90.0308 36.7786 87.4804 35.8752 84.6064 35.4872V25.316C87.4804 24.1029 89.264 21.4179 89.264 18.2854C89.264 14.0158 85.8198 10.5559 81.5284 10.5559C77.2335 10.5559 73.7289 14.0158 73.7289 18.2854C73.7289 21.4179 75.4096 24.1029 78.2836 25.316V35.4918C75.9844 35.822 73.6002 36.5346 71.4228 37.6294C66.9756 34.2718 52.3929 23.2567 43.8623 16.8231C44.0646 16.098 44.2204 15.3506 44.2204 14.5621C44.2204 9.83304 40.3681 6 35.6093 6C30.8506 6 27 9.83304 27 14.5621C27 19.2905 30.8546 23.1247 35.6134 23.1247C37.2366 23.1247 38.738 22.6527 40.0336 21.8767L41.8339 23.2344L66.5709 40.9528C65.2633 42.1464 64.0453 43.5041 63.071 45.0275C61.0965 48.1331 59.89 51.5502 59.89 55.2775V56.0552C59.89 58.6717 60.3901 61.1419 61.242 63.4624C61.9921 65.4887 63.0888 67.3309 64.4471 68.9966L56.2372 77.178C55.0474 76.7378 53.7552 76.6475 52.5151 76.9178C51.275 77.1882 50.1395 77.8078 49.2442 78.7026C48.6243 79.3158 48.133 80.0452 47.7987 80.8485C47.4644 81.6518 47.2938 82.5131 47.2968 83.3824C47.2973 85.1498 47.9899 86.8109 49.2476 88.0606C49.864 88.6773 50.5975 89.1663 51.4054 89.4992C52.2132 89.8321 53.0795 90.0023 53.9541 90C54.8289 90.0022 55.6954 89.8319 56.5036 89.499C57.3117 89.1662 58.0454 88.6772 58.6623 88.0606C59.2818 87.4474 59.7729 86.7183 60.1074 85.9153C60.4418 85.1124 60.6129 84.2515 60.6108 83.3824C60.6108 82.6985 60.5045 82.0311 60.3045 81.3968L68.7902 72.9599C69.9536 73.7587 71.2101 74.4313 72.5609 75.0112C75.2251 76.1564 78.1658 76.8541 81.3841 76.8541H81.9738C85.5319 76.8541 88.8881 76.0232 92.0432 74.3238C95.3678 72.5279 97.9699 70.072 99.9358 66.9366C101.912 63.7927 103 60.3191 103 56.4975V56.3066C103 52.5473 102.125 49.0788 100.286 45.9012ZM89.9176 63.5996C87.6143 66.1441 84.9668 67.7114 81.9738 67.7114H81.4807C79.7712 67.7114 78.0991 67.2417 76.4621 66.3875C74.617 65.4469 73.2145 64.1053 72.0666 62.4065C70.8802 60.7391 70.2364 58.9185 70.2364 56.9883V56.402C70.2364 54.5044 70.6026 52.705 71.5257 51.0056C72.5126 49.148 73.8456 47.7034 75.6183 46.5549C77.3588 45.4143 79.2177 44.8549 81.2881 44.8549H81.4807C83.358 44.8549 85.1352 45.2229 86.8125 46.076C88.5214 46.9857 89.9176 48.2286 90.9999 49.8634C92.0512 51.4987 92.6766 53.2627 92.8778 55.1844C92.9094 55.5838 92.9255 55.9929 92.9255 56.3838C92.9255 58.9917 91.923 61.407 89.9176 63.5996Z" fill="#F9FFF6"/>
</svg>
