<svg width="130" height="96" viewBox="0 0 130 96" fill="none" xmlns="http://www.w3.org/2000/svg">
<path d="M27.9765 53.4535H22.9858C22.8029 53.4535 22.6275 53.3806 22.4982 53.2508C22.3689 53.1211 22.2963 52.9451 22.2963 52.7617V34.2756C22.2963 34.0921 22.3689 33.9161 22.4982 33.7864C22.6275 33.6567 22.8029 33.5838 22.9858 33.5838H27.9765C28.067 33.5837 28.1567 33.6016 28.2404 33.6363C28.3241 33.6711 28.4001 33.722 28.4642 33.7863C28.5282 33.8505 28.579 33.9268 28.6136 34.0108C28.6483 34.0947 28.6661 34.1847 28.666 34.2756V52.7617C28.6661 52.8525 28.6483 52.9425 28.6136 53.0265C28.579 53.1104 28.5282 53.1867 28.4642 53.251C28.4001 53.3152 28.3241 53.3662 28.2404 53.4009C28.1567 53.4357 28.067 53.4535 27.9765 53.4535ZM5.76337 53.2141L14.0366 36.698C14.1187 36.534 14.1325 36.3441 14.0751 36.17C14.0176 35.9958 13.8935 35.8517 13.7302 35.7693L9.27262 33.5205C9.10924 33.4382 8.91993 33.4243 8.74635 33.482C8.57276 33.5396 8.42911 33.6641 8.34699 33.828L0.0733975 50.3445C-0.0086934 50.5084 -0.0225282 50.6984 0.0349416 50.8725C0.0924115 51.0467 0.216481 51.1908 0.379854 51.2732L4.83912 53.5216C5.00237 53.6035 5.19133 53.6172 5.36458 53.5595C5.53783 53.5019 5.68124 53.3777 5.76337 53.2141ZM18.009 53.1499L21.5493 35.1459C21.5846 34.9665 21.5476 34.7803 21.4464 34.6281C21.3453 34.476 21.1882 34.3702 21.0095 34.3339L16.1174 33.343C16.0284 33.325 15.9367 33.3248 15.8476 33.3425C15.7585 33.3601 15.6738 33.3952 15.5982 33.4458C15.5227 33.4964 15.4579 33.5614 15.4075 33.6372C15.3571 33.713 15.3221 33.798 15.3046 33.8874L11.7643 51.8913C11.729 52.0708 11.7661 52.257 11.8673 52.4092C11.9685 52.5614 12.1257 52.6671 12.3044 52.7033L17.1962 53.6942C17.2852 53.7122 17.3769 53.7124 17.466 53.6948C17.5551 53.6771 17.6398 53.642 17.7153 53.5915C17.7909 53.5409 17.8557 53.4758 17.9061 53.4C17.9565 53.3243 17.9915 53.2392 18.009 53.1499Z" fill="#F9FFF6"/>
<path d="M44.5275 41.0351V52.7826C44.5276 52.8735 44.5098 52.9635 44.4751 53.0474C44.4405 53.1314 44.3897 53.2077 44.3257 53.2719C44.2616 53.3362 44.1856 53.3871 44.1019 53.4219C44.0182 53.4566 43.9285 53.4745 43.838 53.4744H38.7794C38.5965 53.4744 38.4211 53.4015 38.2918 53.2718C38.1625 53.1421 38.0899 52.9661 38.0899 52.7826V34.2315C38.0899 34.1407 38.1077 34.0507 38.1423 33.9668C38.177 33.8829 38.2278 33.8066 38.2918 33.7424C38.3559 33.6781 38.4319 33.6272 38.5155 33.5924C38.5992 33.5576 38.6888 33.5397 38.7794 33.5397H43.838C43.9285 33.5397 44.0182 33.5575 44.1019 33.5923C44.1856 33.627 44.2616 33.678 44.3257 33.7422C44.3897 33.8065 44.4405 33.8828 44.4751 33.9667C44.5098 34.0507 44.5276 34.1407 44.5275 34.2315V35.6927C45.799 34.0977 47.5872 33.1012 50.0907 33.1012C52.4354 33.1012 54.4619 34.0579 55.6936 35.8521C57.204 34.0579 59.3502 33.1012 61.9725 33.1012C66.423 33.1012 69.4827 35.7326 69.4827 40.7562V52.7826C69.4828 52.8735 69.465 52.9635 69.4303 53.0474C69.3957 53.1314 69.3449 53.2077 69.2809 53.2719C69.2168 53.3362 69.1408 53.3871 69.0571 53.4219C68.9734 53.4566 68.8837 53.4745 68.7932 53.4744H63.7346C63.6441 53.4744 63.5544 53.4565 63.4708 53.4218C63.3871 53.387 63.3111 53.336 63.2471 53.2718C63.1831 53.2075 63.1324 53.1313 63.0978 53.0473C63.0632 52.9634 63.0454 52.8734 63.0454 52.7826V42.1109C63.0454 39.918 61.8133 38.8415 60.1445 38.8415C58.7536 38.8415 57.641 39.7189 57.0051 41.0344V52.7819C57.0052 52.8728 56.9873 52.9628 56.9527 53.0467C56.9181 53.1307 56.8673 53.2069 56.8033 53.2712C56.7392 53.3354 56.6632 53.3864 56.5795 53.4212C56.4958 53.4559 56.4061 53.4738 56.3156 53.4737H51.258C51.0752 53.4737 50.8998 53.4008 50.7705 53.2711C50.6411 53.1414 50.5685 52.9654 50.5685 52.7819V42.1109C50.5685 39.918 49.3368 38.8415 47.6676 38.8415C46.2363 38.8422 45.1638 39.7196 44.5275 41.0351Z" fill="#F9FFF6"/>
<path d="M77.9423 53.8731C74.207 53.8731 71.0676 51.4014 71.0676 47.5737C71.0676 44.0651 73.3726 42.4306 77.664 41.3142L83.1478 39.8789C82.989 38.5634 81.9558 37.9254 80.287 37.9254C78.8077 37.9254 77.7448 38.4928 77.2548 39.6284C77.1926 39.7825 77.0781 39.9095 76.9315 39.9869C76.7849 40.0644 76.6157 40.0873 76.4539 40.0515L72.1074 39.0145C72.0125 38.9919 71.9234 38.9495 71.846 38.89C71.7685 38.8305 71.7045 38.7552 71.6581 38.6692C71.6117 38.5831 71.5839 38.4882 71.5766 38.3906C71.5693 38.293 71.5826 38.195 71.6157 38.1029C72.8638 34.7162 76.3302 32.9416 80.5252 32.9416C86.1668 32.9416 89.4263 35.6127 89.4263 40.3174V52.7826C89.4264 52.8734 89.4086 52.9634 89.374 53.0473C89.3393 53.1313 89.2886 53.2075 89.2246 53.2718C89.1606 53.336 89.0846 53.387 89.001 53.4218C88.9173 53.4565 88.8277 53.4744 88.7371 53.4744H83.9408C83.7607 53.4745 83.5877 53.4038 83.4589 53.2775C83.3301 53.1512 83.2557 52.9793 83.2516 52.7987L83.2272 51.7603L83.1875 51.7997C81.5584 53.1952 79.969 53.8731 77.9423 53.8731ZM79.5703 48.8892C80.4061 48.8892 81.0402 48.6499 81.9941 48.0916L83.1067 47.4141L83.1464 44.1846L80.2856 44.9819C78.3382 45.5409 77.4648 46.0186 77.4648 47.1349C77.4655 48.3711 78.5385 48.8892 79.5703 48.8892Z" fill="#F9FFF6"/>
<path d="M99.7048 44.0651L97.7574 45.8592V52.7826C97.7574 52.8735 97.7396 52.9635 97.705 53.0474C97.6703 53.1314 97.6196 53.2077 97.5555 53.2719C97.4915 53.3362 97.4155 53.3871 97.3318 53.4219C97.2481 53.4566 97.1584 53.4745 97.0678 53.4744H92.1287C92.0381 53.4745 91.9485 53.4566 91.8648 53.4219C91.7811 53.3871 91.7051 53.3362 91.641 53.2719C91.577 53.2077 91.5262 53.1314 91.4916 53.0474C91.4569 52.9635 91.4391 52.8735 91.4392 52.7826V27.6918C91.4391 27.6009 91.4569 27.511 91.4916 27.427C91.5262 27.3431 91.577 27.2668 91.641 27.2025C91.7051 27.1383 91.7811 27.0873 91.8648 27.0526C91.9485 27.0178 92.0381 27 92.1287 27H97.0678C97.1584 27 97.2481 27.0178 97.3318 27.0526C97.4155 27.0873 97.4915 27.1383 97.5555 27.2025C97.6196 27.2668 97.6703 27.3431 97.705 27.427C97.7396 27.511 97.7574 27.6009 97.7574 27.6918V39.0417L103.52 33.7225C103.647 33.6049 103.814 33.5396 103.987 33.5397H110.085C110.224 33.5396 110.36 33.5818 110.475 33.6606C110.59 33.7394 110.678 33.8512 110.728 33.9813C110.779 34.1114 110.788 34.2537 110.757 34.3896C110.725 34.5254 110.653 34.6484 110.55 34.7424L104.632 40.1581L111.381 52.4489C111.438 52.5543 111.468 52.6729 111.466 52.7931C111.464 52.9133 111.431 53.031 111.37 53.1345C111.309 53.238 111.223 53.3238 111.119 53.3834C111.014 53.443 110.897 53.4744 110.777 53.4744H105.011C104.885 53.4745 104.761 53.4398 104.653 53.3742C104.545 53.3086 104.457 53.2145 104.399 53.1023L99.7048 44.0651Z" fill="#F9FFF6"/>
<path d="M120.667 53.9129C115.143 53.9129 110.096 50.4444 110.096 43.4274C110.096 36.8091 114.944 32.9803 120.269 32.9803C125.793 32.9803 129.806 36.8479 129.965 42.9477C129.984 43.592 129.993 44.0406 130 44.3607C130.001 44.4522 129.984 44.543 129.95 44.6279C129.916 44.7128 129.865 44.7901 129.801 44.8551C129.737 44.9201 129.661 44.9717 129.576 45.0068C129.492 45.0419 129.402 45.0598 129.31 45.0595H116.454C116.653 47.4518 118.56 48.9668 120.985 48.9668C121.784 48.985 122.575 48.8111 123.294 48.4595C124.012 48.108 124.636 47.5891 125.113 46.9462C125.219 46.8075 125.374 46.7144 125.546 46.6861C125.717 46.6577 125.893 46.6961 126.038 46.7935L129.249 48.9511C129.325 49.0028 129.39 49.069 129.44 49.1459C129.491 49.2229 129.525 49.3091 129.543 49.3995C129.56 49.49 129.559 49.5829 129.54 49.673C129.521 49.7631 129.485 49.8486 129.433 49.9245C127.713 52.4671 124.877 53.9129 120.667 53.9129ZM116.574 41.1549H123.528C123.488 38.8821 121.819 37.8856 120.07 37.8856C118.441 37.8856 116.772 38.8422 116.574 41.1549Z" fill="#F9FFF6"/>
<path d="M39.3024 62.9987V67.7303H38.3907V62.9987H37.5243V62.1972H38.3907V61.316C38.3704 61.0783 38.4 60.8389 38.4776 60.6133C38.5551 60.3878 38.6789 60.181 38.841 60.0064C39.1561 59.7162 39.5725 59.562 40 59.5774C40.2653 59.557 40.5318 59.5972 40.7794 59.695C41.027 59.7928 41.2493 59.9456 41.4295 60.142L40.833 60.7293C40.7355 60.6236 40.6168 60.5398 40.4848 60.4833C40.3528 60.4268 40.2103 60.399 40.0668 60.4016C39.6726 60.4016 39.3007 60.605 39.3007 61.2713V62.1972H40.6289V62.9987H39.3024Z" fill="#F9FFF6"/>
<path d="M40.7682 64.941C40.7682 63.2244 41.9174 62.0616 43.4128 62.0616C44.9325 62.0616 46.0594 63.2244 46.0594 64.941C46.0594 66.6349 44.9342 67.8431 43.4128 67.8431C41.8822 67.8431 40.7682 66.6349 40.7682 64.941ZM45.1126 64.941C45.1126 63.6762 44.3812 62.9086 43.4128 62.9086C42.4338 62.9086 41.7133 63.6538 41.7133 64.941C41.7133 66.2059 42.4338 66.9962 43.4128 66.9962C44.4035 66.9962 45.1126 66.217 45.1126 64.941Z" fill="#F9FFF6"/>
<path d="M47.9337 63.8911V67.7303H47.0094V62.1972H47.9326V62.852C48.0424 62.6341 48.2095 62.4505 48.4158 62.3212C48.6221 62.1918 48.8598 62.1216 49.1031 62.1182C49.4279 62.1096 49.7471 62.2045 50.0148 62.3894L49.6206 63.2363C49.4264 63.0885 49.189 63.0092 48.9453 63.0106C48.7075 63.0368 48.4833 63.1352 48.3026 63.2925C48.1218 63.4498 47.9932 63.6586 47.9337 63.8911Z" fill="#F9FFF6"/>
<path d="M51.5568 64.1056V67.7303H50.6343V62.1972H51.5568V62.852C51.7273 62.6019 51.9581 62.3993 52.2278 62.263C52.4974 62.1268 52.7971 62.0613 53.0988 62.0728C53.4384 62.0501 53.777 62.1293 54.0716 62.3002C54.3662 62.4711 54.6035 62.726 54.7533 63.0326C54.9464 62.7289 55.2148 62.4807 55.5323 62.3124C55.8497 62.1441 56.2054 62.0616 56.5642 62.0728C57.7235 62.0728 58.4886 62.8181 58.4886 64.3439V67.7331H57.5658V64.4243C57.5658 63.4533 57.1827 62.9218 56.3953 62.9218C56.0623 62.9322 55.7433 63.0584 55.4928 63.2788C55.2424 63.4992 55.0761 63.8002 55.0225 64.1301V67.7324H54.0993V64.4236C54.0993 63.4526 53.7163 62.9211 52.9289 62.9211C52.5995 62.9308 52.2834 63.0537 52.0336 63.2694C51.7838 63.485 51.6155 63.7802 51.5568 64.1056Z" fill="#F9FFF6"/>
<path d="M62.0599 67.832C60.5624 67.832 59.3923 66.7251 59.3923 64.9071C59.3923 63.1793 60.5067 62.0616 61.9812 62.0616C63.433 62.0616 64.3332 63.0326 64.4346 64.5797C64.4457 64.7492 64.4572 64.941 64.4572 65.0878H60.3267C60.3615 66.296 61.1482 67.0301 62.0936 67.0301C62.4187 67.0335 62.7391 66.952 63.0232 66.7936C63.3074 66.6352 63.5456 66.4053 63.7144 66.1265L64.3896 66.6122C64.142 67.0027 63.7964 67.3209 63.3875 67.535C62.9786 67.7491 62.5207 67.8515 62.0599 67.832ZM60.3493 64.3086H63.5006C63.4857 63.914 63.3167 63.5411 63.0299 63.2706C62.7432 63 62.3618 62.8537 61.9683 62.8631C61.5637 62.8442 61.1678 62.9848 60.8653 63.2549C60.5627 63.5251 60.3775 63.9033 60.3493 64.3086Z" fill="#F9FFF6"/>
<path d="M66.3213 63.8911V67.7303H65.3968V62.1972H66.3196V62.852C66.4294 62.6341 66.5965 62.4506 66.8028 62.3213C67.0091 62.192 67.2468 62.1217 67.49 62.1182C67.8149 62.1096 68.1341 62.2045 68.4018 62.3894L68.0079 63.2363C67.8137 63.0886 67.5763 63.0092 67.3326 63.0106C67.0949 63.0369 66.8708 63.1353 66.6901 63.2926C66.5094 63.4499 66.3808 63.6586 66.3213 63.8911Z" fill="#F9FFF6"/>
<path d="M69.0216 59.6224H69.9445V67.7303H69.0216V59.6224Z" fill="#F9FFF6"/>
<path d="M71.209 69.8756L72.5479 66.804L70.5671 62.1972H71.5464L73.0438 65.7653L74.4957 62.1972H75.4523L72.1527 69.8756H71.209Z" fill="#F9FFF6"/>
<path d="M78.7394 59.8254H79.7183V67.7299H78.7394V59.8254Z" fill="#F9FFF6"/>
<path d="M82.0874 64.1168V67.7303H81.1646V62.1972H82.0874V62.9425C82.2594 62.6639 82.5024 62.4364 82.7913 62.2835C83.0802 62.1306 83.4045 62.0579 83.7308 62.0728C84.9573 62.0728 85.7677 62.8181 85.7677 64.3439V67.7331H84.8448V64.4243C84.8448 63.4194 84.3834 62.9218 83.5615 62.9218C83.2192 62.9314 82.8896 63.0535 82.6232 63.2694C82.3569 63.4853 82.1686 63.7831 82.0874 64.1168Z" fill="#F9FFF6"/>
<path d="M88.6724 67.832C87.8282 67.832 87.1868 67.3914 87.1868 66.2625V62.9987H86.32V62.1972H87.1868V60.5592H88.0985V62.1968H89.8313V62.9984H88.0985V66.2055C88.0985 66.8152 88.4119 67.007 88.7626 67.007C88.8908 67.0056 89.0173 66.9768 89.1337 66.9226C89.25 66.8684 89.3536 66.79 89.4375 66.6926L89.9779 67.2572C89.8173 67.4453 89.6166 67.5946 89.3905 67.6941C89.1645 67.7936 88.919 67.8407 88.6724 67.832Z" fill="#F9FFF6"/>
<path d="M92.7183 67.832C91.2208 67.832 90.0511 66.7251 90.0511 64.9071C90.0511 63.1793 91.1654 62.0616 92.6399 62.0616C94.0917 62.0616 94.992 63.0326 95.0933 64.5797C95.1044 64.7492 95.1156 64.941 95.1156 65.0878H90.9854C91.0202 66.296 91.8069 67.0301 92.7524 67.0301C93.0774 67.0335 93.3977 66.952 93.6818 66.7936C93.966 66.6352 94.2041 66.4053 94.3728 66.1265L95.0484 66.6122C94.8007 67.0027 94.455 67.3209 94.046 67.535C93.6371 67.7491 93.1792 67.8515 92.7183 67.832ZM91.0077 64.3086H94.159C94.1441 63.9143 93.9753 63.5416 93.6889 63.2712C93.4026 63.0007 93.0216 62.8541 92.6284 62.8631C92.2236 62.8438 91.8273 62.9842 91.5244 63.2544C91.2215 63.5245 91.036 63.903 91.0077 64.3086Z" fill="#F9FFF6"/>
<path d="M98.0851 70H97.6348C96.3407 70 95.406 69.4916 95.406 68.5091C95.406 67.8543 95.8786 67.4026 96.5876 67.188C96.464 67.1259 96.3597 67.0309 96.2861 66.9135C96.2124 66.7961 96.1722 66.6608 96.1697 66.5221C96.1753 66.3449 96.2327 66.1734 96.3348 66.0288C96.4369 65.8842 96.5792 65.773 96.744 65.709C96.4332 65.5511 96.1733 65.3083 95.9941 65.0086C95.8148 64.7089 95.7236 64.3645 95.7309 64.0151C95.7309 62.8292 96.7099 62.0728 97.8692 62.0728C98.3532 62.0728 98.612 62.1972 99.4112 62.1972H100.536V62.9536H99.6139C99.8452 63.259 99.9716 63.6315 99.9739 64.0151C99.9739 65.201 99.0285 65.9686 97.8692 65.9686C97.2054 65.9686 97.0588 66.2625 97.0588 66.4428C97.0588 66.7251 97.3064 66.8491 97.734 66.8722L98.6572 66.9172C99.8162 66.9735 100.345 67.6059 100.345 68.4074C100.347 69.356 99.492 70 98.0851 70ZM98.0851 69.2205C98.963 69.2205 99.4356 68.9158 99.4356 68.4417C99.4356 67.9675 99.0525 67.673 98.2766 67.673H97.6915C96.8244 67.6954 96.3181 67.9099 96.3181 68.4633C96.3181 68.9717 96.8586 69.2198 97.6574 69.2198L98.0851 69.2205ZM97.8712 65.1895C98.0984 65.1756 98.3165 65.0953 98.4987 64.9587C98.681 64.822 98.8195 64.6349 98.8971 64.4203C98.9748 64.2057 98.9882 63.973 98.9357 63.7509C98.8833 63.5287 98.7672 63.3268 98.6019 63.17C98.4366 63.0131 98.2291 62.9082 98.0051 62.8681C97.7811 62.828 97.5503 62.8545 97.3411 62.9443C97.1319 63.0341 96.9535 63.1833 96.8277 63.3736C96.7019 63.5638 96.6343 63.7868 96.6332 64.0151C96.6304 64.1759 96.661 64.3356 96.7231 64.4839C96.7852 64.6322 96.8774 64.7659 96.9939 64.8764C97.1104 64.9869 97.2486 65.0718 97.3997 65.1257C97.5508 65.1796 97.7114 65.2013 97.8712 65.1895Z" fill="#F9FFF6"/>
<path d="M102.184 63.8911V67.7303H101.261V62.1972H102.184V62.852C102.293 62.6341 102.46 62.4505 102.667 62.3212C102.873 62.1918 103.111 62.1216 103.354 62.1182C103.679 62.1096 103.998 62.2045 104.265 62.3894L103.872 63.2363C103.678 63.0886 103.44 63.0092 103.196 63.0106C102.958 63.0366 102.734 63.1349 102.553 63.2922C102.372 63.4495 102.243 63.6584 102.184 63.8911Z" fill="#F9FFF6"/>
<path d="M104.261 64.941C104.261 63.2244 105.41 62.0616 106.906 62.0616C108.425 62.0616 109.55 63.2244 109.55 64.941C109.55 66.6349 108.425 67.8431 106.906 67.8431C105.375 67.8431 104.261 66.6349 104.261 64.941ZM108.605 64.941C108.605 63.6762 107.874 62.9086 106.906 62.9086C105.926 62.9086 105.206 63.6538 105.206 64.941C105.206 66.2059 105.926 66.9962 106.906 66.9962C107.895 66.9962 108.605 66.217 108.605 64.941Z" fill="#F9FFF6"/>
<path d="M111.426 64.1056V67.7303H110.503V62.1972H111.426V62.852C111.596 62.6019 111.827 62.3992 112.097 62.263C112.367 62.1267 112.666 62.0613 112.968 62.0728C113.308 62.0502 113.646 62.1293 113.941 62.3002C114.235 62.4711 114.473 62.7261 114.623 63.0326C114.815 62.7288 115.084 62.4805 115.401 62.3122C115.719 62.144 116.074 62.0615 116.433 62.0728C117.592 62.0728 118.358 62.8181 118.358 64.3439V67.7331H117.435V64.4243C117.435 63.4533 117.052 62.9218 116.264 62.9218C115.931 62.9322 115.612 63.0583 115.362 63.2788C115.111 63.4992 114.945 63.8002 114.891 64.1301V67.7324H113.969V64.4236C113.969 63.4526 113.585 62.9211 112.798 62.9211C112.468 62.9308 112.152 63.0537 111.903 63.2694C111.653 63.485 111.485 63.7803 111.426 64.1056Z" fill="#F9FFF6"/>
<path d="M121.109 67.8204C120.197 67.8204 119.263 67.2223 119.263 66.1265C119.263 65.201 119.893 64.694 121.288 64.3198L122.796 63.9246C122.74 63.2698 122.211 62.9086 121.514 62.9086C121.219 62.8954 120.927 62.9671 120.671 63.1152C120.416 63.2633 120.208 63.4816 120.073 63.7443L119.307 63.3251C119.531 62.9209 119.865 62.5882 120.269 62.3647C120.672 62.1411 121.131 62.0358 121.591 62.0606C122.773 62.0606 123.708 62.6591 123.708 64.048V67.7292H122.807V67.1195L122.694 67.2097C122.256 67.5984 121.693 67.8153 121.109 67.8204ZM122.56 66.4655L122.796 66.2848V64.7171L121.604 65.0315C120.624 65.2911 120.185 65.5284 120.185 66.1045C120.192 66.2342 120.225 66.3611 120.282 66.4778C120.339 66.5945 120.418 66.6986 120.516 66.7839C120.614 66.8691 120.727 66.9339 120.85 66.9744C120.973 67.0148 121.103 67.0301 121.232 67.0193C121.728 67.0035 122.2 66.8059 122.56 66.4641V66.4655Z" fill="#F9FFF6"/>
<path d="M126.635 67.832C125.791 67.832 125.149 67.3914 125.149 66.2625V62.9987H124.283V62.1972H125.149V60.5592H126.061V62.1968H127.794V62.9984H126.061V66.2055C126.061 66.8152 126.376 67.007 126.725 67.007C126.854 67.0056 126.98 66.9768 127.097 66.9226C127.213 66.8684 127.316 66.79 127.4 66.6926L127.941 67.2572C127.78 67.4452 127.579 67.5945 127.353 67.694C127.127 67.7935 126.882 67.8407 126.635 67.832Z" fill="#F9FFF6"/>
</svg>
