<svg width="130" height="96" viewBox="0 0 130 96" fill="none" xmlns="http://www.w3.org/2000/svg">
<path d="M83.8744 18C76.5767 18 70.872 23.5762 65.7078 30.6596C58.6114 21.4929 52.6765 18 45.5743 18C31.0944 18 20 37.1172 20 57.3517C20 70.0138 26.0382 78 36.1522 78C43.4315 78 48.6668 74.5184 57.9739 58.0138C57.9739 58.0138 61.8535 51.0633 64.5225 46.2755C65.4577 47.8074 66.4428 49.4581 67.4775 51.2276L71.8419 58.6759C80.3435 73.1087 85.0804 78 93.6636 78C103.517 78 109 69.9046 109 56.9793C109 35.7931 97.6555 18 83.8744 18ZM50.8767 53.5448C43.3309 65.5448 40.7204 68.2345 36.5193 68.2345C32.1957 68.2345 29.626 64.3838 29.626 57.5172C29.626 42.8276 36.8456 27.8069 45.4519 27.8069C50.1124 27.8069 54.0071 30.5375 59.9728 39.2017C54.3081 48.0163 50.8767 53.5448 50.8767 53.5448ZM79.3558 52.0341L74.1376 43.2053C72.7254 40.8753 71.3683 38.7307 70.0663 36.7715C74.7693 29.4073 78.6487 25.7379 83.2626 25.7379C92.8479 25.7379 100.516 40.0552 100.516 57.6414C100.516 64.3448 98.3518 68.2345 93.8676 68.2345C89.5696 68.2345 87.5164 65.3548 79.3558 52.0341Z" fill="#F9FFF6"/>
</svg>
