<svg width="130" height="96" viewBox="0 0 130 96" fill="none" xmlns="http://www.w3.org/2000/svg">
<path fill-rule="evenodd" clip-rule="evenodd" d="M69.8962 10.4959C64.2352 10.4959 59.1166 12.8719 55.44 16.7027C51.3947 11.4135 45.0143 8 37.8349 8C25.6067 8 15.6925 17.8994 15.6925 30.1113C15.6925 33.2375 16.3438 36.211 17.5146 38.905C11.8276 42.2291 8 48.4424 8 55.5584C8 66.1773 16.5192 74.7841 27.0276 74.784C28.369 74.784 29.6763 74.6444 30.9381 74.3764C33.8254 82.2086 41.3475 87.7933 50.1735 87.7933C58.6489 87.7933 65.9208 82.6455 69.042 75.3037C71.4162 76.4616 74.0827 77.1128 76.9019 77.1128C83.6363 77.1128 89.5036 73.402 92.5825 67.9099C94.1761 68.2316 95.7978 68.3932 97.4235 68.3923C110.996 68.3923 122 57.2926 122 43.5997C122 29.9084 110.996 18.8088 97.4235 18.8088C93.885 18.8088 90.5219 19.564 87.4834 20.9215C83.987 14.6921 77.4215 10.4959 69.8962 10.4959ZM75.2878 35.9279C75.5379 35.975 75.7295 36.0189 75.9406 36.0838C75.986 36.1016 76.1143 36.165 76.0623 36.3147L75.5573 37.7015C75.5149 37.8053 75.4858 37.8687 75.2698 37.8037C75.2161 37.7874 75.1365 37.7647 74.9319 37.7208C74.7842 37.69 74.5878 37.6673 74.3897 37.6673C74.1282 37.6673 73.8894 37.6997 73.68 37.7679C73.4753 37.8346 73.2886 37.9498 73.1261 38.1122C72.962 38.2779 72.7672 38.5199 72.6632 38.8171C72.457 39.4133 72.357 40.0416 72.3249 40.2435L72.3248 40.2436L72.3189 40.2809C72.3166 40.2946 72.315 40.3037 72.314 40.3078H74.4268C74.6039 40.3078 74.6591 40.389 74.6428 40.5205L74.3961 41.8943C74.3585 42.094 74.1751 42.0875 74.1751 42.0875H71.9991L70.5099 50.5108C70.3541 51.3812 70.1575 52.1281 69.9286 52.7291C69.6979 53.338 69.4559 53.7829 69.071 54.2085C68.7137 54.6013 68.3111 54.8921 67.8499 55.0594C67.3903 55.225 66.8349 55.311 66.2275 55.311C65.9369 55.311 65.6268 55.3062 65.2597 55.2201C64.995 55.1567 64.8505 55.1113 64.6556 55.0431C64.5729 55.0123 64.508 54.9099 64.5534 54.7784C64.6005 54.6468 64.9902 53.5767 65.0438 53.4354C65.1121 53.2649 65.2826 53.3298 65.2826 53.3298C65.4011 53.3802 65.484 53.4142 65.6399 53.4451C65.7974 53.4775 66.01 53.5037 66.1692 53.5037C66.4567 53.5037 66.7197 53.468 66.947 53.3916C67.2232 53.2991 67.3824 53.14 67.5513 52.9256C67.7267 52.7015 67.8678 52.3946 68.0124 51.9853C68.1602 51.5697 68.2933 51.0224 68.4087 50.3565L69.8898 42.0875H68.4298C68.2546 42.0875 68.1976 42.0047 68.2155 41.8748L68.4606 40.4993C68.4997 40.3011 68.6816 40.3076 68.6816 40.3076H70.1819L70.2632 39.8611C70.4873 38.5343 70.9339 37.5259 71.5917 36.8632C72.2525 36.1975 73.1944 35.8597 74.3898 35.8597C74.7324 35.8597 75.0343 35.8825 75.2878 35.9279ZM46.2316 50.5743C46.342 50.5743 46.4216 50.4849 46.4216 50.3744V36.2722C46.4216 36.1619 46.342 36.0725 46.2316 36.0725H44.4793C44.3689 36.0725 44.2909 36.1619 44.2909 36.2722V50.3744C44.2909 50.4849 44.3689 50.5743 44.4793 50.5743H46.2316ZM24.5435 49.6191C24.5093 49.5869 24.4527 49.5335 24.5119 49.3789L24.9735 48.0991C25.0465 47.8782 25.2138 47.9513 25.2803 47.9936C25.3341 48.026 25.3824 48.0573 25.4327 48.0898C25.5007 48.1339 25.5725 48.1804 25.6668 48.2355C27.026 49.0947 28.2846 49.1028 28.6792 49.1028C29.6958 49.1028 30.3259 48.5637 30.3259 47.8394V47.8004C30.3259 47.0087 29.3583 46.7113 28.2344 46.3659L28.231 46.3648L27.9825 46.2885C26.4381 45.8467 24.7899 45.2134 24.7899 43.2599V43.2209C24.7899 41.368 26.2838 40.0753 28.4242 40.0753L28.658 40.0737C29.9148 40.0737 31.1296 40.4391 32.0081 40.9734C32.0877 41.0221 32.1656 41.1131 32.1218 41.2365C32.0812 41.3502 31.6914 42.3992 31.6459 42.5162C31.5631 42.7354 31.3374 42.5892 31.3374 42.5892C30.5677 42.1638 29.3724 41.8292 28.3656 41.8292C27.4594 41.8292 26.8748 42.31 26.8748 42.9628V43.0034C26.8748 43.7662 27.874 44.091 29.0327 44.4675L29.0347 44.4681L29.2344 44.5331C30.7723 45.0186 32.4107 45.6909 32.4107 47.5422V47.5812C32.4107 49.5835 30.959 50.8274 28.6205 50.8274C27.4724 50.8274 26.3746 50.6472 25.2118 50.0302C25.1663 50.0042 25.1209 49.9788 25.0755 49.9535L25.0755 49.9535L25.0754 49.9534C24.9023 49.8567 24.7304 49.7607 24.5606 49.6371C24.5582 49.6337 24.5548 49.6301 24.551 49.6263C24.5487 49.624 24.5461 49.6216 24.5435 49.6191L24.5435 49.6191ZM58.7775 49.6191C58.7433 49.5869 58.6867 49.5335 58.7459 49.3789L59.2071 48.0991C59.2754 47.8896 59.4735 47.966 59.5158 47.9936C59.5427 48.0109 59.5683 48.0276 59.5936 48.0441L59.5936 48.0441C59.6847 48.1035 59.7722 48.1605 59.9006 48.2355C61.2598 49.0947 62.5184 49.1028 62.9129 49.1028C63.9295 49.1028 64.5612 48.5637 64.5612 47.8394V47.8004C64.5612 47.0092 63.5933 46.7117 62.4703 46.3666L62.4646 46.3648L62.2162 46.2885C60.6718 45.8467 59.0235 45.2134 59.0235 43.2599V43.2209C59.0235 41.368 60.5175 40.0753 62.6578 40.0753L62.8918 40.0737C64.1486 40.0737 65.3634 40.4391 66.2419 40.9734C66.3215 41.0221 66.3995 41.1131 66.3556 41.2365C66.3149 41.3502 65.9251 42.3992 65.8797 42.5162C65.797 42.7354 65.5713 42.5892 65.5713 42.5892C64.8015 42.1638 63.6062 41.8292 62.5994 41.8292C61.6932 41.8292 61.1086 42.31 61.1086 42.9628V43.0034C61.1086 43.7662 62.1078 44.0909 63.2665 44.4674L63.2686 44.4681L63.4683 44.5331C65.0062 45.0186 66.6447 45.6909 66.6447 47.5422V47.5812C66.6447 49.5835 65.1929 50.8274 62.8544 50.8274C61.7065 50.8274 60.6084 50.6472 59.4457 50.0302L59.3787 49.9922L59.3089 49.9532C59.136 49.8565 58.9642 49.7605 58.7946 49.6371C58.7907 49.6316 58.7846 49.6258 58.7775 49.6191ZM81.4897 48.1103C81.9055 47.4802 82.1166 46.5887 82.1166 45.4568C82.1166 44.3265 81.9056 43.4365 81.4914 42.813C81.0789 42.196 80.457 41.8955 79.5899 41.8955C78.7211 41.8955 78.1024 42.196 77.6979 42.813C77.2886 43.4366 77.0809 44.3266 77.0809 45.4568C77.0809 46.5887 77.2886 47.4819 77.6979 48.1103C78.1024 48.7355 78.7211 49.0376 79.5899 49.0376C80.4569 49.0376 81.0788 48.7339 81.4897 48.1103ZM83.1803 41.6633C83.5781 42.1391 83.8769 42.7107 84.0686 43.3587C84.2602 44.0033 84.3562 44.7098 84.3562 45.4568C84.3562 46.2038 84.2604 46.9103 84.0687 47.5549C83.877 48.2029 83.5782 48.7744 83.1805 49.2503C82.7824 49.7276 82.2775 50.1094 81.6814 50.3805C81.0839 50.6517 80.3808 50.7897 79.59 50.7897C78.7973 50.7897 78.0942 50.6517 77.4967 50.3805C76.9006 50.1094 76.3956 49.7278 75.9978 49.2503C75.5983 48.773 75.301 48.2013 75.1078 47.5549C74.9178 46.9119 74.8219 46.2055 74.8219 45.4568C74.8219 44.7081 74.9178 44.0033 75.1078 43.3587C75.301 42.7124 75.5998 42.1408 75.9961 41.6633C76.3956 41.186 76.8989 40.8027 77.4965 40.5233C78.0926 40.2457 78.7973 40.1044 79.5899 40.1044C80.3807 40.1044 81.0853 40.2457 81.6813 40.5233C82.2791 40.8027 82.7824 41.1859 83.1803 41.6633ZM99.8494 48.6167C99.8494 48.6167 100.033 48.5453 100.098 48.7353L100.577 50.0589C100.639 50.2228 100.497 50.291 100.497 50.291C99.7602 50.5818 98.7339 50.7847 97.7335 50.7847C96.0413 50.7847 94.7437 50.2959 93.8799 49.3345C93.0175 48.3763 92.5807 47.0675 92.5807 45.4485C92.5807 44.6998 92.6879 43.9917 92.899 43.3471C93.1117 42.7007 93.4299 42.1292 93.849 41.6518C94.2679 41.1742 94.7973 40.791 95.4209 40.5134C96.046 40.234 96.7767 40.0944 97.5969 40.0944C98.1458 40.0944 98.6395 40.1285 99.0617 40.1934C99.5131 40.2617 100.111 40.4223 100.364 40.5214C100.41 40.5393 100.536 40.6026 100.484 40.7504C100.361 41.1035 100.263 41.3732 100.16 41.6579L100.16 41.6585C100.11 41.7938 100.06 41.9326 100.005 42.0853C99.9322 42.2866 99.7779 42.2201 99.7779 42.2201C99.135 42.0171 98.5212 41.9245 97.7156 41.9245C96.7494 41.9245 96.0251 42.2478 95.5493 42.8778C95.0701 43.5111 94.8039 44.3426 94.8006 45.4485C94.7974 46.6632 95.0994 47.5612 95.6386 48.1166C96.1761 48.672 96.9264 48.9529 97.8714 48.9529C98.2563 48.9529 98.6152 48.9268 98.9417 48.8766C99.2631 48.8263 99.5653 48.7256 99.8494 48.6167ZM104.047 42.8136C103.78 43.2211 103.606 43.7441 103.513 44.3725H108.226C108.179 43.7669 108.06 43.2211 107.787 42.8136C107.377 42.1965 106.803 41.8555 105.936 41.8555C105.069 41.8555 104.452 42.1949 104.047 42.8136ZM109.239 41.4444C109.509 41.7335 109.92 42.3652 110.085 42.9905C110.481 44.3799 110.315 45.5926 110.286 45.8067C110.284 45.822 110.282 45.8323 110.282 45.837C110.264 46.006 110.09 46.0092 110.09 46.0092L103.482 46.0027C103.524 47.0062 103.763 47.7176 104.252 48.2015C104.728 48.6741 105.488 48.9762 106.513 48.9778C107.943 48.9807 108.628 48.7186 109.096 48.5394L109.096 48.5391C109.141 48.5221 109.184 48.5058 109.225 48.4905C109.225 48.4905 109.408 48.424 109.473 48.6042L109.905 49.8141C109.993 50.0187 109.923 50.0902 109.85 50.1307C109.436 50.3597 108.431 50.7851 106.522 50.7916C105.595 50.7934 104.788 50.6602 104.124 50.4035C103.455 50.1455 102.896 49.7752 102.463 49.3026C102.027 48.8333 101.706 48.2666 101.504 47.6235C101.305 46.9854 101.204 46.2757 101.204 45.514C101.204 44.7655 101.301 44.0558 101.495 43.4046C101.686 42.7501 101.988 42.1736 102.39 41.6898C102.791 41.2042 103.302 40.8144 103.911 40.5286C104.518 40.2428 105.267 40.1047 106.092 40.1047C106.8 40.1047 107.446 40.2573 107.986 40.4879C108.398 40.6666 108.814 40.9865 109.239 41.4444ZM51.1288 42.8136C50.8608 43.2211 50.6886 43.7441 50.5945 44.3725H55.307C55.2599 43.7669 55.1413 43.2211 54.8702 42.8136C54.4578 42.1965 53.8845 41.8555 53.0173 41.8555C52.1502 41.8555 51.5331 42.1949 51.1288 42.8136ZM56.3205 41.4444C56.59 41.7335 56.9992 42.3652 57.1648 42.9905C57.5611 44.3776 57.3967 45.5886 57.3672 45.8056C57.365 45.8216 57.3636 45.8322 57.3632 45.837C57.3452 46.006 57.1716 46.0092 57.1716 46.0092L50.5638 46.0027C50.6061 47.0062 50.8447 47.7176 51.3336 48.2015C51.8095 48.6741 52.5695 48.9762 53.5925 48.9778C55.025 48.9807 55.7089 48.7188 56.1767 48.5396L56.2171 48.5241C56.2476 48.5125 56.2772 48.5013 56.3061 48.4905C56.3061 48.4905 56.4895 48.424 56.5561 48.6042L56.9865 49.8141C57.0741 50.0187 57.0044 50.0902 56.9312 50.1307C56.5171 50.3597 55.5119 50.7851 53.6038 50.7916C52.6765 50.7934 51.8695 50.6602 51.2052 50.4035C50.5362 50.1455 49.9776 49.7752 49.5439 49.3026C49.1088 48.8333 48.7873 48.2666 48.5858 47.6235C48.386 46.9854 48.2854 46.2757 48.2854 45.514C48.2854 44.7655 48.3844 44.0558 48.576 43.4046C48.7676 42.7501 49.0697 42.1736 49.4708 41.6898C49.8719 41.2042 50.3835 40.8144 50.9924 40.5286C51.5997 40.2428 52.35 40.1047 53.1733 40.1047C53.8814 40.1047 54.5276 40.2573 55.0668 40.4879C55.4792 40.6666 55.895 40.9865 56.3205 41.4444ZM35.9302 48.3077C36.0179 48.4409 36.0536 48.4928 36.3118 48.6991C36.3069 48.6975 36.9045 49.1668 38.2492 49.0855C39.1942 49.0287 40.0338 48.8485 40.0338 48.8485H40.0322V45.8442C40.0322 45.8442 39.1861 45.7046 38.2395 45.6915C36.8917 45.6737 36.3185 46.1707 36.3232 46.169C35.9253 46.4499 35.7337 46.8673 35.7337 47.4487C35.7337 47.8157 35.8003 48.1047 35.9302 48.3077ZM37.9097 44.0254C38.3254 44.0254 38.673 44.0368 38.9409 44.0563C38.9409 44.0563 39.4622 44.1033 40.0306 44.1844V43.9051C40.0306 43.0249 39.8471 42.6076 39.4866 42.3316C39.1164 42.0474 38.5675 41.9045 37.8529 41.9045C37.8529 41.9045 36.2453 41.8834 34.9737 42.5752C34.9152 42.6093 34.8649 42.6288 34.8649 42.6288C34.8649 42.6288 34.7073 42.6841 34.6489 42.5217L34.1811 41.2647C34.1097 41.0828 34.2395 41.0016 34.2395 41.0016C34.8339 40.5371 36.2776 40.2578 36.2776 40.2578C36.7551 40.162 37.5524 40.0937 38.0477 40.0937C39.3679 40.0937 40.3894 40.4008 41.0828 41.0081C41.7795 41.617 42.1335 42.5995 42.1335 43.9247L42.1368 49.9673C42.1368 49.9673 42.1498 50.1428 41.9857 50.1833C41.832 50.225 41.6777 50.2646 41.5229 50.3019C41.302 50.3521 40.5063 50.5129 39.8584 50.6233C39.2039 50.7355 38.5284 50.7906 37.8512 50.7906C37.2081 50.7906 36.6203 50.7306 36.1022 50.612C35.5761 50.4935 35.123 50.2971 34.756 50.0291C34.3858 49.7611 34.0952 49.4136 33.8938 48.9963C33.6923 48.5805 33.5917 48.0722 33.5917 47.4876C33.5917 46.9127 33.7103 46.3995 33.9441 45.9643C34.1754 45.5322 34.5033 45.1593 34.9022 44.8746C35.3017 44.589 35.7661 44.3728 36.2825 44.2349C36.7957 44.0968 37.343 44.0254 37.9097 44.0254ZM92.1364 40.4144C92.1803 40.4307 92.2857 40.5021 92.2355 40.6516C92.1738 40.8318 91.8522 41.7363 91.7384 42.0384C91.6963 42.1537 91.6248 42.2316 91.4982 42.217C91.4982 42.217 91.1182 42.1278 90.7723 42.1278C90.5319 42.1278 90.1925 42.1586 89.8857 42.2528C89.5852 42.3454 89.3108 42.5094 89.0689 42.7432C88.8285 42.9787 88.6336 43.3067 88.4908 43.716C88.3446 44.1301 88.2714 44.7894 88.2714 45.4503V50.374C88.2716 50.4272 88.2506 50.4782 88.2132 50.516C88.1758 50.5537 88.1249 50.5751 88.0717 50.5754H86.3357C86.2254 50.5754 86.1344 50.4844 86.1344 50.374V40.5184C86.1344 40.4062 86.2139 40.317 86.3243 40.317H88.0181C88.1286 40.317 88.2081 40.4063 88.2081 40.5184V41.3222C88.4615 40.9827 88.9162 40.684 89.3254 40.4989C89.738 40.3138 90.1992 40.1741 91.0289 40.2244C91.4625 40.2521 92.0244 40.3706 92.1364 40.4144Z" fill="#F9FFF6"/>
</svg>
