<svg width="130" height="96" viewBox="0 0 130 96" fill="none" xmlns="http://www.w3.org/2000/svg">
<path d="M89.3865 80.9668C82.2858 86.2227 73.8543 89 65.0045 89C42.3199 89 24 70.649 24 48C24 25.3194 42.3579 7 65.0045 7C75.1387 7 84.8666 10.7282 92.3958 17.4982C92.8288 17.8882 92.4915 18.5957 91.9227 18.5198C89.0018 18.1178 85.847 17.9146 82.5471 17.9146C61.1607 17.9146 45.7786 26.7544 45.7786 43.5975C45.7786 61.6238 61.0104 67.7145 75.0134 73.1452C80.5746 75.3011 85.8256 77.3381 89.3899 80.0211C89.704 80.2593 89.7026 80.7342 89.3865 80.9668ZM105.83 44.2127C105.817 44.057 105.739 43.91 105.62 43.8091C97.0627 36.707 90.1424 33.8104 81.7339 33.8104C67.8248 33.8104 68.4662 42.4354 68.4662 42.6766C68.4662 49.7192 77.0731 52.9282 87.0393 56.6446C92.1758 58.5604 97.4862 60.5412 102.362 63.2456C102.672 63.4195 103.066 63.2772 103.196 62.9447C106.319 54.9451 106.162 48.0282 105.83 44.2127Z" fill="#F9FFF6"/>
</svg>
