<svg width="130" height="96" viewBox="0 0 130 96" fill="none" xmlns="http://www.w3.org/2000/svg">
<path d="M65.025 8C67.2847 8.00415 69.507 8.1951 71.6674 8.55624V31.8437L88.1772 15.3765C90.0006 16.6716 91.7065 18.112 93.2837 19.6853C94.8617 21.2585 96.3101 22.9647 97.6084 24.7828L81.0978 41.2501H104.446C104.809 43.4045 105 45.6129 105 47.8711V47.925C105 50.1832 104.809 52.3957 104.446 54.5501H81.0938L97.6084 71.0133C96.3101 72.8314 94.8617 74.5376 93.2885 76.1108H93.2837C91.7065 77.6841 90.0006 79.1286 88.1819 80.4196L71.6674 63.9523V87.2398C69.511 87.601 67.2887 87.7917 65.029 87.7965H64.971C62.7105 87.7917 60.4969 87.601 58.3366 87.2398V63.9523L41.8268 80.4196C38.1806 77.8335 34.9929 74.6497 32.3956 71.0133L48.9062 54.5501H25.5578C25.1915 52.3915 25 50.1707 25 47.9125V47.7966C25.0038 47.2106 25.0422 46.4947 25.0973 45.7541L25.1143 45.5312C25.2775 43.4465 25.5578 41.2501 25.5578 41.2501H48.9062L32.3956 24.7828C33.6899 22.9647 35.1344 21.2627 36.7115 19.6936L36.7195 19.6853C38.2935 18.112 40.0033 16.6716 41.8268 15.3765L58.3366 31.8437V8.55624C60.4969 8.1951 62.7153 8.00415 64.9789 8H65.025ZM65.0211 37.9251H64.9829C62.0113 37.9251 59.1653 38.4689 56.5346 39.4568C55.5485 42.0762 55.0027 44.9155 54.9987 47.8793V47.9167C55.0027 50.8806 55.5485 53.7199 56.5385 56.3392C59.1653 57.3272 62.0113 57.871 64.9829 57.871H65.0211C67.9926 57.871 70.8387 57.3272 73.4654 56.3392C74.4554 53.7158 75.0013 50.8806 75.0013 47.9167V47.8793C75.0013 44.9155 74.4554 42.0762 73.4654 39.4568C70.8387 38.4689 67.9926 37.9251 65.0211 37.9251Z" fill="#F9FFF6"/>
</svg>
