<svg width="130" height="96" viewBox="0 0 130 96" fill="none" xmlns="http://www.w3.org/2000/svg">
<path d="M30.5279 54.9828L30.5097 54.9251L42.0686 44.4119V39.3464H23.5242V44.4119H34.6008L34.619 44.4605L23.1731 54.9828V60.0484H42.2548V54.9828H30.5279Z" fill="#F9FFF6"/>
<path d="M53.6374 38.8641C51.4984 38.8641 49.755 39.1846 48.4074 39.8256C47.1524 40.3843 46.095 41.3047 45.3727 42.4676C44.6819 43.6381 44.2479 44.9405 44.0997 46.2895L49.7264 47.0751C49.93 45.884 50.3372 45.0398 50.9477 44.5423C51.6419 44.022 52.4973 43.7591 53.3657 43.7992C54.5076 43.7992 55.336 44.1025 55.851 44.7091C56.3609 45.3158 56.6204 46.156 56.6204 47.2631V47.8152H51.2103C48.4563 47.8152 46.478 48.4218 45.2752 49.6351C44.0722 50.8484 43.4718 52.45 43.4739 54.4398C43.4739 56.4782 44.0743 57.9948 45.2752 58.9896C46.4759 59.9846 47.9862 60.4791 49.806 60.4729C52.0631 60.4729 53.7994 59.7015 55.0144 58.1586C55.732 57.2103 56.2444 56.125 56.5195 54.9706H56.7241L57.4997 60.036H62.5984V47.2086C62.5984 44.5575 61.8951 42.504 60.4887 41.048C59.0821 39.5921 56.7985 38.8641 53.6374 38.8641ZM55.4205 54.6764C54.6114 55.3467 53.5521 55.6804 52.2331 55.6804C51.146 55.6804 50.391 55.4913 49.9677 55.1132C49.7615 54.9343 49.5972 54.7125 49.487 54.4634C49.3767 54.2144 49.3229 53.9444 49.3297 53.6724C49.3175 53.4159 49.3583 53.1597 49.449 52.9193C49.5398 52.6789 49.6789 52.4594 49.8577 52.2741C50.0512 52.0938 50.2795 51.9544 50.5288 51.8642C50.7781 51.774 51.0431 51.7349 51.308 51.7493H56.6295V52.0981C56.6404 52.5912 56.5369 53.0801 56.3274 53.5272C56.1175 53.9742 55.8074 54.3674 55.4205 54.6764Z" fill="#F9FFF6"/>
<path d="M93.4263 39.3464H87.4026V60.0513H93.4263V39.3464Z" fill="#F9FFF6"/>
<path d="M128.989 39.3464C127.288 39.3464 125.947 39.9429 124.966 41.136C124.261 41.9934 123.726 43.2603 123.36 44.9367H123.182L122.395 39.3464H117.25V60.0484H123.274V49.4319C123.274 48.0933 123.59 47.067 124.221 46.3532C124.851 45.6394 126.016 45.2825 127.713 45.2825H130V39.3464H128.989Z" fill="#F9FFF6"/>
<path d="M111.279 40.0232C109.872 39.1921 108.098 38.7776 105.957 38.7796C102.587 38.7796 99.9487 39.733 98.0437 41.6399C96.1384 43.5468 95.186 46.1756 95.186 49.5264C95.1374 51.5522 95.5825 53.5595 96.4834 55.3775C97.3081 56.9975 98.5925 58.342 100.178 59.2448C101.773 60.1611 103.671 60.6201 105.872 60.6219C107.775 60.6219 109.364 60.3308 110.641 59.7485C111.84 59.2255 112.885 58.4056 113.675 57.3674C114.428 56.3481 114.986 55.2009 115.324 53.9822L110.134 52.5384C109.915 53.3309 109.495 54.0539 108.913 54.6374C108.326 55.2198 107.344 55.511 105.966 55.511C104.328 55.511 103.107 55.0449 102.302 54.1126C101.72 53.4393 101.353 52.4777 101.191 51.2311H115.403C115.461 50.6487 115.492 50.1603 115.492 49.766V48.4769C115.526 46.745 115.166 45.0279 114.439 43.4538C113.758 42.0199 112.656 40.824 111.279 40.0232ZM105.783 43.7147C108.226 43.7147 109.611 44.9087 109.938 47.2969H101.298C101.435 46.5001 101.768 45.749 102.266 45.11C103.058 44.1777 104.23 43.7126 105.783 43.7147Z" fill="#F9FFF6"/>
<path d="M90.4789 31.0019C90.0257 30.9866 89.5741 31.062 89.1508 31.2235C88.7275 31.385 88.3414 31.6295 88.0151 31.9422C87.6935 32.258 87.4413 32.6368 87.2746 33.0545C87.108 33.4722 87.0305 33.9198 87.0474 34.3688C87.031 34.8207 87.1088 35.2711 87.2754 35.6919C87.4423 36.1127 87.6945 36.4948 88.0164 36.8144C88.3386 37.134 88.7234 37.3843 89.1469 37.5496C89.5707 37.7149 90.0242 37.7916 90.4789 37.7751C90.9308 37.7921 91.3816 37.7153 91.802 37.5498C92.2225 37.3843 92.6036 37.1335 92.9214 36.8136C93.2365 36.4903 93.4824 36.1071 93.6444 35.687C93.8067 35.2668 93.8816 34.8184 93.8647 34.3688C93.8855 33.9218 93.8124 33.4754 93.6496 33.0581C93.4871 32.6408 93.2388 32.2618 92.9206 31.9453C92.6021 31.6287 92.2209 31.3816 91.801 31.2197C91.3811 31.0578 90.9318 30.9847 90.482 31.005L90.4789 31.0019Z" fill="#F9FFF6"/>
<path d="M78.037 38.7796C75.9856 38.7796 74.3369 39.4196 73.0913 40.6996C72.169 41.648 71.4925 43.0635 71.0609 44.9461H70.8685L70.081 39.3559H64.9363V66H70.96V55.0257H71.18C71.3638 55.7574 71.6215 56.4688 71.9493 57.1489C72.4589 58.2568 73.2946 59.1854 74.346 59.8121C75.4362 60.4031 76.6642 60.6973 77.9057 60.6645C80.4277 60.6645 82.3481 59.6889 83.6671 57.7373C84.9858 55.786 85.6455 53.0631 85.6455 49.5689C85.6455 46.1939 85.0074 43.5519 83.7311 41.643C82.455 39.734 80.557 38.7796 78.037 38.7796ZM78.6478 53.782C77.9455 54.7931 76.8465 55.2986 75.3504 55.2986C74.7337 55.3269 74.1188 55.2088 73.5572 54.954C72.9953 54.6993 72.5029 54.3152 72.1204 53.8336C71.3407 52.8609 70.952 51.5293 70.954 49.8388V49.4445C70.954 47.7276 71.3428 46.4132 72.1204 45.5012C72.8978 44.5893 73.9745 44.1383 75.3504 44.1484C76.873 44.1484 77.979 44.6287 78.6691 45.5892C79.3591 46.5497 79.7042 47.8894 79.7042 49.6082C79.7083 51.3857 79.3581 52.777 78.6537 53.782H78.6478Z" fill="#F9FFF6"/>
<path d="M20.8403 54.9827H0V60.0544H20.8403V54.9827Z" fill="#F9FFF6"/>
</svg>
